<svg xmlns="http://www.w3.org/2000/svg" xmlns:xlink="http://www.w3.org/1999/xlink" width="250" zoomAndPan="magnify" viewBox="0 0 187.5 112.499997" height="150" preserveAspectRatio="xMidYMid meet" version="1.0"><defs><g/><clipPath id="a77cfd02dc"><path d="M 0.164062 5 L 186.835938 5 L 186.835938 107 L 0.164062 107 Z M 0.164062 5 " clip-rule="nonzero"/></clipPath></defs><g clip-path="url(#a77cfd02dc)"><path stroke-linecap="butt" transform="matrix(1.149668, 0, 0, 1.149668, 12.967832, 2.690861)" fill="none" stroke-linejoin="miter" d="M 25.663772 70.000287 L 25.663772 60.935172 L 2.994189 60.935172 L 0.928376 51.8055 L 25.126932 22.999636 L 38.130004 22.999636 L 38.130004 51.26866 L 44.055626 51.26866 L 44.055626 60.935172 L 38.130004 60.935172 L 38.130004 70.000287 Z M 14.468287 51.333217 L 25.663772 51.333217 L 25.663772 37.874851 Z M 70.190883 70.927864 C 66.905289 70.927864 63.925489 70.289093 61.258279 69.008153 C 58.587672 67.71702 56.321393 65.980785 54.452647 63.799449 C 52.5873 61.618113 51.15686 59.063029 50.15793 56.134195 C 49.159001 53.20536 48.659536 50.096447 48.659536 46.807455 L 48.659536 46.661353 C 48.659536 43.375759 49.169194 40.256652 50.18851 37.304034 C 51.211223 34.354814 52.651856 31.775945 54.520602 29.574223 C 56.38595 27.372501 58.662422 25.626073 61.353415 24.33494 C 64.044409 23.043806 67.034402 22.39824 70.319996 22.39824 C 73.608989 22.39824 76.588789 23.043806 79.255998 24.33494 C 81.926606 25.626073 84.192884 27.362308 86.058232 29.540246 C 87.92358 31.711388 89.357418 34.266473 90.356347 37.2055 C 91.351879 40.137732 91.851344 43.243248 91.851344 46.53224 L 91.851344 46.661353 C 91.851344 49.960539 91.341686 53.08644 90.32237 56.035661 C 89.303054 58.988279 87.869217 61.56375 86.027653 63.765472 C 84.182691 65.970592 81.913015 67.71702 79.222021 69.008153 C 76.534425 70.289093 73.520648 70.927864 70.190883 70.927864 Z M 70.319996 59.470755 C 72.902263 59.470755 74.971474 58.281553 76.520834 55.906547 C 78.073592 53.531542 78.848272 50.497378 78.848272 46.807455 L 78.848272 46.661353 C 78.848272 42.930657 78.053206 39.855721 76.456278 37.436545 C 74.862747 35.013971 72.77315 33.804383 70.190883 33.804383 C 67.652787 33.804383 65.597167 34.993585 64.024023 37.368591 C 62.450879 39.746994 61.662608 42.801544 61.662608 46.53224 L 61.662608 46.661353 C 61.662608 50.395447 62.461072 53.463587 64.054602 55.87257 C 65.661723 58.27136 67.751321 59.470755 70.319996 59.470755 Z M 120.249481 70.000287 L 120.249481 60.935172 L 97.579898 60.935172 L 95.514085 51.8055 L 119.712642 22.999636 L 132.715713 22.999636 L 132.715713 51.26866 L 138.641336 51.26866 L 138.641336 60.935172 L 132.715713 60.935172 L 132.715713 70.000287 Z M 109.053996 51.333217 L 120.249481 51.333217 L 120.249481 37.874851 Z M 109.053996 51.333217 " stroke="#000000" stroke-width="3.500002" stroke-opacity="1" stroke-miterlimit="4"/></g><g fill="#2966cc" fill-opacity="1"><g transform="translate(12.967832, 83.167639)"><g><path d="M 29.5 0 L 29.5 -10.421875 L 3.453125 -10.421875 L 1.078125 -20.921875 L 28.890625 -54.03125 L 43.84375 -54.03125 L 43.84375 -21.53125 L 50.65625 -21.53125 L 50.65625 -10.421875 L 43.84375 -10.421875 L 43.84375 0 Z M 16.625 -21.453125 L 29.5 -21.453125 L 29.5 -36.9375 Z M 16.625 -21.453125 "/></g></g></g><g fill="#2966cc" fill-opacity="1"><g transform="translate(65.767754, 83.167639)"><g><path d="M 27.890625 1.078125 C 24.109375 1.078125 20.6875 0.335938 17.625 -1.140625 C 14.5625 -2.628906 11.957031 -4.625 9.8125 -7.125 C 7.664062 -9.632812 6.015625 -12.570312 4.859375 -15.9375 C 3.710938 -19.3125 3.140625 -22.890625 3.140625 -26.671875 L 3.140625 -26.828125 C 3.140625 -30.609375 3.726562 -34.195312 4.90625 -37.59375 C 6.082031 -40.988281 7.742188 -43.953125 9.890625 -46.484375 C 12.035156 -49.015625 14.648438 -51.019531 17.734375 -52.5 C 20.828125 -53.976562 24.265625 -54.71875 28.046875 -54.71875 C 31.828125 -54.71875 35.25 -53.976562 38.3125 -52.5 C 41.382812 -51.019531 43.992188 -49.023438 46.140625 -46.515625 C 48.285156 -44.015625 49.929688 -41.078125 51.078125 -37.703125 C 52.234375 -34.335938 52.8125 -30.765625 52.8125 -26.984375 L 52.8125 -26.828125 C 52.8125 -23.046875 52.222656 -19.453125 51.046875 -16.046875 C 49.867188 -12.648438 48.21875 -9.6875 46.09375 -7.15625 C 43.976562 -4.632812 41.375 -2.628906 38.28125 -1.140625 C 35.1875 0.335938 31.722656 1.078125 27.890625 1.078125 Z M 28.046875 -12.109375 C 31.015625 -12.109375 33.390625 -13.472656 35.171875 -16.203125 C 36.960938 -18.941406 37.859375 -22.429688 37.859375 -26.671875 L 37.859375 -26.828125 C 37.859375 -31.117188 36.9375 -34.65625 35.09375 -37.4375 C 33.257812 -40.21875 30.859375 -41.609375 27.890625 -41.609375 C 24.984375 -41.609375 22.625 -40.242188 20.8125 -37.515625 C 19 -34.785156 18.09375 -31.273438 18.09375 -26.984375 L 18.09375 -26.828125 C 18.09375 -22.535156 19.007812 -19.007812 20.84375 -16.25 C 22.6875 -13.488281 25.085938 -12.109375 28.046875 -12.109375 Z M 28.046875 -12.109375 "/></g></g></g><g fill="#2966cc" fill-opacity="1"><g transform="translate(121.709616, 83.167639)"><g><path d="M 29.5 0 L 29.5 -10.421875 L 3.453125 -10.421875 L 1.078125 -20.921875 L 28.890625 -54.03125 L 43.84375 -54.03125 L 43.84375 -21.53125 L 50.65625 -21.53125 L 50.65625 -10.421875 L 43.84375 -10.421875 L 43.84375 0 Z M 16.625 -21.453125 L 29.5 -21.453125 L 29.5 -36.9375 Z M 16.625 -21.453125 "/></g></g></g></svg>