<svg xmlns="http://www.w3.org/2000/svg" xmlns:xlink="http://www.w3.org/1999/xlink" width="250" zoomAndPan="magnify" viewBox="0 0 187.5 112.499997" height="150" preserveAspectRatio="xMidYMid meet" version="1.0"><defs><g/><clipPath id="a83a3103ba"><path d="M 0.164062 5 L 186.835938 5 L 186.835938 107 L 0.164062 107 Z M 0.164062 5 " clip-rule="nonzero"/></clipPath></defs><g clip-path="url(#a83a3103ba)"><path stroke-linecap="butt" transform="matrix(1.149668, 0, 0, 1.149668, 13.659428, 2.690861)" fill="none" stroke-linejoin="miter" d="M 20.196677 70.927864 C 16.061653 70.927864 12.483854 70.265309 9.456487 68.943596 C 6.439312 67.608293 3.73133 65.807501 1.335937 63.537825 L 8.739568 54.863447 C 10.604916 56.470569 12.46007 57.717532 14.305032 58.607734 C 16.149994 59.497937 18.069705 59.943038 20.067564 59.943038 C 22.204729 59.943038 23.869612 59.443573 25.062211 58.444644 C 26.268402 57.435521 26.869798 56.113808 26.869798 54.47271 L 26.869798 54.326608 C 26.869798 52.644737 26.234424 51.326422 24.963677 50.371663 C 23.696328 49.416903 22.041639 48.941223 19.999609 48.941223 C 18.579363 48.941223 17.25765 49.162075 16.031073 49.607176 C 14.804497 50.052277 13.639079 50.606105 12.531423 51.26866 L 4.866168 46.939966 L 6.201471 23.342806 L 37.39933 23.342806 L 37.39933 34.001451 L 16.404822 34.001451 L 15.997096 41.06531 C 17.060582 40.576038 18.178432 40.178505 19.350645 39.876108 C 20.533051 39.56012 21.90573 39.403825 23.468681 39.403825 C 25.551483 39.403825 27.559535 39.706222 29.489439 40.314414 C 31.432935 40.912412 33.135192 41.812808 34.599609 43.0156 C 36.064026 44.211598 37.239637 45.740571 38.12984 47.605919 C 39.020042 49.471267 39.465143 51.669591 39.465143 54.197495 L 39.465143 54.326608 C 39.465143 56.908874 38.989463 59.236312 38.034703 61.308921 C 37.079944 63.371337 35.754834 65.110969 34.06277 66.534613 C 32.370705 67.95486 30.335472 69.045528 27.960466 69.803219 C 25.582062 70.554115 22.996398 70.927864 20.196677 70.927864 Z M 66.259557 70.927864 C 62.970565 70.927864 59.994163 70.289093 57.323556 69.008153 C 54.656346 67.71702 52.38667 65.980785 50.521322 63.799449 C 48.655974 61.618113 47.222136 59.063029 46.223207 56.134195 C 45.227675 53.20536 44.72821 50.096447 44.72821 46.807455 L 44.72821 46.661353 C 44.72821 43.375759 45.237868 40.256652 46.257184 37.304034 C 47.2765 34.354814 48.720531 31.775945 50.585878 29.574223 C 52.451226 27.372501 54.731096 25.626073 57.42209 24.33494 C 60.113083 23.043806 63.103076 22.39824 66.388671 22.39824 C 69.677663 22.39824 72.654065 23.043806 75.324672 24.33494 C 77.991882 25.626073 80.261559 27.362308 82.126906 29.540246 C 83.992254 31.711388 85.426092 34.266473 86.421624 37.2055 C 87.420553 40.137732 87.920018 43.243248 87.920018 46.53224 L 87.920018 46.661353 C 87.920018 49.960539 87.41036 53.08644 86.391044 56.035661 C 85.371728 58.988279 83.937891 61.56375 82.092929 63.765472 C 80.247968 65.970592 77.981689 67.71702 75.290695 69.008153 C 72.599702 70.289093 69.589322 70.927864 66.259557 70.927864 Z M 66.388671 59.470755 C 68.970937 59.470755 71.036751 58.281553 72.589508 55.906547 C 74.142266 53.531542 74.916946 50.497378 74.916946 46.807455 L 74.916946 46.661353 C 74.916946 42.930657 74.118482 39.855721 72.524952 37.436545 C 70.928024 35.013971 68.841824 33.804383 66.259557 33.804383 C 63.721461 33.804383 61.662443 34.993585 60.089299 37.368591 C 58.516155 39.746994 57.731282 42.801544 57.731282 46.53224 L 57.731282 46.661353 C 57.731282 50.395447 58.529746 53.463587 60.123276 55.87257 C 61.730398 58.27136 63.816597 59.470755 66.388671 59.470755 Z M 114.918295 70.927864 C 111.629303 70.927864 108.652901 70.289093 105.982294 69.008153 C 103.315084 67.71702 101.045407 65.980785 99.18006 63.799449 C 97.314712 61.618113 95.880874 59.063029 94.885342 56.134195 C 93.886413 53.20536 93.386948 50.096447 93.386948 46.807455 L 93.386948 46.661353 C 93.386948 43.375759 93.896606 40.256652 94.915922 37.304034 C 95.935238 34.354814 97.379268 31.775945 99.244616 29.574223 C 101.109964 27.372501 103.389834 25.626073 106.080827 24.33494 C 108.771821 23.043806 111.761814 22.39824 115.047409 22.39824 C 118.336401 22.39824 121.312803 23.043806 123.98341 24.33494 C 126.65062 25.626073 128.920296 27.362308 130.785644 29.540246 C 132.650992 31.711388 134.08483 34.266473 135.080361 37.2055 C 136.079291 40.137732 136.578756 43.243248 136.578756 46.53224 L 136.578756 46.661353 C 136.578756 49.960539 136.069098 53.08644 135.049782 56.035661 C 134.030466 58.988279 132.596629 61.56375 130.751667 63.765472 C 128.906705 65.970592 126.640427 67.71702 123.949433 69.008153 C 121.258439 70.289093 118.24806 70.927864 114.918295 70.927864 Z M 115.047409 59.470755 C 117.629675 59.470755 119.695489 58.281553 121.248246 55.906547 C 122.801004 53.531542 123.575684 50.497378 123.575684 46.807455 L 123.575684 46.661353 C 123.575684 42.930657 122.77722 39.855721 121.18369 37.436545 C 119.590159 35.013971 117.500562 33.804383 114.918295 33.804383 C 112.380199 33.804383 110.324579 34.993585 108.751435 37.368591 C 107.174893 39.746994 106.39002 42.801544 106.39002 46.53224 L 106.39002 46.661353 C 106.39002 50.395447 107.188484 53.463587 108.782014 55.87257 C 110.389135 58.27136 112.475335 59.470755 115.047409 59.470755 Z M 115.047409 59.470755 " stroke="#000000" stroke-width="3.500002" stroke-opacity="1" stroke-miterlimit="4"/></g><g fill="#2966cc" fill-opacity="1"><g transform="translate(13.659428, 83.167639)"><g><path d="M 23.21875 1.078125 C 18.46875 1.078125 14.351562 0.3125 10.875 -1.21875 C 7.40625 -2.757812 4.289062 -4.832031 1.53125 -7.4375 L 10.046875 -17.390625 C 12.191406 -15.554688 14.320312 -14.128906 16.4375 -13.109375 C 18.5625 -12.085938 20.769531 -11.578125 23.0625 -11.578125 C 25.519531 -11.578125 27.4375 -12.148438 28.8125 -13.296875 C 30.195312 -14.441406 30.890625 -15.960938 30.890625 -17.859375 L 30.890625 -18.015625 C 30.890625 -19.953125 30.160156 -21.46875 28.703125 -22.5625 C 27.242188 -23.664062 25.335938 -24.21875 22.984375 -24.21875 C 21.359375 -24.21875 19.84375 -23.960938 18.4375 -23.453125 C 17.03125 -22.941406 15.6875 -22.300781 14.40625 -21.53125 L 5.59375 -26.515625 L 7.125 -53.640625 L 43 -53.640625 L 43 -41.390625 L 18.859375 -41.390625 L 18.390625 -33.265625 C 19.617188 -33.828125 20.910156 -34.285156 22.265625 -34.640625 C 23.617188 -34.992188 25.191406 -35.171875 26.984375 -35.171875 C 29.378906 -35.171875 31.6875 -34.828125 33.90625 -34.140625 C 36.132812 -33.453125 38.09375 -32.414062 39.78125 -31.03125 C 41.46875 -29.65625 42.820312 -27.894531 43.84375 -25.75 C 44.863281 -23.601562 45.375 -21.070312 45.375 -18.15625 L 45.375 -18.015625 C 45.375 -15.046875 44.820312 -12.375 43.71875 -10 C 42.625 -7.625 41.101562 -5.617188 39.15625 -3.984375 C 37.21875 -2.347656 34.878906 -1.09375 32.140625 -0.21875 C 29.410156 0.644531 26.4375 1.078125 23.21875 1.078125 Z M 23.21875 1.078125 "/></g></g></g><g fill="#2966cc" fill-opacity="1"><g transform="translate(61.938022, 83.167639)"><g><path d="M 27.890625 1.078125 C 24.109375 1.078125 20.6875 0.335938 17.625 -1.140625 C 14.5625 -2.628906 11.957031 -4.625 9.8125 -7.125 C 7.664062 -9.632812 6.015625 -12.570312 4.859375 -15.9375 C 3.710938 -19.3125 3.140625 -22.890625 3.140625 -26.671875 L 3.140625 -26.828125 C 3.140625 -30.609375 3.726562 -34.195312 4.90625 -37.59375 C 6.082031 -40.988281 7.742188 -43.953125 9.890625 -46.484375 C 12.035156 -49.015625 14.648438 -51.019531 17.734375 -52.5 C 20.828125 -53.976562 24.265625 -54.71875 28.046875 -54.71875 C 31.828125 -54.71875 35.25 -53.976562 38.3125 -52.5 C 41.382812 -51.019531 43.992188 -49.023438 46.140625 -46.515625 C 48.285156 -44.015625 49.929688 -41.078125 51.078125 -37.703125 C 52.234375 -34.335938 52.8125 -30.765625 52.8125 -26.984375 L 52.8125 -26.828125 C 52.8125 -23.046875 52.222656 -19.453125 51.046875 -16.046875 C 49.867188 -12.648438 48.21875 -9.6875 46.09375 -7.15625 C 43.976562 -4.632812 41.375 -2.628906 38.28125 -1.140625 C 35.1875 0.335938 31.722656 1.078125 27.890625 1.078125 Z M 28.046875 -12.109375 C 31.015625 -12.109375 33.390625 -13.472656 35.171875 -16.203125 C 36.960938 -18.941406 37.859375 -22.429688 37.859375 -26.671875 L 37.859375 -26.828125 C 37.859375 -31.117188 36.9375 -34.65625 35.09375 -37.4375 C 33.257812 -40.21875 30.859375 -41.609375 27.890625 -41.609375 C 24.984375 -41.609375 22.625 -40.242188 20.8125 -37.515625 C 19 -34.785156 18.09375 -31.273438 18.09375 -26.984375 L 18.09375 -26.828125 C 18.09375 -22.535156 19.007812 -19.007812 20.84375 -16.25 C 22.6875 -13.488281 25.085938 -12.109375 28.046875 -12.109375 Z M 28.046875 -12.109375 "/></g></g></g><g fill="#2966cc" fill-opacity="1"><g transform="translate(117.879883, 83.167639)"><g><path d="M 27.890625 1.078125 C 24.109375 1.078125 20.6875 0.335938 17.625 -1.140625 C 14.5625 -2.628906 11.957031 -4.625 9.8125 -7.125 C 7.664062 -9.632812 6.015625 -12.570312 4.859375 -15.9375 C 3.710938 -19.3125 3.140625 -22.890625 3.140625 -26.671875 L 3.140625 -26.828125 C 3.140625 -30.609375 3.726562 -34.195312 4.90625 -37.59375 C 6.082031 -40.988281 7.742188 -43.953125 9.890625 -46.484375 C 12.035156 -49.015625 14.648438 -51.019531 17.734375 -52.5 C 20.828125 -53.976562 24.265625 -54.71875 28.046875 -54.71875 C 31.828125 -54.71875 35.25 -53.976562 38.3125 -52.5 C 41.382812 -51.019531 43.992188 -49.023438 46.140625 -46.515625 C 48.285156 -44.015625 49.929688 -41.078125 51.078125 -37.703125 C 52.234375 -34.335938 52.8125 -30.765625 52.8125 -26.984375 L 52.8125 -26.828125 C 52.8125 -23.046875 52.222656 -19.453125 51.046875 -16.046875 C 49.867188 -12.648438 48.21875 -9.6875 46.09375 -7.15625 C 43.976562 -4.632812 41.375 -2.628906 38.28125 -1.140625 C 35.1875 0.335938 31.722656 1.078125 27.890625 1.078125 Z M 28.046875 -12.109375 C 31.015625 -12.109375 33.390625 -13.472656 35.171875 -16.203125 C 36.960938 -18.941406 37.859375 -22.429688 37.859375 -26.671875 L 37.859375 -26.828125 C 37.859375 -31.117188 36.9375 -34.65625 35.09375 -37.4375 C 33.257812 -40.21875 30.859375 -41.609375 27.890625 -41.609375 C 24.984375 -41.609375 22.625 -40.242188 20.8125 -37.515625 C 19 -34.785156 18.09375 -31.273438 18.09375 -26.984375 L 18.09375 -26.828125 C 18.09375 -22.535156 19.007812 -19.007812 20.84375 -16.25 C 22.6875 -13.488281 25.085938 -12.109375 28.046875 -12.109375 Z M 28.046875 -12.109375 "/></g></g></g></svg>