<svg xmlns="http://www.w3.org/2000/svg" xmlns:xlink="http://www.w3.org/1999/xlink" width="100" zoomAndPan="magnify" viewBox="0 0 75 74.999997" height="100" preserveAspectRatio="xMidYMid meet" version="1.0"><defs><clipPath id="48fefb0f02"><path d="M 14 18.105469 L 63 18.105469 L 63 57.105469 L 14 57.105469 Z M 14 18.105469 " clip-rule="nonzero"/></clipPath></defs><path fill="#2966cc" d="M 37.5 2.34375 L 43.4375 0 L 48.363281 4.066406 L 54.738281 3.671875 L 58.164062 9.058594 L 64.347656 10.652344 L 65.941406 16.835938 L 71.328125 20.261719 L 70.933594 26.636719 L 75 31.5625 L 72.652344 37.5 L 75 43.4375 L 70.933594 48.363281 L 71.328125 54.738281 L 65.941406 58.164062 L 64.347656 64.347656 L 58.164062 65.941406 L 54.738281 71.328125 L 48.363281 70.933594 L 43.4375 75 L 37.5 72.65625 L 31.5625 75 L 26.636719 70.933594 L 20.261719 71.328125 L 16.835938 65.941406 L 10.652344 64.347656 L 9.058594 58.164062 L 3.671875 54.738281 L 4.066406 48.363281 L 0 43.4375 L 2.34375 37.5 L 0 31.5625 L 4.066406 26.636719 L 3.671875 20.261719 L 9.058594 16.835938 L 10.652344 10.652344 L 16.835938 9.058594 L 20.261719 3.671875 L 26.636719 4.066406 L 31.5625 0 Z M 37.5 2.34375 " fill-opacity="1" fill-rule="nonzero"/><g clip-path="url(#48fefb0f02)"><path fill="#ffffff" d="M 61.269531 19.515625 L 60.964844 19.285156 C 59.96875 18.476562 58.742188 18.128906 57.59375 18.246094 C 56.371094 18.359375 55.257812 18.898438 54.457031 19.859375 L 44.121094 32.101562 L 37.992188 39.53125 L 33.515625 44.960938 L 30.453125 41.6875 L 28.730469 39.878906 L 22.679688 33.527344 C 21.800781 32.601562 20.652344 32.140625 19.425781 32.0625 C 18.277344 31.988281 17.054688 32.488281 16.171875 33.332031 L 15.867188 33.640625 C 13.992188 35.375 13.953125 38.375 15.675781 40.222656 L 21.648438 46.539062 L 23.371094 48.421875 L 30.261719 55.699219 C 31.066406 56.507812 32.136719 57.046875 33.171875 57.085938 C 33.246094 57.085938 33.246094 57.085938 33.285156 57.085938 C 33.363281 57.085938 33.398438 57.085938 33.515625 57.085938 C 33.515625 57.085938 33.515625 57.085938 33.589844 57.085938 C 33.78125 57.085938 33.9375 57.085938 34.164062 57.085938 C 35.390625 56.96875 36.5 56.429688 37.304688 55.46875 L 47.566406 43.226562 L 51.585938 38.339844 L 61.84375 26.097656 C 63.453125 24.132812 63.222656 21.207031 61.269531 19.515625 Z M 61.269531 19.515625 " fill-opacity="1" fill-rule="nonzero"/></g></svg>