<svg xmlns="http://www.w3.org/2000/svg" xmlns:xlink="http://www.w3.org/1999/xlink" width="120" zoomAndPan="magnify" viewBox="0 0 90 30.000001" height="40" preserveAspectRatio="xMidYMid meet" version="1.0"><defs><clipPath id="6157ce93ba"><path d="M 1.660156 0.679688 L 28.042969 0.679688 L 28.042969 28.464844 L 1.660156 28.464844 Z M 1.660156 0.679688 " clip-rule="nonzero"/></clipPath></defs><g clip-path="url(#6157ce93ba)"><path fill="#1e3b55" d="M 25.15625 16.890625 C 25.402344 16.890625 25.648438 16.921875 25.890625 16.984375 C 26.128906 17.046875 26.359375 17.140625 26.574219 17.265625 C 26.792969 17.386719 26.988281 17.535156 27.167969 17.707031 C 27.347656 17.882812 27.5 18.074219 27.628906 18.289062 C 27.757812 18.503906 27.855469 18.730469 27.925781 18.96875 C 27.996094 19.207031 28.035156 19.453125 28.042969 19.703125 C 28.050781 19.953125 28.027344 20.199219 27.96875 20.441406 C 27.914062 20.683594 27.828125 20.914062 27.710938 21.136719 C 27.46875 21.585938 27.207031 22.023438 26.917969 22.445312 C 26.628906 22.867188 26.316406 23.269531 25.984375 23.65625 C 25.652344 24.042969 25.296875 24.410156 24.921875 24.757812 C 24.550781 25.105469 24.15625 25.433594 23.75 25.738281 C 23.339844 26.042969 22.914062 26.324219 22.472656 26.582031 C 22.03125 26.835938 21.578125 27.070312 21.113281 27.277344 C 20.648438 27.484375 20.171875 27.664062 19.683594 27.820312 C 19.199219 27.972656 18.707031 28.101562 18.207031 28.199219 C 17.707031 28.300781 17.203125 28.371094 16.695312 28.414062 C 16.1875 28.457031 15.679688 28.472656 15.167969 28.460938 C 14.660156 28.449219 14.152344 28.410156 13.644531 28.339844 C 13.140625 28.269531 12.640625 28.175781 12.148438 28.050781 C 11.652344 27.925781 11.167969 27.773438 10.6875 27.597656 C 10.210938 27.417969 9.742188 27.214844 9.289062 26.984375 C 8.832031 26.757812 8.390625 26.5 7.964844 26.222656 C 7.535156 25.945312 7.125 25.644531 6.730469 25.320312 C 6.335938 24.996094 5.960938 24.648438 5.605469 24.285156 C 5.25 23.917969 4.914062 23.535156 4.601562 23.132812 C 4.285156 22.730469 3.996094 22.308594 3.726562 21.875 C 3.460938 21.4375 3.214844 20.992188 2.996094 20.527344 C 2.78125 20.066406 2.585938 19.59375 2.421875 19.109375 C 2.253906 18.628906 2.113281 18.136719 2.003906 17.636719 C 1.890625 17.136719 1.804688 16.636719 1.75 16.125 C 1.691406 15.617188 1.664062 15.109375 1.660156 14.597656 C 1.660156 14.085938 1.6875 13.574219 1.742188 13.066406 C 1.796875 12.558594 1.882812 12.054688 1.992188 11.554688 C 2.101562 11.058594 2.242188 10.566406 2.40625 10.082031 C 2.570312 9.597656 2.761719 9.125 2.976562 8.660156 C 3.195312 8.199219 3.4375 7.75 3.703125 7.3125 C 3.96875 6.878906 4.257812 6.457031 4.570312 6.054688 C 4.882812 5.648438 5.21875 5.265625 5.574219 4.898438 C 5.929688 4.53125 6.300781 4.183594 6.695312 3.859375 C 7.089844 3.53125 7.5 3.230469 7.925781 2.949219 C 8.351562 2.671875 8.792969 2.414062 9.246094 2.183594 C 9.703125 1.953125 10.167969 1.746094 10.644531 1.566406 C 11.121094 1.386719 11.609375 1.234375 12.101562 1.109375 C 12.59375 0.984375 13.09375 0.882812 13.601562 0.8125 C 14.105469 0.742188 14.613281 0.703125 15.121094 0.6875 C 15.632812 0.671875 16.140625 0.6875 16.648438 0.730469 C 17.15625 0.769531 17.660156 0.839844 18.160156 0.9375 C 18.660156 1.035156 19.152344 1.164062 19.640625 1.316406 C 20.125 1.46875 20.605469 1.648438 21.070312 1.851562 C 21.535156 2.058594 21.992188 2.289062 22.433594 2.542969 C 22.875 2.800781 23.300781 3.078125 23.710938 3.382812 C 24.121094 3.683594 24.515625 4.011719 24.890625 4.355469 C 25.265625 4.703125 25.617188 5.070312 25.953125 5.453125 C 26.289062 5.839844 26.601562 6.242188 26.890625 6.664062 C 27.179688 7.085938 27.445312 7.519531 27.6875 7.96875 C 27.808594 8.191406 27.898438 8.421875 27.960938 8.667969 C 28.019531 8.910156 28.046875 9.160156 28.042969 9.410156 C 28.039062 9.660156 28.003906 9.910156 27.933594 10.152344 C 27.867188 10.394531 27.769531 10.621094 27.640625 10.839844 C 27.511719 11.054688 27.359375 11.25 27.183594 11.429688 C 27.003906 11.605469 26.804688 11.753906 26.585938 11.878906 C 26.371094 12.003906 26.140625 12.101562 25.898438 12.164062 C 25.65625 12.230469 25.410156 12.261719 25.15625 12.261719 C 24.632812 12.265625 24.148438 12.136719 23.695312 11.871094 C 23.242188 11.601562 22.890625 11.238281 22.640625 10.777344 C 22.359375 10.25 22.027344 9.757812 21.636719 9.300781 C 21.25 8.84375 20.816406 8.4375 20.335938 8.078125 C 19.859375 7.722656 19.34375 7.417969 18.800781 7.175781 C 18.253906 6.929688 17.6875 6.746094 17.101562 6.628906 C 16.515625 6.511719 15.925781 6.457031 15.328125 6.46875 C 14.730469 6.484375 14.140625 6.5625 13.5625 6.703125 C 12.980469 6.847656 12.421875 7.054688 11.890625 7.324219 C 11.355469 7.589844 10.855469 7.914062 10.394531 8.292969 C 9.929688 8.671875 9.511719 9.097656 9.144531 9.570312 C 8.777344 10.042969 8.460938 10.546875 8.207031 11.089844 C 7.949219 11.628906 7.753906 12.195312 7.621094 12.777344 C 7.488281 13.363281 7.421875 13.953125 7.421875 14.554688 C 7.417969 15.152344 7.484375 15.746094 7.613281 16.332031 C 7.742188 16.917969 7.933594 17.480469 8.1875 18.023438 C 8.441406 18.566406 8.753906 19.074219 9.121094 19.546875 C 9.484375 20.023438 9.898438 20.449219 10.359375 20.832031 C 10.820312 21.210938 11.320312 21.539062 11.851562 21.808594 C 12.386719 22.078125 12.941406 22.289062 13.519531 22.4375 C 14.101562 22.582031 14.6875 22.664062 15.285156 22.679688 C 15.882812 22.695312 16.476562 22.644531 17.0625 22.53125 C 17.648438 22.414062 18.214844 22.234375 18.761719 21.992188 C 19.308594 21.75 19.824219 21.453125 20.304688 21.09375 C 20.785156 20.738281 21.21875 20.335938 21.609375 19.882812 C 22.003906 19.425781 22.339844 18.9375 22.621094 18.410156 C 22.871094 17.941406 23.226562 17.570312 23.679688 17.300781 C 24.132812 17.027344 24.625 16.890625 25.15625 16.890625 Z M 25.15625 16.890625 " fill-opacity="1" fill-rule="nonzero"/></g><path fill="#2966cc" d="M 20.121094 14.578125 C 20.121094 14.882812 20.089844 15.183594 20.03125 15.480469 C 19.972656 15.777344 19.886719 16.066406 19.769531 16.347656 C 19.652344 16.628906 19.511719 16.898438 19.34375 17.148438 C 19.175781 17.402344 18.984375 17.636719 18.769531 17.851562 C 18.554688 18.066406 18.320312 18.257812 18.070312 18.429688 C 17.816406 18.597656 17.550781 18.738281 17.269531 18.855469 C 16.992188 18.972656 16.703125 19.058594 16.40625 19.121094 C 16.109375 19.179688 15.808594 19.207031 15.503906 19.207031 C 15.203125 19.207031 14.902344 19.179688 14.605469 19.121094 C 14.304688 19.058594 14.019531 18.972656 13.738281 18.855469 C 13.457031 18.738281 13.191406 18.597656 12.941406 18.429688 C 12.6875 18.257812 12.453125 18.066406 12.242188 17.851562 C 12.027344 17.636719 11.835938 17.402344 11.667969 17.148438 C 11.496094 16.898438 11.355469 16.628906 11.238281 16.347656 C 11.125 16.066406 11.035156 15.777344 10.976562 15.480469 C 10.917969 15.183594 10.886719 14.882812 10.886719 14.578125 C 10.886719 14.273438 10.917969 13.972656 10.976562 13.671875 C 11.035156 13.375 11.125 13.085938 11.238281 12.804688 C 11.355469 12.523438 11.496094 12.257812 11.667969 12.003906 C 11.835938 11.75 12.027344 11.515625 12.242188 11.300781 C 12.453125 11.085938 12.6875 10.894531 12.941406 10.726562 C 13.191406 10.558594 13.457031 10.414062 13.738281 10.296875 C 14.019531 10.179688 14.304688 10.09375 14.605469 10.035156 C 14.902344 9.976562 15.203125 9.945312 15.503906 9.945312 C 15.808594 9.945312 16.109375 9.976562 16.40625 10.035156 C 16.703125 10.09375 16.992188 10.179688 17.269531 10.296875 C 17.550781 10.414062 17.816406 10.558594 18.070312 10.726562 C 18.320312 10.894531 18.554688 11.085938 18.769531 11.300781 C 18.984375 11.515625 19.175781 11.75 19.34375 12.003906 C 19.511719 12.257812 19.652344 12.523438 19.769531 12.804688 C 19.886719 13.085938 19.972656 13.375 20.03125 13.671875 C 20.089844 13.972656 20.121094 14.273438 20.121094 14.578125 Z M 20.121094 14.578125 " fill-opacity="1" fill-rule="nonzero"/><path fill="#1e3b55" d="M 31.121094 7.726562 C 31.121094 9.519531 32.257812 10.441406 33.851562 10.441406 C 34.613281 10.441406 35.316406 10.21875 35.796875 9.882812 L 35.546875 8.945312 C 35.167969 9.226562 34.582031 9.457031 33.953125 9.457031 C 32.925781 9.457031 32.257812 8.8125 32.257812 7.726562 C 32.257812 6.664062 32.925781 6.015625 33.78125 6.015625 C 34.0625 6.015625 34.332031 6.03125 34.574219 6.074219 L 34.667969 7.378906 L 35.726562 7.378906 L 35.726562 5.363281 C 35.15625 5.167969 34.613281 5.039062 33.804688 5.039062 C 32.265625 5.039062 31.121094 5.953125 31.121094 7.726562 Z M 38.261719 10.378906 L 38.261719 9.472656 L 37.785156 9.472656 L 38.007812 8.804688 L 39.886719 8.804688 L 40.113281 9.472656 L 39.644531 9.472656 L 39.644531 10.378906 L 41.738281 10.378906 L 41.738281 9.472656 L 41.21875 9.472656 L 39.675781 5.101562 L 38.226562 5.101562 L 36.675781 9.472656 L 36.167969 9.472656 L 36.167969 10.378906 Z M 38.953125 6.050781 L 39.625 8.039062 L 38.269531 8.039062 Z M 44.269531 5.046875 C 43.328125 5.046875 42.125 5.339844 42.125 6.511719 C 42.125 8.277344 45.019531 8.007812 45.019531 8.882812 C 45.019531 9.417969 44.554688 9.605469 43.839844 9.605469 C 43.613281 9.605469 43.386719 9.585938 43.167969 9.542969 L 43.085938 8.621094 L 42.128906 8.621094 L 42.128906 10.167969 C 42.6875 10.308594 43.410156 10.425781 43.910156 10.425781 C 45.449219 10.429688 46.15625 9.84375 46.15625 8.890625 C 46.15625 7.085938 43.269531 7.417969 43.269531 6.402344 C 43.269531 5.972656 43.683594 5.835938 44.265625 5.835938 C 44.515625 5.835938 44.765625 5.859375 45.007812 5.898438 L 45.089844 6.835938 L 46 6.835938 L 46 5.292969 C 45.535156 5.167969 44.890625 5.046875 44.269531 5.046875 Z M 46.6875 7.726562 C 46.6875 9.519531 47.828125 10.441406 49.417969 10.441406 C 50.179688 10.441406 50.886719 10.21875 51.367188 9.882812 L 51.117188 8.945312 C 50.738281 9.226562 50.148438 9.457031 49.519531 9.457031 C 48.496094 9.457031 47.828125 8.8125 47.828125 7.726562 C 47.828125 6.664062 48.496094 6.015625 49.347656 6.015625 C 49.628906 6.015625 49.898438 6.03125 50.140625 6.074219 L 50.238281 7.378906 L 51.296875 7.378906 L 51.296875 5.363281 C 50.722656 5.167969 50.179688 5.039062 49.371094 5.039062 C 47.835938 5.039062 46.6875 5.953125 46.6875 7.726562 Z M 53.828125 10.378906 L 53.828125 9.472656 L 53.351562 9.472656 L 53.578125 8.804688 L 55.453125 8.804688 L 55.679688 9.472656 L 55.210938 9.472656 L 55.210938 10.378906 L 57.308594 10.378906 L 57.308594 9.472656 L 56.789062 9.472656 L 55.242188 5.101562 L 53.800781 5.101562 L 52.246094 9.472656 L 51.738281 9.472656 L 51.738281 10.378906 Z M 54.519531 6.050781 L 55.191406 8.039062 L 53.839844 8.039062 Z M 60.132812 10.378906 C 61.640625 10.378906 62.761719 9.519531 62.761719 7.726562 C 62.761719 5.953125 61.640625 5.101562 60.132812 5.101562 L 57.652344 5.101562 L 57.652344 6.03125 L 58.160156 6.03125 L 58.160156 9.417969 L 57.652344 9.417969 L 57.652344 10.378906 Z M 60.140625 6.03125 C 60.972656 6.03125 61.628906 6.535156 61.628906 7.726562 C 61.628906 8.929688 60.972656 9.449219 60.140625 9.449219 L 59.28125 9.449219 L 59.28125 6.03125 Z M 63.113281 10.378906 L 67.453125 10.378906 L 67.453125 8.652344 L 66.632812 8.652344 L 66.5625 9.449219 L 64.742188 9.449219 L 64.742188 8.128906 L 66.25 8.128906 L 66.25 7.386719 L 64.742188 7.386719 L 64.742188 6.03125 L 66.5625 6.03125 L 66.632812 6.828125 L 67.453125 6.828125 L 67.453125 5.101562 L 63.113281 5.101562 L 63.113281 6.03125 L 63.621094 6.03125 L 63.621094 9.449219 L 63.113281 9.449219 Z M 69.78125 5.101562 L 69.78125 6.03125 L 70.371094 6.03125 L 71.546875 10.378906 L 72.835938 10.378906 L 73.816406 7 L 74.785156 10.378906 L 76.082031 10.378906 L 77.253906 6.03125 L 77.84375 6.03125 L 77.84375 5.101562 L 75.585938 5.101562 L 75.585938 6.03125 L 76.097656 6.03125 L 75.34375 8.933594 L 74.34375 5.417969 L 73.292969 5.417969 L 72.277344 8.933594 L 71.53125 6.03125 L 72.042969 6.03125 L 72.042969 5.101562 Z M 78.214844 10.378906 L 82.554688 10.378906 L 82.554688 8.652344 L 81.738281 8.652344 L 81.667969 9.449219 L 79.847656 9.449219 L 79.847656 8.128906 L 81.355469 8.128906 L 81.355469 7.386719 L 79.847656 7.386719 L 79.847656 6.03125 L 81.667969 6.03125 L 81.738281 6.828125 L 82.554688 6.828125 L 82.554688 5.101562 L 78.214844 5.101562 L 78.214844 6.03125 L 78.726562 6.03125 L 78.726562 9.449219 L 78.214844 9.449219 Z M 83.042969 6.03125 L 83.554688 6.03125 L 83.554688 9.449219 L 83.042969 9.449219 L 83.042969 10.378906 L 85.816406 10.378906 C 86.980469 10.378906 87.75 9.945312 87.75 8.984375 C 87.75 8.351562 87.429688 7.910156 86.867188 7.691406 C 87.238281 7.417969 87.457031 7.039062 87.457031 6.511719 C 87.457031 5.53125 86.691406 5.101562 85.527344 5.101562 L 83.042969 5.101562 Z M 84.675781 9.457031 L 84.675781 8.132812 L 85.816406 8.132812 C 86.378906 8.132812 86.699219 8.3125 86.699219 8.78125 C 86.699219 9.261719 86.378906 9.457031 85.816406 9.457031 Z M 84.675781 6.03125 L 85.527344 6.03125 C 86.085938 6.03125 86.410156 6.195312 86.410156 6.707031 C 86.410156 7.207031 86.097656 7.410156 85.527344 7.410156 L 84.675781 7.410156 Z M 84.675781 6.03125 " fill-opacity="1" fill-rule="nonzero"/><path fill="#1e3b55" d="M 33.890625 11.773438 C 32.679688 11.773438 31.121094 12.148438 31.121094 13.664062 C 31.121094 15.9375 34.855469 15.589844 34.855469 16.714844 C 34.855469 17.40625 34.257812 17.648438 33.335938 17.648438 C 33.039062 17.648438 32.75 17.617188 32.46875 17.570312 L 32.367188 16.378906 L 31.132812 16.378906 L 31.132812 18.371094 C 31.851562 18.550781 32.78125 18.707031 33.429688 18.707031 C 35.410156 18.714844 36.324219 17.953125 36.324219 16.722656 C 36.324219 14.402344 32.601562 14.824219 32.601562 13.519531 C 32.601562 12.957031 33.132812 12.785156 33.882812 12.785156 C 34.207031 12.785156 34.53125 12.816406 34.84375 12.871094 L 34.945312 14.078125 L 36.121094 14.078125 L 36.121094 12.085938 C 35.519531 11.921875 34.691406 11.773438 33.890625 11.773438 Z M 42.148438 15.222656 C 42.148438 16.636719 41.421875 17.46875 40.320312 17.46875 C 39.195312 17.46875 38.476562 16.636719 38.476562 15.222656 C 38.476562 13.84375 39.195312 13.019531 40.320312 13.019531 C 41.421875 13.019531 42.148438 13.851562 42.148438 15.222656 Z M 43.605469 15.222656 C 43.605469 12.941406 42.210938 11.765625 40.308594 11.765625 C 38.402344 11.765625 37.011719 12.941406 37.011719 15.222656 C 37.011719 17.546875 38.402344 18.722656 40.308594 18.722656 C 42.210938 18.722656 43.605469 17.539062 43.605469 15.222656 Z M 44.0625 17.445312 L 44.0625 18.644531 L 49.171875 18.644531 L 49.171875 16.289062 L 47.933594 16.289062 L 47.816406 17.445312 L 46.167969 17.445312 L 46.167969 13.042969 L 46.824219 13.042969 L 46.824219 11.84375 L 44.0625 11.84375 L 44.0625 13.042969 L 44.71875 13.042969 L 44.71875 17.445312 Z M 49.363281 13.042969 L 50.023438 13.042969 L 50.023438 15.71875 C 50.023438 17.953125 51.242188 18.722656 52.914062 18.722656 C 54.574219 18.722656 55.808594 17.945312 55.808594 15.71875 L 55.808594 13.042969 L 56.464844 13.042969 L 56.464844 11.84375 L 53.683594 11.84375 L 53.683594 13.042969 L 54.339844 13.042969 L 54.339844 15.71875 C 54.339844 17.050781 53.773438 17.46875 52.921875 17.46875 C 52.0625 17.46875 51.484375 17.050781 51.484375 15.71875 L 51.484375 13.042969 L 52.144531 13.042969 L 52.144531 11.84375 L 49.363281 11.84375 Z M 57.089844 11.84375 L 57.089844 14.125 L 58.195312 14.125 L 58.277344 13.042969 L 59.710938 13.042969 L 59.710938 17.445312 L 59.046875 17.445312 L 59.046875 18.644531 L 61.820312 18.644531 L 61.820312 17.445312 L 61.160156 17.445312 L 61.160156 13.042969 L 62.585938 13.042969 L 62.679688 14.125 L 63.769531 14.125 L 63.769531 11.84375 Z M 64.394531 13.042969 L 65.058594 13.042969 L 65.058594 17.445312 L 64.394531 17.445312 L 64.394531 18.644531 L 67.160156 18.644531 L 67.160156 17.445312 L 66.503906 17.445312 L 66.503906 13.042969 L 67.160156 13.042969 L 67.160156 11.84375 L 64.394531 11.84375 Z M 72.753906 15.222656 C 72.753906 16.636719 72.027344 17.46875 70.921875 17.46875 C 69.796875 17.46875 69.085938 16.636719 69.085938 15.222656 C 69.085938 13.84375 69.796875 13.019531 70.921875 13.019531 C 72.027344 13.019531 72.753906 13.851562 72.753906 15.222656 Z M 74.214844 15.222656 C 74.214844 12.941406 72.816406 11.765625 70.914062 11.765625 C 69.011719 11.765625 67.617188 12.941406 67.617188 15.222656 C 67.617188 17.546875 69.011719 18.722656 70.914062 18.722656 C 72.816406 18.722656 74.214844 17.539062 74.214844 15.222656 Z M 74.667969 13.042969 L 75.324219 13.042969 L 75.324219 17.445312 L 74.667969 17.445312 L 74.667969 18.644531 L 77.429688 18.644531 L 77.429688 17.445312 L 76.773438 17.445312 L 76.773438 13.617188 L 79.304688 18.644531 L 81.214844 18.644531 L 81.214844 13.042969 L 81.878906 13.042969 L 81.878906 11.84375 L 79.101562 11.84375 L 79.101562 13.042969 L 79.765625 13.042969 L 79.765625 16.808594 L 77.277344 11.84375 L 74.667969 11.84375 Z M 85.320312 11.773438 C 84.105469 11.773438 82.550781 12.148438 82.550781 13.664062 C 82.550781 15.9375 86.28125 15.589844 86.28125 16.714844 C 86.28125 17.40625 85.683594 17.648438 84.761719 17.648438 C 84.472656 17.648438 84.175781 17.617188 83.894531 17.570312 L 83.792969 16.378906 L 82.558594 16.378906 L 82.558594 18.371094 C 83.277344 18.550781 84.207031 18.707031 84.855469 18.707031 C 86.839844 18.714844 87.75 17.953125 87.75 16.722656 C 87.75 14.402344 84.027344 14.824219 84.027344 13.519531 C 84.027344 12.957031 84.5625 12.785156 85.3125 12.785156 C 85.636719 12.785156 85.957031 12.816406 86.273438 12.871094 L 86.375 14.078125 L 87.546875 14.078125 L 87.546875 12.085938 C 86.953125 11.921875 86.121094 11.773438 85.320312 11.773438 Z M 85.320312 11.773438 " fill-opacity="1" fill-rule="nonzero"/><path fill="#1e3b55" d="M 33 23.550781 L 33 21.410156 L 33.636719 21.410156 C 33.742188 21.410156 33.839844 21.421875 33.929688 21.4375 C 34.019531 21.460938 34.097656 21.488281 34.164062 21.53125 C 34.226562 21.574219 34.277344 21.625 34.3125 21.695312 C 34.347656 21.757812 34.363281 21.839844 34.363281 21.933594 C 34.363281 22.039062 34.335938 22.136719 34.273438 22.222656 C 34.214844 22.308594 34.121094 22.367188 33.996094 22.398438 L 33.996094 22.414062 C 34.152344 22.4375 34.273438 22.492188 34.359375 22.578125 C 34.445312 22.660156 34.488281 22.777344 34.488281 22.925781 C 34.488281 23.027344 34.46875 23.121094 34.429688 23.199219 C 34.394531 23.277344 34.335938 23.34375 34.265625 23.394531 C 34.195312 23.445312 34.109375 23.484375 34.007812 23.511719 C 33.910156 23.539062 33.800781 23.550781 33.679688 23.550781 Z M 33.269531 22.324219 L 33.585938 22.324219 C 33.769531 22.324219 33.902344 22.292969 33.984375 22.226562 C 34.0625 22.167969 34.101562 22.074219 34.101562 21.953125 C 34.101562 21.835938 34.058594 21.753906 33.972656 21.703125 C 33.890625 21.652344 33.765625 21.628906 33.601562 21.628906 L 33.269531 21.628906 Z M 33.269531 23.335938 L 33.640625 23.335938 C 33.824219 23.335938 33.96875 23.300781 34.070312 23.234375 C 34.171875 23.167969 34.222656 23.058594 34.222656 22.910156 C 34.222656 22.78125 34.175781 22.683594 34.074219 22.621094 C 33.976562 22.558594 33.828125 22.527344 33.640625 22.527344 L 33.269531 22.527344 Z M 35.644531 23.589844 C 35.511719 23.589844 35.386719 23.566406 35.273438 23.511719 C 35.164062 23.460938 35.070312 23.382812 34.988281 23.285156 C 34.910156 23.191406 34.847656 23.078125 34.800781 22.9375 C 34.757812 22.800781 34.734375 22.644531 34.734375 22.472656 C 34.734375 22.300781 34.757812 22.148438 34.800781 22.011719 C 34.847656 21.875 34.910156 21.757812 34.988281 21.664062 C 35.070312 21.570312 35.164062 21.496094 35.273438 21.449219 C 35.386719 21.398438 35.511719 21.371094 35.644531 21.371094 C 35.78125 21.371094 35.902344 21.398438 36.015625 21.449219 C 36.125 21.5 36.222656 21.574219 36.304688 21.667969 C 36.386719 21.761719 36.449219 21.875 36.492188 22.011719 C 36.539062 22.148438 36.558594 22.304688 36.558594 22.472656 C 36.558594 22.644531 36.539062 22.800781 36.492188 22.9375 C 36.449219 23.078125 36.386719 23.191406 36.304688 23.285156 C 36.222656 23.382812 36.125 23.460938 36.015625 23.511719 C 35.902344 23.566406 35.78125 23.589844 35.644531 23.589844 Z M 35.644531 23.351562 C 35.742188 23.351562 35.828125 23.332031 35.902344 23.292969 C 35.980469 23.25 36.046875 23.191406 36.101562 23.113281 C 36.15625 23.035156 36.199219 22.941406 36.230469 22.835938 C 36.261719 22.726562 36.277344 22.605469 36.277344 22.472656 C 36.277344 22.339844 36.261719 22.21875 36.230469 22.113281 C 36.199219 22.007812 36.15625 21.917969 36.101562 21.839844 C 36.046875 21.765625 35.980469 21.710938 35.902344 21.671875 C 35.828125 21.632812 35.742188 21.609375 35.644531 21.609375 C 35.550781 21.609375 35.464844 21.632812 35.390625 21.671875 C 35.308594 21.710938 35.242188 21.765625 35.1875 21.839844 C 35.132812 21.917969 35.09375 22.007812 35.058594 22.113281 C 35.03125 22.21875 35.015625 22.339844 35.015625 22.472656 C 35.015625 22.605469 35.03125 22.726562 35.058594 22.835938 C 35.09375 22.941406 35.132812 23.035156 35.1875 23.113281 C 35.242188 23.191406 35.308594 23.25 35.390625 23.292969 C 35.464844 23.332031 35.550781 23.351562 35.644531 23.351562 Z M 37.238281 21.628906 L 37.238281 22.425781 L 37.59375 22.425781 C 37.757812 22.425781 37.886719 22.394531 37.976562 22.324219 C 38.066406 22.253906 38.113281 22.148438 38.113281 22.011719 C 38.113281 21.871094 38.066406 21.773438 37.976562 21.714844 C 37.886719 21.65625 37.757812 21.628906 37.59375 21.628906 Z M 38.441406 23.550781 L 38.136719 23.550781 L 37.625 22.648438 L 37.238281 22.648438 L 37.238281 23.550781 L 36.964844 23.550781 L 36.964844 21.410156 L 37.632812 21.410156 C 37.742188 21.410156 37.839844 21.421875 37.929688 21.441406 C 38.023438 21.464844 38.105469 21.496094 38.167969 21.542969 C 38.234375 21.589844 38.289062 21.652344 38.324219 21.730469 C 38.359375 21.804688 38.378906 21.898438 38.378906 22.011719 C 38.378906 22.179688 38.335938 22.3125 38.246094 22.414062 C 38.164062 22.511719 38.046875 22.582031 37.902344 22.617188 Z M 38.800781 23.550781 L 38.800781 21.410156 L 39.078125 21.410156 L 39.851562 22.757812 L 40.082031 23.199219 L 40.09375 23.199219 C 40.089844 23.089844 40.082031 22.976562 40.074219 22.863281 C 40.066406 22.746094 40.0625 22.632812 40.0625 22.519531 L 40.0625 21.410156 L 40.320312 21.410156 L 40.320312 23.550781 L 40.042969 23.550781 L 39.269531 22.207031 L 39.035156 21.765625 L 39.023438 21.765625 C 39.03125 21.875 39.039062 21.984375 39.046875 22.097656 C 39.054688 22.207031 39.058594 22.320312 39.058594 22.429688 L 39.058594 23.550781 Z M 41.457031 23.550781 L 41.457031 21.410156 L 42.683594 21.410156 L 42.683594 21.640625 L 41.726562 21.640625 L 41.726562 22.363281 L 42.539062 22.363281 L 42.539062 22.59375 L 41.726562 22.59375 L 41.726562 23.550781 Z M 43.277344 21.628906 L 43.277344 22.425781 L 43.640625 22.425781 C 43.804688 22.425781 43.933594 22.394531 44.019531 22.324219 C 44.109375 22.253906 44.152344 22.148438 44.152344 22.011719 C 44.152344 21.871094 44.109375 21.773438 44.019531 21.714844 C 43.933594 21.65625 43.804688 21.628906 43.640625 21.628906 Z M 44.488281 23.550781 L 44.179688 23.550781 L 43.664062 22.648438 L 43.277344 22.648438 L 43.277344 23.550781 L 43.011719 23.550781 L 43.011719 21.410156 L 43.675781 21.410156 C 43.78125 21.410156 43.882812 21.421875 43.976562 21.441406 C 44.066406 21.464844 44.148438 21.496094 44.214844 21.542969 C 44.277344 21.589844 44.332031 21.652344 44.367188 21.730469 C 44.40625 21.804688 44.425781 21.898438 44.425781 22.011719 C 44.425781 22.179688 44.382812 22.3125 44.292969 22.414062 C 44.207031 22.511719 44.089844 22.582031 43.945312 22.617188 Z M 45.628906 23.589844 C 45.5 23.589844 45.375 23.566406 45.261719 23.511719 C 45.148438 23.460938 45.054688 23.382812 44.976562 23.285156 C 44.894531 23.191406 44.832031 23.078125 44.785156 22.9375 C 44.742188 22.800781 44.71875 22.644531 44.71875 22.472656 C 44.71875 22.300781 44.742188 22.148438 44.785156 22.011719 C 44.832031 21.875 44.894531 21.757812 44.976562 21.664062 C 45.054688 21.570312 45.148438 21.496094 45.261719 21.449219 C 45.375 21.398438 45.5 21.371094 45.628906 21.371094 C 45.765625 21.371094 45.886719 21.398438 46 21.449219 C 46.113281 21.5 46.207031 21.574219 46.289062 21.667969 C 46.371094 21.761719 46.433594 21.875 46.480469 22.011719 C 46.523438 22.148438 46.546875 22.304688 46.546875 22.472656 C 46.546875 22.644531 46.523438 22.800781 46.480469 22.9375 C 46.433594 23.078125 46.371094 23.191406 46.289062 23.285156 C 46.207031 23.382812 46.113281 23.460938 46 23.511719 C 45.886719 23.566406 45.765625 23.589844 45.628906 23.589844 Z M 45.628906 23.351562 C 45.726562 23.351562 45.8125 23.332031 45.890625 23.292969 C 45.964844 23.25 46.03125 23.191406 46.089844 23.113281 C 46.144531 23.035156 46.1875 22.941406 46.21875 22.835938 C 46.25 22.726562 46.265625 22.605469 46.265625 22.472656 C 46.265625 22.339844 46.25 22.21875 46.21875 22.113281 C 46.1875 22.007812 46.144531 21.917969 46.089844 21.839844 C 46.03125 21.765625 45.964844 21.710938 45.890625 21.671875 C 45.8125 21.632812 45.726562 21.609375 45.628906 21.609375 C 45.535156 21.609375 45.453125 21.632812 45.375 21.671875 C 45.296875 21.710938 45.230469 21.765625 45.171875 21.839844 C 45.121094 21.917969 45.078125 22.007812 45.046875 22.113281 C 45.015625 22.21875 45 22.339844 45 22.472656 C 45 22.605469 45.015625 22.726562 45.046875 22.835938 C 45.078125 22.941406 45.121094 23.035156 45.171875 23.113281 C 45.230469 23.191406 45.296875 23.25 45.375 23.292969 C 45.453125 23.332031 45.535156 23.351562 45.628906 23.351562 Z M 46.949219 23.550781 L 46.949219 21.410156 L 47.269531 21.410156 L 47.683594 22.558594 L 47.839844 22.996094 L 47.851562 22.996094 L 48 22.558594 L 48.410156 21.410156 L 48.730469 21.410156 L 48.730469 23.550781 L 48.476562 23.550781 L 48.476562 22.375 C 48.476562 22.277344 48.480469 22.171875 48.484375 22.054688 C 48.492188 21.941406 48.503906 21.835938 48.511719 21.742188 L 48.496094 21.742188 L 48.320312 22.21875 L 47.914062 23.335938 L 47.761719 23.335938 L 47.351562 22.21875 L 47.179688 21.742188 L 47.164062 21.742188 C 47.171875 21.835938 47.179688 21.941406 47.1875 22.054688 C 47.195312 22.171875 47.199219 22.277344 47.199219 22.375 L 47.199219 23.550781 Z M 49.742188 22.480469 C 49.742188 22.308594 49.765625 22.15625 49.8125 22.015625 C 49.863281 21.882812 49.929688 21.765625 50.015625 21.667969 C 50.097656 21.574219 50.195312 21.5 50.3125 21.449219 C 50.429688 21.398438 50.554688 21.371094 50.691406 21.371094 C 50.820312 21.371094 50.933594 21.398438 51.035156 21.453125 C 51.132812 21.503906 51.210938 21.566406 51.273438 21.636719 L 51.121094 21.808594 C 51.0625 21.746094 51 21.699219 50.933594 21.664062 C 50.867188 21.628906 50.789062 21.609375 50.695312 21.609375 C 50.59375 21.609375 50.5 21.632812 50.417969 21.671875 C 50.335938 21.710938 50.265625 21.769531 50.207031 21.84375 C 50.148438 21.917969 50.105469 22.007812 50.070312 22.117188 C 50.039062 22.222656 50.023438 22.34375 50.023438 22.476562 C 50.023438 22.609375 50.039062 22.730469 50.066406 22.835938 C 50.101562 22.945312 50.144531 23.039062 50.199219 23.113281 C 50.257812 23.191406 50.328125 23.25 50.40625 23.292969 C 50.488281 23.332031 50.582031 23.351562 50.683594 23.351562 C 50.785156 23.351562 50.875 23.332031 50.957031 23.292969 C 51.03125 23.25 51.105469 23.191406 51.175781 23.113281 L 51.324219 23.28125 C 51.238281 23.378906 51.144531 23.453125 51.039062 23.507812 C 50.933594 23.5625 50.8125 23.589844 50.675781 23.589844 C 50.542969 23.589844 50.417969 23.566406 50.304688 23.515625 C 50.191406 23.464844 50.089844 23.394531 50.007812 23.300781 C 49.921875 23.207031 49.859375 23.089844 49.8125 22.953125 C 49.765625 22.8125 49.742188 22.65625 49.742188 22.480469 Z M 52.363281 23.589844 C 52.226562 23.589844 52.105469 23.566406 51.992188 23.511719 C 51.882812 23.460938 51.785156 23.382812 51.707031 23.285156 C 51.625 23.191406 51.5625 23.078125 51.519531 22.9375 C 51.472656 22.800781 51.453125 22.644531 51.453125 22.472656 C 51.453125 22.300781 51.472656 22.148438 51.519531 22.011719 C 51.5625 21.875 51.625 21.757812 51.707031 21.664062 C 51.785156 21.570312 51.882812 21.496094 51.992188 21.449219 C 52.105469 21.398438 52.226562 21.371094 52.363281 21.371094 C 52.496094 21.371094 52.621094 21.398438 52.730469 21.449219 C 52.84375 21.5 52.941406 21.574219 53.023438 21.667969 C 53.101562 21.761719 53.164062 21.875 53.210938 22.011719 C 53.253906 22.148438 53.277344 22.304688 53.277344 22.472656 C 53.277344 22.644531 53.253906 22.800781 53.210938 22.9375 C 53.164062 23.078125 53.101562 23.191406 53.023438 23.285156 C 52.941406 23.382812 52.84375 23.460938 52.730469 23.511719 C 52.621094 23.566406 52.496094 23.589844 52.363281 23.589844 Z M 52.363281 23.351562 C 52.457031 23.351562 52.542969 23.332031 52.621094 23.292969 C 52.699219 23.25 52.765625 23.191406 52.820312 23.113281 C 52.875 23.035156 52.917969 22.941406 52.949219 22.835938 C 52.976562 22.726562 52.992188 22.605469 52.992188 22.472656 C 52.992188 22.339844 52.976562 22.21875 52.949219 22.113281 C 52.917969 22.007812 52.875 21.917969 52.820312 21.839844 C 52.765625 21.765625 52.699219 21.710938 52.621094 21.671875 C 52.542969 21.632812 52.457031 21.609375 52.363281 21.609375 C 52.265625 21.609375 52.179688 21.632812 52.101562 21.671875 C 52.027344 21.710938 51.960938 21.765625 51.90625 21.839844 C 51.851562 21.917969 51.808594 22.007812 51.777344 22.113281 C 51.746094 22.21875 51.730469 22.339844 51.730469 22.472656 C 51.730469 22.605469 51.746094 22.726562 51.777344 22.835938 C 51.808594 22.941406 51.851562 23.035156 51.90625 23.113281 C 51.960938 23.191406 52.027344 23.25 52.101562 23.292969 C 52.179688 23.332031 52.265625 23.351562 52.363281 23.351562 Z M 53.683594 23.550781 L 53.683594 21.410156 L 54.214844 21.410156 C 54.546875 21.410156 54.796875 21.503906 54.964844 21.683594 C 55.140625 21.867188 55.226562 22.128906 55.226562 22.472656 C 55.226562 22.640625 55.203125 22.792969 55.160156 22.925781 C 55.117188 23.058594 55.050781 23.171875 54.964844 23.265625 C 54.882812 23.359375 54.777344 23.429688 54.652344 23.476562 C 54.53125 23.527344 54.386719 23.550781 54.226562 23.550781 Z M 53.949219 23.332031 L 54.195312 23.332031 C 54.445312 23.332031 54.632812 23.257812 54.753906 23.105469 C 54.882812 22.957031 54.945312 22.746094 54.945312 22.472656 C 54.945312 22.199219 54.882812 21.992188 54.753906 21.847656 C 54.632812 21.703125 54.445312 21.632812 54.195312 21.632812 L 53.949219 21.632812 Z M 55.628906 23.550781 L 55.628906 21.410156 L 56.855469 21.410156 L 56.855469 21.640625 L 55.898438 21.640625 L 55.898438 22.3125 L 56.707031 22.3125 L 56.707031 22.542969 L 55.898438 22.542969 L 55.898438 23.316406 L 56.890625 23.316406 L 56.890625 23.550781 Z M 57.214844 24.109375 L 57.152344 23.949219 C 57.242188 23.90625 57.3125 23.851562 57.363281 23.785156 C 57.414062 23.71875 57.441406 23.640625 57.441406 23.550781 C 57.4375 23.554688 57.425781 23.554688 57.410156 23.554688 C 57.359375 23.554688 57.3125 23.539062 57.273438 23.507812 C 57.238281 23.476562 57.21875 23.429688 57.21875 23.371094 C 57.21875 23.3125 57.238281 23.265625 57.273438 23.230469 C 57.316406 23.199219 57.363281 23.179688 57.414062 23.179688 C 57.484375 23.179688 57.542969 23.210938 57.582031 23.265625 C 57.621094 23.320312 57.640625 23.398438 57.640625 23.496094 C 57.640625 23.636719 57.601562 23.761719 57.523438 23.863281 C 57.449219 23.972656 57.34375 24.050781 57.214844 24.109375 Z M 58.652344 23.550781 L 58.652344 21.410156 L 59.285156 21.410156 C 59.390625 21.410156 59.492188 21.421875 59.582031 21.4375 C 59.671875 21.460938 59.746094 21.488281 59.8125 21.53125 C 59.875 21.574219 59.925781 21.625 59.960938 21.695312 C 59.996094 21.757812 60.015625 21.839844 60.015625 21.933594 C 60.015625 22.039062 59.984375 22.136719 59.925781 22.222656 C 59.863281 22.308594 59.769531 22.367188 59.644531 22.398438 L 59.644531 22.414062 C 59.800781 22.4375 59.921875 22.492188 60.007812 22.578125 C 60.09375 22.660156 60.136719 22.777344 60.136719 22.925781 C 60.136719 23.027344 60.117188 23.121094 60.078125 23.199219 C 60.042969 23.277344 59.984375 23.34375 59.914062 23.394531 C 59.84375 23.445312 59.757812 23.484375 59.65625 23.511719 C 59.558594 23.539062 59.449219 23.550781 59.328125 23.550781 Z M 58.917969 22.324219 L 59.234375 22.324219 C 59.421875 22.324219 59.550781 22.292969 59.632812 22.226562 C 59.710938 22.167969 59.75 22.074219 59.75 21.953125 C 59.75 21.835938 59.707031 21.753906 59.621094 21.703125 C 59.539062 21.652344 59.414062 21.628906 59.25 21.628906 L 58.917969 21.628906 Z M 58.917969 23.335938 L 59.289062 23.335938 C 59.472656 23.335938 59.617188 23.300781 59.71875 23.234375 C 59.820312 23.167969 59.875 23.058594 59.875 22.910156 C 59.875 22.78125 59.824219 22.683594 59.722656 22.621094 C 59.625 22.558594 59.480469 22.527344 59.289062 22.527344 L 58.917969 22.527344 Z M 60.496094 22.667969 L 60.496094 21.410156 L 60.769531 21.410156 L 60.769531 22.671875 C 60.769531 22.804688 60.78125 22.910156 60.804688 22.996094 C 60.832031 23.085938 60.867188 23.15625 60.910156 23.207031 C 60.957031 23.257812 61.011719 23.292969 61.070312 23.316406 C 61.128906 23.339844 61.195312 23.351562 61.265625 23.351562 C 61.335938 23.351562 61.402344 23.339844 61.464844 23.316406 C 61.527344 23.292969 61.578125 23.257812 61.625 23.207031 C 61.671875 23.15625 61.707031 23.085938 61.734375 22.996094 C 61.757812 22.910156 61.769531 22.804688 61.769531 22.671875 L 61.769531 21.410156 L 62.03125 21.410156 L 62.03125 22.667969 C 62.03125 22.839844 62.011719 22.984375 61.96875 23.101562 C 61.933594 23.21875 61.878906 23.316406 61.8125 23.386719 C 61.742188 23.460938 61.660156 23.511719 61.570312 23.542969 C 61.476562 23.574219 61.375 23.589844 61.265625 23.589844 C 61.160156 23.589844 61.058594 23.574219 60.964844 23.542969 C 60.867188 23.511719 60.785156 23.460938 60.71875 23.386719 C 60.648438 23.316406 60.597656 23.21875 60.558594 23.101562 C 60.519531 22.984375 60.496094 22.839844 60.496094 22.667969 Z M 62.550781 23.550781 L 62.550781 21.410156 L 62.824219 21.410156 L 62.824219 23.550781 Z M 63.355469 23.550781 L 63.355469 21.410156 L 63.625 21.410156 L 63.625 23.316406 L 64.554688 23.316406 L 64.554688 23.550781 Z M 64.933594 23.550781 L 64.933594 21.640625 L 64.289062 21.640625 L 64.289062 21.410156 L 65.847656 21.410156 L 65.847656 21.640625 L 65.207031 21.640625 L 65.207031 23.550781 Z M 66.785156 23.550781 L 66.785156 21.410156 L 68.011719 21.410156 L 68.011719 21.640625 L 67.054688 21.640625 L 67.054688 22.363281 L 67.867188 22.363281 L 67.867188 22.59375 L 67.054688 22.59375 L 67.054688 23.550781 Z M 69.09375 23.589844 C 68.960938 23.589844 68.835938 23.566406 68.726562 23.511719 C 68.613281 23.460938 68.515625 23.382812 68.433594 23.285156 C 68.355469 23.191406 68.292969 23.078125 68.25 22.9375 C 68.207031 22.800781 68.183594 22.644531 68.183594 22.472656 C 68.183594 22.300781 68.207031 22.148438 68.25 22.011719 C 68.292969 21.875 68.355469 21.757812 68.433594 21.664062 C 68.515625 21.570312 68.613281 21.496094 68.726562 21.449219 C 68.835938 21.398438 68.960938 21.371094 69.09375 21.371094 C 69.230469 21.371094 69.351562 21.398438 69.464844 21.449219 C 69.574219 21.5 69.671875 21.574219 69.75 21.667969 C 69.832031 21.761719 69.894531 21.875 69.9375 22.011719 C 69.984375 22.148438 70.007812 22.304688 70.007812 22.472656 C 70.007812 22.644531 69.984375 22.800781 69.9375 22.9375 C 69.894531 23.078125 69.832031 23.191406 69.75 23.285156 C 69.671875 23.382812 69.574219 23.460938 69.464844 23.511719 C 69.351562 23.566406 69.230469 23.589844 69.09375 23.589844 Z M 69.09375 23.351562 C 69.1875 23.351562 69.273438 23.332031 69.355469 23.292969 C 69.429688 23.25 69.496094 23.191406 69.550781 23.113281 C 69.605469 23.035156 69.648438 22.941406 69.679688 22.835938 C 69.707031 22.726562 69.722656 22.605469 69.722656 22.472656 C 69.722656 22.339844 69.707031 22.21875 69.679688 22.113281 C 69.648438 22.007812 69.605469 21.917969 69.550781 21.839844 C 69.496094 21.765625 69.429688 21.710938 69.355469 21.671875 C 69.273438 21.632812 69.1875 21.609375 69.09375 21.609375 C 68.996094 21.609375 68.910156 21.632812 68.835938 21.671875 C 68.757812 21.710938 68.691406 21.765625 68.636719 21.839844 C 68.582031 21.917969 68.539062 22.007812 68.507812 22.113281 C 68.476562 22.21875 68.460938 22.339844 68.460938 22.472656 C 68.460938 22.605469 68.476562 22.726562 68.507812 22.835938 C 68.539062 22.941406 68.582031 23.035156 68.636719 23.113281 C 68.691406 23.191406 68.757812 23.25 68.835938 23.292969 C 68.910156 23.332031 68.996094 23.351562 69.09375 23.351562 Z M 70.679688 21.628906 L 70.679688 22.425781 L 71.039062 22.425781 C 71.203125 22.425781 71.332031 22.394531 71.425781 22.324219 C 71.511719 22.253906 71.554688 22.148438 71.554688 22.011719 C 71.554688 21.871094 71.511719 21.773438 71.425781 21.714844 C 71.332031 21.65625 71.203125 21.628906 71.039062 21.628906 Z M 71.886719 23.550781 L 71.582031 23.550781 L 71.070312 22.648438 L 70.679688 22.648438 L 70.679688 23.550781 L 70.414062 23.550781 L 70.414062 21.410156 L 71.078125 21.410156 C 71.1875 21.410156 71.285156 21.421875 71.378906 21.441406 C 71.472656 21.464844 71.550781 21.496094 71.617188 21.542969 C 71.683594 21.589844 71.734375 21.652344 71.773438 21.730469 C 71.808594 21.804688 71.824219 21.898438 71.824219 22.011719 C 71.824219 22.179688 71.78125 22.3125 71.699219 22.414062 C 71.609375 22.511719 71.492188 22.582031 71.351562 22.617188 Z M 72.855469 23.550781 L 72.855469 21.410156 L 73.488281 21.410156 C 73.59375 21.410156 73.695312 21.421875 73.78125 21.4375 C 73.871094 21.460938 73.949219 21.488281 74.015625 21.53125 C 74.078125 21.574219 74.128906 21.625 74.164062 21.695312 C 74.199219 21.757812 74.21875 21.839844 74.21875 21.933594 C 74.21875 22.039062 74.1875 22.136719 74.128906 22.222656 C 74.066406 22.308594 73.972656 22.367188 73.847656 22.398438 L 73.847656 22.414062 C 74.003906 22.4375 74.125 22.492188 74.210938 22.578125 C 74.296875 22.660156 74.339844 22.777344 74.339844 22.925781 C 74.339844 23.027344 74.320312 23.121094 74.28125 23.199219 C 74.246094 23.277344 74.1875 23.34375 74.117188 23.394531 C 74.046875 23.445312 73.960938 23.484375 73.859375 23.511719 C 73.761719 23.539062 73.652344 23.550781 73.53125 23.550781 Z M 73.121094 22.324219 L 73.4375 22.324219 C 73.625 22.324219 73.753906 22.292969 73.835938 22.226562 C 73.914062 22.167969 73.953125 22.074219 73.953125 21.953125 C 73.953125 21.835938 73.910156 21.753906 73.824219 21.703125 C 73.742188 21.652344 73.617188 21.628906 73.453125 21.628906 L 73.121094 21.628906 Z M 73.121094 23.335938 L 73.492188 23.335938 C 73.675781 23.335938 73.820312 23.300781 73.921875 23.234375 C 74.023438 23.167969 74.078125 23.058594 74.078125 22.910156 C 74.078125 22.78125 74.027344 22.683594 73.925781 22.621094 C 73.828125 22.558594 73.683594 22.527344 73.492188 22.527344 L 73.121094 22.527344 Z M 74.699219 22.667969 L 74.699219 21.410156 L 74.972656 21.410156 L 74.972656 22.671875 C 74.972656 22.804688 74.984375 22.910156 75.007812 22.996094 C 75.035156 23.085938 75.070312 23.15625 75.113281 23.207031 C 75.160156 23.257812 75.214844 23.292969 75.273438 23.316406 C 75.332031 23.339844 75.398438 23.351562 75.46875 23.351562 C 75.539062 23.351562 75.605469 23.339844 75.667969 23.316406 C 75.726562 23.292969 75.78125 23.257812 75.828125 23.207031 C 75.875 23.15625 75.910156 23.085938 75.933594 22.996094 C 75.957031 22.910156 75.972656 22.804688 75.972656 22.671875 L 75.972656 21.410156 L 76.230469 21.410156 L 76.230469 22.667969 C 76.230469 22.839844 76.210938 22.984375 76.171875 23.101562 C 76.136719 23.21875 76.082031 23.316406 76.015625 23.386719 C 75.945312 23.460938 75.863281 23.511719 75.769531 23.542969 C 75.679688 23.574219 75.578125 23.589844 75.46875 23.589844 C 75.363281 23.589844 75.261719 23.574219 75.167969 23.542969 C 75.070312 23.511719 74.988281 23.460938 74.921875 23.386719 C 74.851562 23.316406 74.796875 23.21875 74.757812 23.101562 C 74.71875 22.984375 74.699219 22.839844 74.699219 22.667969 Z M 76.566406 23.273438 L 76.726562 23.085938 C 76.804688 23.167969 76.894531 23.230469 76.996094 23.277344 C 77.097656 23.328125 77.207031 23.351562 77.316406 23.351562 C 77.457031 23.351562 77.566406 23.320312 77.648438 23.257812 C 77.726562 23.191406 77.765625 23.109375 77.765625 23.003906 C 77.765625 22.949219 77.753906 22.902344 77.734375 22.863281 C 77.71875 22.824219 77.691406 22.792969 77.660156 22.765625 C 77.628906 22.738281 77.59375 22.714844 77.550781 22.691406 C 77.507812 22.671875 77.460938 22.648438 77.410156 22.625 L 77.101562 22.492188 C 77.050781 22.46875 77 22.441406 76.953125 22.414062 C 76.898438 22.382812 76.851562 22.347656 76.8125 22.304688 C 76.769531 22.257812 76.738281 22.207031 76.710938 22.148438 C 76.683594 22.085938 76.671875 22.019531 76.671875 21.941406 C 76.671875 21.859375 76.6875 21.785156 76.71875 21.714844 C 76.753906 21.644531 76.800781 21.585938 76.859375 21.535156 C 76.921875 21.484375 76.992188 21.441406 77.070312 21.417969 C 77.152344 21.386719 77.242188 21.371094 77.339844 21.371094 C 77.46875 21.371094 77.585938 21.398438 77.695312 21.449219 C 77.804688 21.496094 77.894531 21.558594 77.972656 21.636719 L 77.828125 21.8125 C 77.757812 21.75 77.6875 21.699219 77.605469 21.664062 C 77.527344 21.628906 77.4375 21.609375 77.339844 21.609375 C 77.222656 21.609375 77.125 21.636719 77.054688 21.695312 C 76.980469 21.75 76.941406 21.828125 76.941406 21.921875 C 76.941406 21.976562 76.953125 22.019531 76.972656 22.054688 C 76.996094 22.089844 77.023438 22.121094 77.058594 22.148438 C 77.09375 22.179688 77.128906 22.203125 77.171875 22.222656 C 77.210938 22.246094 77.253906 22.261719 77.300781 22.28125 L 77.601562 22.410156 C 77.660156 22.433594 77.71875 22.464844 77.773438 22.496094 C 77.828125 22.53125 77.875 22.574219 77.914062 22.617188 C 77.953125 22.660156 77.984375 22.714844 78.007812 22.773438 C 78.027344 22.835938 78.039062 22.902344 78.039062 22.984375 C 78.039062 23.066406 78.023438 23.144531 77.988281 23.222656 C 77.953125 23.292969 77.90625 23.359375 77.84375 23.414062 C 77.78125 23.46875 77.707031 23.511719 77.617188 23.542969 C 77.527344 23.574219 77.425781 23.589844 77.3125 23.589844 C 77.164062 23.589844 77.023438 23.5625 76.898438 23.507812 C 76.769531 23.449219 76.660156 23.371094 76.566406 23.273438 Z M 78.40625 23.550781 L 78.40625 21.410156 L 78.675781 21.410156 L 78.675781 23.550781 Z M 79.207031 23.550781 L 79.207031 21.410156 L 79.488281 21.410156 L 80.257812 22.757812 L 80.488281 23.199219 L 80.5 23.199219 C 80.496094 23.089844 80.488281 22.976562 80.484375 22.863281 C 80.472656 22.746094 80.46875 22.632812 80.46875 22.519531 L 80.46875 21.410156 L 80.726562 21.410156 L 80.726562 23.550781 L 80.449219 23.550781 L 79.671875 22.207031 L 79.441406 21.765625 L 79.425781 21.765625 C 79.4375 21.875 79.445312 21.984375 79.453125 22.097656 C 79.460938 22.207031 79.46875 22.320312 79.46875 22.429688 L 79.46875 23.550781 Z M 81.257812 23.550781 L 81.257812 21.410156 L 82.488281 21.410156 L 82.488281 21.640625 L 81.53125 21.640625 L 81.53125 22.3125 L 82.339844 22.3125 L 82.339844 22.542969 L 81.53125 22.542969 L 81.53125 23.316406 L 82.519531 23.316406 L 82.519531 23.550781 Z M 82.765625 23.273438 L 82.929688 23.085938 C 83.003906 23.167969 83.09375 23.230469 83.195312 23.277344 C 83.296875 23.328125 83.402344 23.351562 83.511719 23.351562 C 83.65625 23.351562 83.765625 23.320312 83.84375 23.257812 C 83.921875 23.191406 83.960938 23.109375 83.960938 23.003906 C 83.960938 22.949219 83.953125 22.902344 83.933594 22.863281 C 83.914062 22.824219 83.890625 22.792969 83.859375 22.765625 C 83.828125 22.738281 83.789062 22.714844 83.746094 22.691406 C 83.703125 22.671875 83.65625 22.648438 83.605469 22.625 L 83.300781 22.492188 C 83.25 22.46875 83.199219 22.441406 83.148438 22.414062 C 83.09375 22.382812 83.046875 22.347656 83.007812 22.304688 C 82.964844 22.257812 82.933594 22.207031 82.90625 22.148438 C 82.878906 22.085938 82.867188 22.019531 82.867188 21.941406 C 82.867188 21.859375 82.882812 21.785156 82.917969 21.714844 C 82.953125 21.644531 83 21.585938 83.058594 21.535156 C 83.117188 21.484375 83.1875 21.441406 83.269531 21.417969 C 83.351562 21.386719 83.4375 21.371094 83.539062 21.371094 C 83.664062 21.371094 83.78125 21.398438 83.890625 21.449219 C 84 21.496094 84.089844 21.558594 84.167969 21.636719 L 84.023438 21.8125 C 83.957031 21.75 83.886719 21.699219 83.808594 21.664062 C 83.726562 21.628906 83.636719 21.609375 83.539062 21.609375 C 83.417969 21.609375 83.320312 21.636719 83.25 21.695312 C 83.175781 21.75 83.140625 21.828125 83.140625 21.921875 C 83.140625 21.976562 83.148438 22.019531 83.167969 22.054688 C 83.191406 22.089844 83.21875 22.121094 83.253906 22.148438 C 83.289062 22.179688 83.328125 22.203125 83.367188 22.222656 C 83.410156 22.246094 83.449219 22.261719 83.496094 22.28125 L 83.796875 22.410156 C 83.859375 22.433594 83.917969 22.464844 83.96875 22.496094 C 84.027344 22.53125 84.074219 22.574219 84.109375 22.617188 C 84.148438 22.660156 84.179688 22.714844 84.203125 22.773438 C 84.226562 22.835938 84.238281 22.902344 84.238281 22.984375 C 84.238281 23.066406 84.21875 23.144531 84.183594 23.222656 C 84.152344 23.292969 84.105469 23.359375 84.039062 23.414062 C 83.980469 23.46875 83.902344 23.511719 83.816406 23.542969 C 83.726562 23.574219 83.625 23.589844 83.511719 23.589844 C 83.363281 23.589844 83.222656 23.5625 83.09375 23.507812 C 82.964844 23.449219 82.855469 23.371094 82.765625 23.273438 Z M 84.402344 23.273438 L 84.5625 23.085938 C 84.640625 23.167969 84.730469 23.230469 84.832031 23.277344 C 84.933594 23.328125 85.042969 23.351562 85.152344 23.351562 C 85.292969 23.351562 85.402344 23.320312 85.484375 23.257812 C 85.558594 23.191406 85.597656 23.109375 85.597656 23.003906 C 85.597656 22.949219 85.589844 22.902344 85.570312 22.863281 C 85.554688 22.824219 85.527344 22.792969 85.496094 22.765625 C 85.464844 22.738281 85.425781 22.714844 85.382812 22.691406 C 85.339844 22.671875 85.292969 22.648438 85.246094 22.625 L 84.9375 22.492188 C 84.886719 22.46875 84.835938 22.441406 84.785156 22.414062 C 84.734375 22.382812 84.6875 22.347656 84.648438 22.304688 C 84.605469 22.257812 84.574219 22.207031 84.546875 22.148438 C 84.519531 22.085938 84.507812 22.019531 84.507812 21.941406 C 84.507812 21.859375 84.523438 21.785156 84.554688 21.714844 C 84.589844 21.644531 84.636719 21.585938 84.695312 21.535156 C 84.753906 21.484375 84.824219 21.441406 84.90625 21.417969 C 84.988281 21.386719 85.078125 21.371094 85.175781 21.371094 C 85.304688 21.371094 85.421875 21.398438 85.53125 21.449219 C 85.640625 21.496094 85.730469 21.558594 85.808594 21.636719 L 85.660156 21.8125 C 85.59375 21.75 85.523438 21.699219 85.441406 21.664062 C 85.363281 21.628906 85.273438 21.609375 85.175781 21.609375 C 85.054688 21.609375 84.960938 21.636719 84.890625 21.695312 C 84.816406 21.75 84.777344 21.828125 84.777344 21.921875 C 84.777344 21.976562 84.789062 22.019531 84.808594 22.054688 C 84.832031 22.089844 84.859375 22.121094 84.894531 22.148438 C 84.929688 22.179688 84.964844 22.203125 85.007812 22.222656 C 85.046875 22.246094 85.089844 22.261719 85.136719 22.28125 L 85.433594 22.410156 C 85.496094 22.433594 85.554688 22.464844 85.609375 22.496094 C 85.664062 22.53125 85.707031 22.574219 85.746094 22.617188 C 85.789062 22.660156 85.816406 22.714844 85.839844 22.773438 C 85.863281 22.835938 85.875 22.902344 85.875 22.984375 C 85.875 23.066406 85.859375 23.144531 85.824219 23.222656 C 85.789062 23.292969 85.742188 23.359375 85.679688 23.414062 C 85.617188 23.46875 85.539062 23.511719 85.453125 23.542969 C 85.363281 23.574219 85.261719 23.589844 85.148438 23.589844 C 85 23.589844 84.859375 23.5625 84.734375 23.507812 C 84.605469 23.449219 84.496094 23.371094 84.402344 23.273438 Z M 84.402344 23.273438 " fill-opacity="1" fill-rule="nonzero"/></svg>