<svg xmlns="http://www.w3.org/2000/svg" xmlns:xlink="http://www.w3.org/1999/xlink" width="500" zoomAndPan="magnify" viewBox="0 0 375 374.999991" height="500" preserveAspectRatio="xMidYMid meet" version="1.0"><defs><clipPath id="b337614479"><path d="M 132 344 L 143 344 L 143 357.109375 L 132 357.109375 Z M 132 344 " clip-rule="nonzero"/></clipPath><clipPath id="903ec09a29"><path d="M 233 344 L 245 344 L 245 357.109375 L 233 357.109375 Z M 233 344 " clip-rule="nonzero"/></clipPath><clipPath id="9e02c76c74"><path d="M 250 344 L 264 344 L 264 357.109375 L 250 357.109375 Z M 250 344 " clip-rule="nonzero"/></clipPath><clipPath id="ba57a7a9a8"><path d="M 269 354 L 273 354 L 273 357.109375 L 269 357.109375 Z M 269 354 " clip-rule="nonzero"/></clipPath><clipPath id="ee21729f4d"><path d="M 43.363281 292 L 80 292 L 80 334 L 43.363281 334 Z M 43.363281 292 " clip-rule="nonzero"/></clipPath><clipPath id="983d451baf"><path d="M 127 18.109375 L 249 18.109375 L 249 61 L 127 61 Z M 127 18.109375 " clip-rule="nonzero"/></clipPath></defs><path fill="#2d3f92" d="M 99.550781 356.960938 L 99.550781 344.828125 L 101.28125 344.828125 L 101.28125 355.453125 L 107.839844 355.453125 L 107.839844 356.960938 Z M 99.550781 356.960938 " fill-opacity="1" fill-rule="nonzero"/><path fill="#2d3f92" d="M 113.179688 356.960938 L 118.671875 344.828125 L 120.359375 344.828125 L 125.863281 356.960938 L 124.046875 356.960938 L 119.152344 345.800781 L 119.847656 345.800781 L 115.019531 356.960938 Z M 115.519531 353.921875 L 115.992188 352.542969 L 122.808594 352.542969 L 123.308594 353.921875 Z M 115.519531 353.921875 " fill-opacity="1" fill-rule="nonzero"/><g clip-path="url(#b337614479)"><path fill="#2d3f92" d="M 137.636719 357.101562 C 136.949219 357.136719 136.261719 357.035156 135.613281 356.800781 C 134.96875 356.566406 134.375 356.199219 133.875 355.730469 C 133.390625 355.1875 133.019531 354.554688 132.785156 353.867188 C 132.550781 353.179688 132.457031 352.453125 132.507812 351.726562 L 132.507812 344.828125 L 134.25 344.828125 L 134.25 351.652344 C 134.152344 352.71875 134.476562 353.785156 135.144531 354.617188 C 135.84375 355.226562 136.742188 355.5625 137.667969 355.5625 C 138.59375 355.5625 139.488281 355.226562 140.1875 354.617188 C 140.859375 353.785156 141.179688 352.71875 141.085938 351.652344 L 141.085938 344.828125 L 142.796875 344.828125 L 142.796875 351.726562 C 142.847656 352.453125 142.753906 353.179688 142.523438 353.867188 C 142.289062 354.554688 141.921875 355.1875 141.4375 355.730469 C 140.933594 356.207031 140.332031 356.574219 139.679688 356.808594 C 139.023438 357.046875 138.328125 357.144531 137.636719 357.101562 Z M 137.636719 357.101562 " fill-opacity="1" fill-rule="nonzero"/></g><path fill="#2d3f92" d="M 151.492188 356.960938 L 151.492188 344.828125 L 152.914062 344.828125 L 160.914062 354.789062 L 160.175781 354.789062 L 160.175781 344.828125 L 161.90625 344.828125 L 161.90625 356.960938 L 160.488281 356.960938 L 152.472656 346.996094 L 153.222656 346.996094 L 153.222656 356.960938 Z M 151.492188 356.960938 " fill-opacity="1" fill-rule="nonzero"/><path fill="#2d3f92" d="M 170.734375 356.960938 L 170.734375 344.828125 L 175.828125 344.828125 C 177.011719 344.804688 178.183594 345.0625 179.246094 345.585938 C 180.203125 346.066406 181.003906 346.808594 181.554688 347.726562 C 182.09375 348.695312 182.378906 349.785156 182.378906 350.894531 C 182.378906 352.003906 182.09375 353.09375 181.554688 354.058594 C 181.003906 354.976562 180.203125 355.71875 179.246094 356.199219 C 178.183594 356.71875 177.011719 356.980469 175.828125 356.960938 Z M 172.464844 355.449219 L 175.734375 355.449219 C 176.632812 355.472656 177.519531 355.277344 178.328125 354.882812 C 179.039062 354.523438 179.632812 353.96875 180.039062 353.28125 C 180.453125 352.554688 180.664062 351.730469 180.648438 350.894531 C 180.667969 350.058594 180.457031 349.230469 180.039062 348.507812 C 179.636719 347.820312 179.039062 347.265625 178.328125 346.910156 C 177.523438 346.507812 176.632812 346.308594 175.734375 346.335938 L 172.464844 346.335938 Z M 172.464844 355.449219 " fill-opacity="1" fill-rule="nonzero"/><path fill="#2d3f92" d="M 190.207031 356.960938 L 190.207031 344.828125 L 194.929688 344.828125 C 195.859375 344.800781 196.78125 344.972656 197.640625 345.328125 C 198.355469 345.625 198.957031 346.132812 199.371094 346.785156 C 199.769531 347.472656 199.980469 348.253906 199.980469 349.054688 C 199.980469 349.847656 199.769531 350.632812 199.371094 351.320312 C 198.957031 351.96875 198.351562 352.476562 197.640625 352.765625 C 196.78125 353.121094 195.859375 353.292969 194.929688 353.269531 L 191.15625 353.269531 L 191.9375 352.464844 L 191.9375 356.960938 Z M 191.9375 352.679688 L 191.15625 351.824219 L 194.875 351.824219 C 195.773438 351.890625 196.667969 351.636719 197.394531 351.105469 C 197.667969 350.847656 197.882812 350.53125 198.027344 350.183594 C 198.175781 349.839844 198.25 349.464844 198.25 349.089844 C 198.25 348.714844 198.175781 348.339844 198.027344 347.996094 C 197.882812 347.644531 197.667969 347.335938 197.394531 347.074219 C 196.664062 346.554688 195.773438 346.304688 194.875 346.367188 L 191.15625 346.367188 L 191.9375 345.5 Z M 198.347656 356.960938 L 195.269531 352.5625 L 197.117188 352.5625 L 200.238281 356.960938 Z M 198.347656 356.960938 " fill-opacity="1" fill-rule="nonzero"/><path fill="#2d3f92" d="M 210.730469 356.960938 L 210.730469 352.316406 L 211.125 353.386719 L 205.921875 344.828125 L 207.773438 344.828125 L 212.152344 352.058594 L 211.167969 352.058594 L 215.558594 344.828125 L 217.269531 344.828125 L 212.089844 353.386719 L 212.460938 352.316406 L 212.460938 356.960938 Z M 210.730469 356.960938 " fill-opacity="1" fill-rule="nonzero"/><g clip-path="url(#903ec09a29)"><path fill="#2d3f92" d="M 239.445312 357.101562 C 238.574219 357.105469 237.710938 356.949219 236.894531 356.640625 C 236.144531 356.347656 235.464844 355.90625 234.886719 355.34375 C 234.308594 354.785156 233.847656 354.117188 233.527344 353.375 C 232.886719 351.785156 232.886719 350.003906 233.527344 348.410156 C 233.84375 347.671875 234.304688 347.007812 234.886719 346.453125 C 235.46875 345.886719 236.15625 345.441406 236.914062 345.148438 C 237.730469 344.835938 238.597656 344.679688 239.46875 344.6875 C 240.351562 344.679688 241.230469 344.84375 242.054688 345.167969 C 242.824219 345.476562 243.511719 345.957031 244.0625 346.582031 L 242.992188 347.652344 C 242.558594 347.183594 242.027344 346.820312 241.433594 346.582031 C 240.851562 346.335938 240.21875 346.210938 239.585938 346.21875 C 238.9375 346.210938 238.296875 346.332031 237.695312 346.570312 C 237.128906 346.789062 236.613281 347.113281 236.179688 347.53125 C 235.75 347.957031 235.410156 348.464844 235.183594 349.023438 C 234.714844 350.214844 234.714844 351.546875 235.183594 352.746094 C 235.40625 353.304688 235.746094 353.8125 236.179688 354.234375 C 236.613281 354.652344 237.128906 354.976562 237.695312 355.195312 C 238.296875 355.433594 238.9375 355.554688 239.585938 355.546875 C 240.21875 355.554688 240.847656 355.433594 241.433594 355.195312 C 242.023438 354.953125 242.554688 354.589844 242.992188 354.125 L 244.0625 355.195312 C 243.511719 355.816406 242.824219 356.300781 242.054688 356.605469 C 241.226562 356.945312 240.339844 357.113281 239.445312 357.101562 Z M 239.445312 357.101562 " fill-opacity="1" fill-rule="nonzero"/></g><g clip-path="url(#9e02c76c74)"><path fill="#2d3f92" d="M 256.9375 357.101562 C 256.058594 357.105469 255.191406 356.945312 254.371094 356.628906 C 253.609375 356.332031 252.914062 355.890625 252.320312 355.324219 C 251.746094 354.761719 251.289062 354.09375 250.976562 353.355469 C 250.652344 352.574219 250.484375 351.738281 250.484375 350.894531 C 250.484375 350.046875 250.652344 349.210938 250.976562 348.433594 C 251.289062 347.695312 251.746094 347.027344 252.320312 346.464844 C 252.910156 345.898438 253.601562 345.453125 254.363281 345.160156 C 255.183594 344.839844 256.058594 344.679688 256.9375 344.6875 C 257.808594 344.679688 258.675781 344.835938 259.492188 345.148438 C 260.25 345.441406 260.945312 345.886719 261.53125 346.453125 C 262.113281 347.003906 262.574219 347.671875 262.886719 348.410156 C 263.515625 350.007812 263.515625 351.78125 262.886719 353.375 C 262.574219 354.117188 262.113281 354.78125 261.53125 355.332031 C 260.945312 355.902344 260.25 356.347656 259.492188 356.640625 C 258.675781 356.949219 257.808594 357.105469 256.9375 357.101562 Z M 256.9375 355.558594 C 257.574219 355.566406 258.207031 355.445312 258.796875 355.207031 C 259.355469 354.988281 259.863281 354.65625 260.292969 354.234375 C 260.710938 353.800781 261.042969 353.296875 261.273438 352.746094 C 261.746094 351.554688 261.746094 350.230469 261.273438 349.042969 C 261.042969 348.488281 260.710938 347.980469 260.292969 347.554688 C 259.863281 347.132812 259.355469 346.800781 258.796875 346.582031 C 258.207031 346.339844 257.574219 346.222656 256.9375 346.226562 C 256.296875 346.222656 255.660156 346.339844 255.066406 346.582031 C 254.507812 346.800781 254 347.132812 253.570312 347.554688 C 253.132812 347.992188 252.785156 348.515625 252.550781 349.085938 C 252.3125 349.660156 252.191406 350.273438 252.191406 350.894531 C 252.191406 351.515625 252.3125 352.125 252.550781 352.699219 C 252.785156 353.273438 253.132812 353.792969 253.570312 354.234375 C 254 354.65625 254.507812 354.988281 255.066406 355.207031 C 255.660156 355.445312 256.296875 355.566406 256.9375 355.558594 Z M 256.9375 355.558594 " fill-opacity="1" fill-rule="nonzero"/></g><g clip-path="url(#ba57a7a9a8)"><path fill="#2d3f92" d="M 270.992188 357.066406 C 270.835938 357.070312 270.683594 357.035156 270.539062 356.980469 C 270.394531 356.917969 270.261719 356.832031 270.152344 356.71875 C 270.042969 356.605469 269.957031 356.472656 269.898438 356.328125 C 269.84375 356.183594 269.816406 356.027344 269.820312 355.867188 C 269.808594 355.710938 269.835938 355.554688 269.894531 355.410156 C 269.953125 355.261719 270.046875 355.128906 270.160156 355.023438 C 270.269531 354.914062 270.402344 354.832031 270.542969 354.773438 C 270.6875 354.71875 270.839844 354.6875 270.992188 354.691406 C 271.144531 354.6875 271.292969 354.714844 271.429688 354.773438 C 271.566406 354.828125 271.691406 354.914062 271.796875 355.023438 C 271.910156 355.128906 272 355.261719 272.0625 355.410156 C 272.121094 355.554688 272.144531 355.710938 272.136719 355.867188 C 272.140625 356.027344 272.113281 356.183594 272.054688 356.332031 C 271.996094 356.480469 271.90625 356.613281 271.796875 356.722656 C 271.691406 356.835938 271.570312 356.921875 271.429688 356.980469 C 271.292969 357.039062 271.144531 357.070312 270.992188 357.066406 Z M 270.992188 357.066406 " fill-opacity="1" fill-rule="nonzero"/></g><path fill="#2d3f92" d="M 273.28125 113.804688 C 273.28125 114.894531 272.960938 115.960938 272.359375 116.871094 C 271.753906 117.777344 270.894531 118.484375 269.890625 118.902344 C 268.882812 119.320312 267.777344 119.433594 266.707031 119.21875 C 265.640625 119.007812 264.660156 118.484375 263.886719 117.710938 C 263.117188 116.941406 262.59375 115.957031 262.382812 114.886719 C 262.171875 113.816406 262.28125 112.707031 262.699219 111.699219 C 263.117188 110.695312 263.824219 109.832031 264.730469 109.226562 C 265.636719 108.625 266.699219 108.300781 267.789062 108.304688 C 269.242188 108.308594 270.636719 108.890625 271.667969 109.921875 C 272.695312 110.953125 273.273438 112.347656 273.28125 113.804688 Z M 273.28125 113.804688 " fill-opacity="1" fill-rule="nonzero"/><path fill="#2d3f92" d="M 113.597656 113.804688 C 113.597656 114.890625 113.273438 115.953125 112.671875 116.859375 C 112.066406 117.765625 111.210938 118.46875 110.207031 118.886719 C 109.203125 119.300781 108.097656 119.410156 107.035156 119.199219 C 105.96875 118.984375 104.988281 118.460938 104.222656 117.691406 C 103.453125 116.921875 102.929688 115.945312 102.71875 114.875 C 102.507812 113.808594 102.617188 112.703125 103.03125 111.699219 C 103.445312 110.695312 104.152344 109.835938 105.054688 109.230469 C 105.957031 108.625 107.019531 108.304688 108.105469 108.304688 C 109.558594 108.308594 110.957031 108.886719 111.984375 109.917969 C 113.011719 110.949219 113.59375 112.347656 113.597656 113.804688 Z M 113.597656 113.804688 " fill-opacity="1" fill-rule="nonzero"/><g clip-path="url(#ee21729f4d)"><path fill="#2d3f92" d="M 43.441406 329.246094 L 45.929688 320.6875 L 46.335938 320.6875 C 46.574219 322.257812 47.117188 323.765625 47.941406 325.121094 C 48.765625 326.480469 49.851562 327.660156 51.132812 328.59375 C 53.855469 330.699219 57.210938 331.8125 60.652344 331.75 C 63.816406 331.902344 66.941406 331.007812 69.550781 329.203125 C 70.613281 328.460938 71.480469 327.46875 72.070312 326.308594 C 72.660156 325.152344 72.957031 323.867188 72.9375 322.570312 C 72.957031 321.488281 72.699219 320.417969 72.1875 319.464844 C 71.699219 318.582031 70.953125 317.867188 70.050781 317.410156 C 67.515625 316.378906 64.839844 315.734375 62.113281 315.496094 C 60.585938 315.28125 59.433594 315.113281 58.640625 314.972656 C 54.113281 314.203125 50.824219 312.976562 48.78125 311.300781 C 47.769531 310.492188 46.957031 309.457031 46.421875 308.277344 C 45.882812 307.09375 45.628906 305.804688 45.683594 304.507812 C 45.664062 302.757812 46.089844 301.03125 46.914062 299.488281 C 47.738281 297.945312 48.941406 296.632812 50.40625 295.679688 C 53.554688 293.398438 57.714844 292.257812 62.894531 292.265625 C 65.503906 292.265625 68.101562 292.550781 70.648438 293.109375 C 73.0625 293.625 75.40625 294.425781 77.625 295.496094 L 75.371094 302.550781 L 74.816406 302.496094 C 74.621094 301.199219 74.171875 299.957031 73.496094 298.839844 C 72.816406 297.71875 71.921875 296.746094 70.863281 295.980469 C 68.476562 294.339844 65.625 293.519531 62.734375 293.636719 C 59.914062 293.515625 57.132812 294.308594 54.796875 295.894531 C 53.851562 296.5 53.074219 297.335938 52.53125 298.320312 C 51.992188 299.304688 51.703125 300.410156 51.699219 301.53125 C 51.695312 302.625 52.007812 303.699219 52.605469 304.613281 C 53.214844 305.539062 54.0625 306.28125 55.0625 306.753906 C 56.78125 307.566406 59.984375 308.300781 64.679688 308.957031 L 68.4375 309.535156 C 72.113281 310.136719 74.824219 311.226562 76.570312 312.8125 C 77.449219 313.621094 78.140625 314.617188 78.59375 315.726562 C 79.050781 316.835938 79.253906 318.035156 79.195312 319.230469 C 79.234375 321.179688 78.800781 323.105469 77.929688 324.847656 C 77.0625 326.589844 75.785156 328.09375 74.207031 329.234375 C 70.890625 331.789062 66.511719 333.070312 61.078125 333.078125 C 57.847656 333.089844 54.625 332.757812 51.460938 332.082031 C 48.671875 331.511719 45.96875 330.558594 43.441406 329.246094 Z M 43.441406 329.246094 " fill-opacity="1" fill-rule="nonzero"/></g><path fill="#2d3f92" d="M 94.460938 318.535156 L 94.460938 318.886719 C 94.460938 323.917969 94.753906 327.191406 95.339844 328.710938 C 95.609375 329.445312 96.0625 330.101562 96.652344 330.609375 C 97.246094 331.121094 97.960938 331.472656 98.726562 331.632812 L 98.726562 332.09375 L 95.144531 331.964844 C 93.960938 331.964844 92.507812 331.964844 90.789062 331.964844 C 89.066406 331.964844 87.496094 331.964844 86.40625 331.964844 C 85.316406 331.964844 84.269531 332.039062 83.339844 332.09375 L 83.339844 331.632812 C 84.101562 331.488281 84.8125 331.148438 85.40625 330.648438 C 85.996094 330.148438 86.449219 329.503906 86.714844 328.777344 C 87.308594 327.257812 87.601562 323.84375 87.601562 318.535156 L 87.601562 298.398438 C 87.683594 297.265625 87.390625 296.136719 86.769531 295.1875 C 86.058594 294.375 85.09375 293.828125 84.035156 293.636719 L 84.035156 293.175781 C 85.253906 293.25 86.4375 293.316406 87.59375 293.347656 C 88.746094 293.378906 89.902344 293.410156 91.023438 293.410156 C 92.144531 293.410156 93.285156 293.410156 94.453125 293.347656 C 95.617188 293.28125 96.8125 293.25 98.03125 293.175781 L 98.03125 293.636719 C 96.972656 293.777344 96.003906 294.3125 95.316406 295.132812 C 94.691406 296.101562 94.394531 297.246094 94.460938 298.398438 Z M 94.460938 318.535156 " fill-opacity="1" fill-rule="nonzero"/><path fill="#2d3f92" d="M 101.195312 332.09375 L 101.195312 331.632812 C 101.914062 331.484375 102.582031 331.160156 103.140625 330.6875 C 103.699219 330.214844 104.132812 329.609375 104.402344 328.925781 C 104.945312 327.535156 105.222656 324.078125 105.222656 318.535156 L 105.222656 298.75 C 105.277344 297.523438 104.96875 296.304688 104.335938 295.25 C 104.039062 294.847656 103.65625 294.511719 103.214844 294.269531 C 102.773438 294.027344 102.285156 293.882812 101.78125 293.851562 L 101.78125 293.378906 C 102.476562 293.378906 103.503906 293.378906 104.859375 293.378906 C 106.21875 293.378906 108.941406 293.378906 113.054688 293.378906 L 120.820312 293.378906 C 127.410156 293.378906 132.191406 294.09375 135.167969 295.519531 C 136.527344 296.089844 137.679688 297.0625 138.476562 298.304688 C 139.269531 299.542969 139.671875 301 139.625 302.472656 C 139.640625 303.84375 139.285156 305.191406 138.59375 306.375 C 137.90625 307.558594 136.910156 308.53125 135.714844 309.195312 C 133.105469 310.828125 129.429688 311.703125 124.679688 311.816406 C 127.433594 312.042969 130.105469 312.882812 132.496094 314.277344 C 134.523438 315.601562 136.113281 317.492188 137.082031 319.710938 C 137.5625 320.78125 138.148438 322.300781 138.929688 324.238281 C 140.574219 328.519531 142.253906 330.878906 143.972656 331.324219 L 143.972656 331.964844 L 142.613281 331.964844 C 140.542969 331.910156 139.121094 331.878906 138.339844 331.878906 L 133.726562 331.878906 C 133.015625 330.125 132.089844 327.554688 130.949219 324.175781 C 130.246094 321.757812 129.296875 319.417969 128.105469 317.199219 C 127.082031 315.457031 125.5625 314.0625 123.738281 313.195312 C 121.203125 312.28125 118.511719 311.886719 115.820312 312.03125 L 113.683594 312.03125 L 111.964844 312.105469 L 111.964844 318.398438 C 111.964844 323.746094 112.230469 327.148438 112.785156 328.636719 C 113.027344 329.382812 113.457031 330.050781 114.035156 330.578125 C 114.617188 331.105469 115.324219 331.46875 116.089844 331.632812 L 116.089844 332.09375 L 111.707031 331.964844 C 110.4375 331.964844 109.324219 331.964844 108.375 331.964844 C 107.425781 331.964844 106.109375 331.964844 104.914062 331.964844 Z M 111.976562 310.691406 L 113.652344 310.757812 L 114.636719 310.808594 C 117.484375 310.808594 119.730469 310.761719 121.375 310.660156 C 122.722656 310.601562 124.058594 310.449219 125.382812 310.199219 C 127.21875 309.875 128.890625 308.945312 130.136719 307.558594 C 131.335938 306.230469 131.988281 304.5 131.964844 302.710938 C 132.035156 301.515625 131.777344 300.324219 131.210938 299.273438 C 130.644531 298.21875 129.792969 297.34375 128.757812 296.75 C 126.621094 295.453125 123.183594 294.8125 118.546875 294.8125 C 117.476562 294.8125 116.410156 294.8125 115.414062 294.8125 C 114.421875 294.8125 113.277344 294.8125 112.027344 294.898438 Z M 111.976562 310.691406 " fill-opacity="1" fill-rule="nonzero"/><path fill="#2d3f92" d="M 164.558594 329.246094 L 167.058594 320.683594 L 167.464844 320.683594 C 167.699219 322.253906 168.242188 323.761719 169.066406 325.121094 C 169.886719 326.476562 170.96875 327.65625 172.25 328.59375 C 174.972656 330.695312 178.332031 331.808594 181.769531 331.75 C 184.933594 331.902344 188.0625 331.007812 190.667969 329.203125 C 191.734375 328.460938 192.601562 327.46875 193.191406 326.3125 C 193.78125 325.152344 194.078125 323.867188 194.054688 322.570312 C 194.074219 321.488281 193.816406 320.417969 193.308594 319.464844 C 192.835938 318.585938 192.109375 317.871094 191.222656 317.410156 C 188.683594 316.378906 186.003906 315.734375 183.277344 315.496094 C 181.757812 315.28125 180.59375 315.109375 179.804688 314.972656 C 175.246094 314.199219 171.933594 312.980469 169.867188 311.3125 C 168.851562 310.503906 168.039062 309.46875 167.5 308.289062 C 166.957031 307.109375 166.703125 305.816406 166.757812 304.515625 C 166.742188 302.765625 167.167969 301.039062 167.996094 299.496094 C 168.824219 297.953125 170.027344 296.644531 171.492188 295.6875 C 174.632812 293.40625 178.792969 292.269531 183.96875 292.277344 C 186.578125 292.277344 189.179688 292.558594 191.726562 293.121094 C 194.15625 293.628906 196.515625 294.425781 198.753906 295.496094 L 196.492188 302.546875 L 195.945312 302.496094 C 195.75 301.199219 195.296875 299.957031 194.617188 298.835938 C 193.9375 297.71875 193.042969 296.746094 191.980469 295.976562 C 189.597656 294.339844 186.75 293.515625 183.863281 293.636719 C 181.039062 293.515625 178.253906 294.304688 175.914062 295.894531 C 174.96875 296.5 174.191406 297.332031 173.652344 298.320312 C 173.109375 299.304688 172.824219 300.40625 172.816406 301.53125 C 172.816406 302.625 173.136719 303.699219 173.734375 304.613281 C 174.339844 305.539062 175.1875 306.277344 176.183594 306.753906 C 177.898438 307.566406 181.101562 308.300781 185.796875 308.957031 L 189.566406 309.535156 C 193.234375 310.136719 195.945312 311.226562 197.699219 312.808594 C 198.574219 313.625 199.265625 314.621094 199.714844 315.730469 C 200.167969 316.839844 200.371094 318.035156 200.316406 319.230469 C 200.351562 321.175781 199.917969 323.105469 199.046875 324.847656 C 198.179688 326.589844 196.902344 328.09375 195.328125 329.234375 C 192.007812 331.789062 187.632812 333.070312 182.207031 333.078125 C 178.976562 333.089844 175.753906 332.753906 172.59375 332.082031 C 169.796875 331.511719 167.09375 330.558594 164.558594 329.246094 Z M 164.558594 329.246094 " fill-opacity="1" fill-rule="nonzero"/><path fill="#2d3f92" d="M 240.996094 310.582031 L 240.996094 309.921875 C 240.996094 303.671875 240.640625 299.601562 239.929688 297.710938 C 239.574219 296.792969 239.03125 295.957031 238.339844 295.257812 C 237.652344 294.554688 236.824219 294.003906 235.910156 293.632812 L 235.910156 293.226562 L 237.652344 293.324219 C 239.542969 293.421875 240.859375 293.464844 241.476562 293.464844 C 242.824219 293.464844 244.863281 293.386719 247.589844 293.226562 L 247.757812 293.226562 L 247.757812 293.632812 C 246.804688 294.027344 245.949219 294.617188 245.242188 295.371094 C 244.539062 296.125 244.003906 297.019531 243.679688 298 C 242.921875 300.089844 242.546875 304.285156 242.546875 310.582031 L 242.546875 316.328125 C 242.546875 322.035156 241.152344 326.253906 238.367188 328.976562 C 235.585938 331.703125 231.277344 333.0625 225.453125 333.054688 C 219.191406 333.054688 214.691406 331.824219 211.949219 329.363281 C 209.207031 326.902344 207.835938 322.800781 207.835938 317.058594 C 207.835938 315.453125 207.835938 313.578125 207.835938 311.429688 C 207.835938 309.277344 207.898438 307.929688 207.898438 307.363281 L 207.898438 298.394531 C 207.980469 297.269531 207.703125 296.144531 207.109375 295.1875 C 206.449219 294.371094 205.527344 293.8125 204.503906 293.601562 L 204.503906 293.140625 C 205.667969 293.21875 206.808594 293.28125 207.941406 293.3125 C 209.074219 293.34375 210.1875 293.378906 211.285156 293.378906 C 212.386719 293.378906 213.507812 293.378906 214.640625 293.3125 C 215.773438 293.25 216.9375 293.21875 218.089844 293.140625 L 218.089844 293.601562 C 217.058594 293.773438 216.125 294.308594 215.453125 295.109375 C 214.859375 296.070312 214.574219 297.191406 214.640625 298.320312 L 214.640625 311.386719 C 214.640625 314.597656 214.738281 317.195312 214.90625 319.132812 C 215.015625 320.695312 215.289062 322.242188 215.71875 323.746094 C 216.433594 325.980469 217.933594 327.882812 219.941406 329.09375 C 222.199219 330.441406 224.792969 331.113281 227.417969 331.03125 C 231.820312 331.03125 235.175781 329.796875 237.480469 327.328125 C 239.789062 324.863281 240.960938 321.300781 240.996094 316.652344 Z M 240.996094 310.582031 " fill-opacity="1" fill-rule="nonzero"/><path fill="#2d3f92" d="M 248.421875 332.09375 L 248.421875 331.632812 C 249.132812 331.488281 249.792969 331.171875 250.351562 330.710938 C 250.910156 330.25 251.347656 329.660156 251.628906 328.988281 C 252.183594 327.628906 252.472656 324.152344 252.472656 318.535156 L 252.472656 298.75 C 252.558594 297.53125 252.28125 296.3125 251.679688 295.25 C 251.371094 294.839844 250.980469 294.5 250.53125 294.253906 C 250.082031 294.007812 249.585938 293.859375 249.074219 293.816406 L 249.074219 293.347656 L 257.246094 293.347656 C 258.316406 293.347656 259.898438 293.347656 261.882812 293.28125 C 263.871094 293.21875 265.3125 293.230469 266.15625 293.230469 C 269.640625 293.152344 273.125 293.457031 276.542969 294.136719 C 279.042969 294.691406 281.414062 295.710938 283.539062 297.144531 C 285.929688 298.726562 287.882812 300.886719 289.222656 303.425781 C 290.539062 306.007812 291.207031 308.875 291.167969 311.773438 C 291.191406 314.640625 290.628906 317.484375 289.523438 320.128906 C 288.464844 322.671875 286.867188 324.949219 284.84375 326.808594 C 282.859375 328.628906 280.476562 329.957031 277.886719 330.679688 C 274.394531 331.558594 270.800781 331.953125 267.203125 331.855469 L 256.414062 331.855469 C 254.542969 331.855469 253.015625 331.855469 251.851562 331.855469 C 250.6875 331.855469 249.535156 332.039062 248.421875 332.09375 Z M 259.171875 294.886719 L 259.171875 318.535156 C 259.171875 324.589844 259.574219 328.164062 260.398438 329.234375 C 261.222656 330.304688 263.453125 330.839844 267.109375 330.839844 C 272.300781 330.839844 276.308594 329.25 279.136719 326.066406 C 281.964844 322.886719 283.390625 318.335938 283.410156 312.414062 C 283.410156 306.265625 282.007812 301.769531 279.203125 298.921875 C 276.394531 296.074219 271.945312 294.648438 265.847656 294.640625 C 264.265625 294.640625 262.984375 294.640625 262.023438 294.707031 C 261.0625 294.769531 260.078125 294.8125 259.171875 294.886719 Z M 259.171875 294.886719 " fill-opacity="1" fill-rule="nonzero"/><path fill="#2d3f92" d="M 295.011719 329.246094 L 297.5 320.683594 L 297.90625 320.683594 C 298.144531 322.253906 298.691406 323.761719 299.515625 325.121094 C 300.335938 326.476562 301.421875 327.660156 302.703125 328.59375 C 305.425781 330.695312 308.785156 331.808594 312.222656 331.75 C 315.386719 331.902344 318.515625 331.007812 321.121094 329.203125 C 322.1875 328.460938 323.050781 327.464844 323.644531 326.308594 C 324.234375 325.152344 324.53125 323.867188 324.507812 322.570312 C 324.527344 321.488281 324.265625 320.417969 323.75 319.464844 C 323.277344 318.585938 322.550781 317.871094 321.667969 317.410156 C 319.132812 316.378906 316.457031 315.734375 313.730469 315.496094 C 312.199219 315.28125 311.046875 315.109375 310.257812 314.972656 C 305.691406 314.199219 302.375 312.980469 300.3125 311.3125 C 299.296875 310.503906 298.488281 309.464844 297.949219 308.285156 C 297.410156 307.105469 297.160156 305.8125 297.210938 304.515625 C 297.195312 302.765625 297.617188 301.039062 298.445312 299.496094 C 299.269531 297.953125 300.46875 296.644531 301.933594 295.6875 C 305.082031 293.40625 309.246094 292.269531 314.421875 292.277344 C 317.03125 292.277344 319.632812 292.558594 322.179688 293.121094 C 324.605469 293.628906 326.960938 294.425781 329.199219 295.496094 L 326.945312 302.546875 L 326.386719 302.496094 C 326.195312 301.199219 325.746094 299.957031 325.066406 298.839844 C 324.386719 297.71875 323.492188 296.746094 322.4375 295.976562 C 320.050781 294.339844 317.199219 293.515625 314.304688 293.636719 C 311.488281 293.515625 308.703125 294.304688 306.367188 295.894531 C 305.421875 296.5 304.644531 297.332031 304.105469 298.320312 C 303.5625 299.304688 303.277344 300.40625 303.269531 301.53125 C 303.265625 302.625 303.582031 303.695312 304.179688 304.613281 C 304.785156 305.539062 305.636719 306.277344 306.636719 306.753906 C 308.34375 307.566406 311.570312 308.304688 316.25 308.957031 L 320.011719 309.535156 C 323.6875 310.136719 326.421875 311.226562 328.140625 312.808594 C 329.023438 313.621094 329.714844 314.617188 330.167969 315.726562 C 330.621094 316.835938 330.828125 318.03125 330.769531 319.230469 C 330.804688 321.175781 330.371094 323.105469 329.503906 324.847656 C 328.632812 326.589844 327.355469 328.09375 325.78125 329.234375 C 322.453125 331.789062 318.078125 333.070312 312.648438 333.078125 C 309.417969 333.089844 306.195312 332.753906 303.035156 332.082031 C 300.242188 331.511719 297.542969 330.558594 295.011719 329.246094 Z M 295.011719 329.246094 " fill-opacity="1" fill-rule="nonzero"/><path fill="#2d3f92" d="M 187.945312 118.511719 C 174.6875 119.230469 168.285156 121.808594 168.285156 121.808594 C 181.417969 123.949219 187.945312 138.328125 187.945312 138.328125 C 187.945312 138.328125 194.472656 123.992188 207.601562 121.808594 C 207.601562 121.808594 201.203125 119.230469 187.945312 118.511719 Z M 187.945312 118.511719 " fill-opacity="1" fill-rule="nonzero"/><path fill="#2d3f92" d="M 182.453125 262.390625 C 182.453125 263.476562 182.773438 264.542969 183.378906 265.445312 C 183.980469 266.351562 184.839844 267.054688 185.84375 267.472656 C 186.847656 267.886719 187.949219 267.996094 189.015625 267.785156 C 190.082031 267.570312 191.058594 267.046875 191.828125 266.277344 C 192.59375 265.511719 193.117188 264.53125 193.328125 263.464844 C 193.542969 262.394531 193.433594 261.289062 193.015625 260.285156 C 192.601562 259.28125 191.898438 258.421875 190.996094 257.816406 C 190.089844 257.210938 189.03125 256.890625 187.945312 256.890625 C 186.488281 256.890625 185.089844 257.46875 184.0625 258.5 C 183.03125 259.53125 182.453125 260.929688 182.453125 262.390625 Z M 182.453125 262.390625 " fill-opacity="1" fill-rule="nonzero"/><path fill="#2d3f92" d="M 186.867188 281.339844 L 187.933594 281.726562 L 189.003906 281.339844 C 206.46875 275.070312 222.507812 265.367188 236.179688 252.800781 C 237.097656 251.953125 238.007812 251.097656 238.902344 250.234375 C 239.8125 249.355469 240.699219 248.46875 241.585938 247.558594 C 244.777344 244.292969 247.800781 240.875 250.65625 237.308594 C 251.519531 236.238281 252.375 235.167969 253.199219 234.097656 C 254.019531 233.027344 254.941406 231.753906 255.785156 230.554688 C 261.699219 222.164062 266.667969 213.140625 270.601562 203.65625 C 270.183594 202.390625 269.636719 201.171875 268.96875 200.015625 C 268.25 198.820312 267.410156 197.703125 266.46875 196.679688 C 261.304688 210.519531 253.875 223.402344 244.480469 234.792969 C 243.699219 235.734375 242.910156 236.6875 242.097656 237.617188 C 241.285156 238.550781 240.484375 239.4375 239.652344 240.335938 C 236.832031 243.40625 233.851562 246.328125 230.742188 249.121094 C 229.867188 249.914062 228.96875 250.683594 228.070312 251.441406 C 227.171875 252.203125 226.277344 252.953125 225.367188 253.691406 C 214.136719 262.75 201.507812 269.921875 187.976562 274.917969 C 174.445312 269.917969 161.816406 262.75 150.585938 253.691406 C 149.675781 252.953125 148.777344 252.203125 147.882812 251.441406 C 146.984375 250.683594 146.085938 249.914062 145.210938 249.121094 C 142.101562 246.328125 139.121094 243.40625 136.300781 240.335938 C 135.476562 239.4375 134.65625 238.539062 133.855469 237.617188 C 133.054688 236.699219 132.25 235.734375 131.472656 234.792969 C 122.082031 223.398438 114.652344 210.519531 109.484375 196.679688 C 108.519531 197.699219 107.664062 198.816406 106.933594 200.015625 C 106.25 201.160156 105.695312 202.371094 105.277344 203.632812 C 109.203125 213.117188 114.171875 222.136719 120.082031 230.523438 C 120.925781 231.722656 121.792969 232.898438 122.667969 234.066406 C 123.542969 235.230469 124.347656 236.207031 125.210938 237.277344 C 128.058594 240.84375 131.085938 244.261719 134.292969 247.539062 C 135.167969 248.4375 136.066406 249.324219 136.972656 250.203125 C 137.882812 251.078125 138.769531 251.925781 139.6875 252.769531 C 153.355469 265.34375 169.398438 275.058594 186.867188 281.339844 Z M 186.867188 281.339844 " fill-opacity="1" fill-rule="nonzero"/><path fill="#2d3f92" d="M 320.601562 273.851562 C 283.316406 271.550781 247.953125 259.9375 247.644531 259.863281 C 247.191406 259.710938 246.710938 259.683594 246.246094 259.78125 C 245.78125 259.882812 245.351562 260.105469 245.003906 260.429688 C 234.480469 270.0625 211.136719 280.132812 210.902344 280.238281 C 210.582031 280.378906 210.289062 280.582031 210.046875 280.835938 C 209.800781 281.085938 209.609375 281.386719 209.480469 281.714844 C 209.355469 282.042969 209.289062 282.390625 209.296875 282.742188 C 209.304688 283.09375 209.378906 283.441406 209.519531 283.765625 C 209.660156 284.085938 209.863281 284.378906 210.113281 284.621094 C 210.367188 284.867188 210.667969 285.058594 210.992188 285.1875 C 211.320312 285.316406 211.667969 285.378906 212.019531 285.371094 C 212.371094 285.367188 212.71875 285.289062 213.039062 285.148438 C 213.992188 284.742188 235.890625 275.316406 247.472656 265.40625 C 251.660156 266.710938 264.40625 270.511719 281.007812 273.851562 L 244.289062 273.851562 C 243.582031 273.851562 242.902344 274.132812 242.398438 274.632812 C 241.898438 275.136719 241.617188 275.816406 241.617188 276.523438 C 241.617188 277.234375 241.898438 277.914062 242.398438 278.417969 C 242.902344 278.917969 243.582031 279.199219 244.289062 279.199219 L 320.441406 279.199219 C 321.148438 279.222656 321.835938 278.960938 322.351562 278.476562 C 322.871094 277.992188 323.171875 277.320312 323.195312 276.609375 C 323.21875 275.902344 322.960938 275.210938 322.472656 274.695312 C 321.988281 274.175781 321.320312 273.871094 320.609375 273.851562 Z M 320.601562 273.851562 " fill-opacity="1" fill-rule="nonzero"/><path fill="#2d3f92" d="M 164.984375 280.269531 C 164.75 280.164062 141.40625 270.117188 130.882812 260.464844 C 130.535156 260.140625 130.105469 259.914062 129.640625 259.816406 C 129.175781 259.714844 128.695312 259.742188 128.246094 259.898438 C 127.890625 259.941406 92.582031 271.539062 55.289062 273.851562 C 54.578125 273.871094 53.910156 274.175781 53.421875 274.695312 C 52.9375 275.210938 52.679688 275.902344 52.703125 276.609375 C 52.726562 277.320312 53.027344 277.992188 53.542969 278.476562 C 54.0625 278.964844 54.75 279.222656 55.457031 279.199219 L 131.609375 279.199219 C 132.316406 279.199219 132.996094 278.917969 133.496094 278.417969 C 134 277.914062 134.28125 277.234375 134.28125 276.523438 C 134.28125 275.816406 134 275.136719 133.496094 274.632812 C 132.996094 274.132812 132.316406 273.851562 131.609375 273.851562 L 94.914062 273.851562 C 111.515625 270.511719 124.257812 266.714844 128.449219 265.40625 C 140.027344 275.316406 161.929688 284.742188 162.878906 285.148438 C 163.214844 285.296875 163.582031 285.375 163.949219 285.375 C 164.566406 285.378906 165.164062 285.171875 165.648438 284.78125 C 166.128906 284.394531 166.457031 283.851562 166.585938 283.246094 C 166.710938 282.640625 166.625 282.007812 166.335938 281.460938 C 166.050781 280.914062 165.585938 280.480469 165.015625 280.238281 Z M 164.984375 280.269531 " fill-opacity="1" fill-rule="nonzero"/><path fill="#2d3f92" d="M 84.816406 94.179688 L 96.078125 170.367188 C 96.773438 175.109375 97.714844 179.8125 98.898438 184.457031 C 100.605469 182.796875 102.457031 181.289062 104.421875 179.941406 C 103.621094 176.476562 102.945312 172.976562 102.414062 169.425781 L 92.242188 100.597656 L 109.132812 100.597656 C 112.058594 100.59375 114.949219 99.972656 117.625 98.78125 C 120.296875 97.589844 122.691406 95.851562 124.652344 93.679688 C 126.613281 91.503906 128.101562 88.945312 129.019531 86.160156 C 129.9375 83.378906 130.261719 80.433594 129.976562 77.519531 C 141.042969 76.96875 151.882812 74.179688 161.847656 69.320312 C 171.808594 64.460938 180.6875 57.632812 187.945312 49.25 C 195.199219 57.632812 204.070312 64.457031 214.027344 69.316406 C 223.984375 74.175781 234.820312 76.964844 245.878906 77.519531 C 245.59375 80.433594 245.921875 83.378906 246.835938 86.160156 C 247.753906 88.945312 249.242188 91.503906 251.203125 93.679688 C 253.167969 95.851562 255.5625 97.589844 258.234375 98.78125 C 260.90625 99.972656 263.796875 100.59375 266.722656 100.597656 L 283.601562 100.597656 L 273.433594 169.425781 C 272.910156 172.976562 272.226562 176.476562 271.425781 179.941406 C 273.394531 181.285156 275.242188 182.796875 276.949219 184.457031 C 278.128906 179.8125 279.070312 175.109375 279.769531 170.367188 L 291.027344 94.179688 L 266.722656 94.179688 C 264.445312 94.175781 262.195312 93.636719 260.160156 92.605469 C 258.128906 91.574219 256.363281 90.078125 255.011719 88.238281 C 253.660156 86.398438 252.761719 84.265625 252.382812 82.015625 C 252.003906 79.761719 252.160156 77.453125 252.835938 75.269531 L 254.203125 70.851562 L 249.585938 71.121094 L 248.519531 71.121094 C 237.3125 70.851562 226.300781 68.125 216.257812 63.136719 C 206.21875 58.144531 197.390625 51.007812 190.402344 42.230469 L 187.902344 39.105469 L 185.402344 42.230469 C 178.414062 51 169.589844 58.132812 159.554688 63.125 C 149.519531 68.113281 138.515625 70.84375 127.316406 71.121094 C 126.644531 71.121094 126.246094 71.121094 126.246094 71.121094 L 121.621094 70.839844 L 123 75.269531 C 123.679688 77.453125 123.835938 79.761719 123.457031 82.015625 C 123.082031 84.269531 122.179688 86.402344 120.828125 88.242188 C 119.476562 90.082031 117.710938 91.578125 115.675781 92.609375 C 113.640625 93.640625 111.390625 94.179688 109.113281 94.179688 Z M 84.816406 94.179688 " fill-opacity="1" fill-rule="nonzero"/><path fill="#2d3f92" d="M 139.066406 204.769531 C 139.074219 203.652344 138.800781 202.554688 138.277344 201.574219 C 137.753906 200.589844 136.992188 199.753906 136.0625 199.140625 C 135.136719 198.527344 134.070312 198.152344 132.960938 198.054688 C 131.851562 197.960938 130.738281 198.140625 129.71875 198.585938 C 128.695312 199.027344 127.800781 199.71875 127.117188 200.597656 C 126.429688 201.472656 125.972656 202.507812 125.785156 203.605469 C 125.597656 204.703125 125.691406 205.832031 126.046875 206.886719 C 126.40625 207.941406 127.023438 208.890625 127.839844 209.648438 C 127.902344 210.605469 128.0625 211.558594 128.320312 212.484375 C 128.917969 214.457031 129.902344 216.292969 131.210938 217.886719 C 132.523438 219.480469 134.136719 220.796875 135.957031 221.761719 C 138.464844 223.058594 141.253906 223.714844 144.078125 223.675781 C 147.222656 223.65625 150.332031 223.019531 153.226562 221.792969 C 156.125 220.570312 158.75 218.78125 160.957031 216.539062 C 165.15625 211.949219 166.460938 205.933594 164.847656 198.679688 C 163.777344 193.84375 160.476562 186.910156 150.859375 181.226562 C 144.917969 177.8125 138.171875 176.058594 131.320312 176.15625 C 126.609375 176.167969 121.929688 176.890625 117.433594 178.296875 C 114.609375 179.222656 111.890625 180.449219 109.324219 181.953125 C 108.703125 182.320312 108.0625 182.714844 107.433594 183.140625 C 106.804688 183.570312 106.195312 183.988281 105.574219 184.457031 C 103.628906 185.898438 101.839844 187.539062 100.234375 189.347656 C 99.675781 189.980469 99.164062 190.65625 98.621094 191.359375 C 98.074219 192.066406 97.550781 192.828125 97.082031 193.617188 C 97.007812 193.746094 96.921875 193.863281 96.835938 194.003906 C 94.246094 198.476562 92.78125 203.515625 92.570312 208.683594 C 92.359375 213.851562 93.402344 218.992188 95.617188 223.664062 C 100.285156 233.15625 111.695312 241.160156 126.597656 245.65625 C 123.257812 241.898438 120.117188 237.96875 117.1875 233.882812 C 110.070312 230.191406 104.816406 225.515625 102.230469 220.359375 C 99.820312 215.210938 99.269531 209.386719 100.671875 203.878906 C 100.941406 202.785156 101.296875 201.710938 101.738281 200.667969 C 102.109375 199.773438 102.542969 198.90625 103.03125 198.070312 C 103.03125 197.972656 103.128906 197.875 103.179688 197.792969 C 104.429688 195.710938 105.976562 193.824219 107.773438 192.195312 C 108.351562 191.660156 108.941406 191.125 109.527344 190.695312 C 110.113281 190.269531 110.746094 189.789062 111.355469 189.378906 C 113.921875 187.683594 116.703125 186.339844 119.621094 185.378906 C 123.375 184.234375 127.273438 183.65625 131.191406 183.667969 C 136.75 183.546875 142.234375 184.933594 147.070312 187.679688 C 154.367188 191.960938 156.800781 196.925781 157.550781 200.304688 C 158.234375 203.367188 158.746094 207.859375 155.414062 211.476562 C 152.410156 214.476562 148.347656 216.171875 144.109375 216.183594 C 142.507812 216.210938 140.921875 215.84375 139.492188 215.113281 C 137.675781 214.148438 136.285156 212.527344 135.605469 210.578125 C 136.648438 210.007812 137.515625 209.167969 138.125 208.144531 C 138.734375 207.125 139.058594 205.957031 139.066406 204.769531 Z M 139.066406 204.769531 " fill-opacity="1" fill-rule="nonzero"/><path fill="#2d3f92" d="M 183.789062 182.070312 C 178.351562 179.074219 172.496094 176.433594 166.886719 173.898438 C 159.460938 170.625 151.839844 167.816406 144.066406 165.484375 C 133.714844 162.277344 127.464844 160.253906 124.292969 154.261719 C 123.292969 152.269531 122.703125 150.097656 122.558594 147.875 C 122.414062 145.648438 122.714844 143.417969 123.449219 141.3125 C 125.925781 134.089844 133.800781 126.976562 142.925781 126.976562 C 143.292969 126.976562 143.652344 126.976562 143.992188 126.976562 C 149.335938 127.328125 155.957031 130.1875 158.449219 135.675781 C 158.9375 136.746094 161.148438 142.351562 157.101562 147.253906 C 155.164062 149.476562 152.578125 151.027344 149.707031 151.695312 C 149.148438 150.414062 148.207031 149.34375 147.007812 148.628906 C 145.8125 147.910156 144.421875 147.589844 143.035156 147.703125 C 141.644531 147.816406 140.324219 148.363281 139.261719 149.265625 C 138.199219 150.167969 137.441406 151.378906 137.097656 152.730469 C 136.757812 154.085938 136.84375 155.511719 137.351562 156.8125 C 137.855469 158.113281 138.753906 159.222656 139.921875 159.984375 C 141.089844 160.75 142.464844 161.128906 143.855469 161.070312 C 145.25 161.015625 146.589844 160.523438 147.6875 159.664062 C 151.695312 159.214844 158.253906 157.601562 162.859375 152.023438 C 169.75 143.691406 166.066406 134.371094 165.261719 132.582031 C 161.226562 123.667969 151.546875 119.964844 144.472656 119.507812 C 143.90625 119.507812 143.351562 119.453125 142.796875 119.453125 C 129.878906 119.453125 119.613281 129.222656 116.324219 138.851562 C 115.257812 141.925781 114.828125 145.179688 115.050781 148.425781 C 115.277344 151.667969 116.15625 154.832031 117.636719 157.726562 C 122.230469 166.4375 130.457031 169.027344 141.769531 172.601562 C 149.28125 174.855469 156.640625 177.578125 163.808594 180.753906 C 168.234375 182.757812 172.828125 184.832031 177.1875 187.078125 C 179.269531 185.261719 181.476562 183.589844 183.789062 182.070312 Z M 183.789062 182.070312 " fill-opacity="1" fill-rule="nonzero"/><path fill="#2d3f92" d="M 183.917969 242.476562 C 184.628906 242.105469 185.3125 241.71875 185.96875 241.320312 C 186.640625 240.925781 187.292969 240.507812 187.945312 240.078125 C 188.820312 239.492188 189.6875 238.890625 190.53125 238.238281 C 191.792969 237.253906 193 236.203125 194.152344 235.09375 C 194.6875 234.585938 195.210938 234.0625 195.722656 233.519531 C 196.222656 232.996094 196.714844 232.449219 197.195312 231.894531 C 203.253906 224.886719 207.792969 215.414062 205.679688 205.625 C 204.46875 200.515625 201.796875 195.867188 197.988281 192.257812 C 195.710938 193.488281 193.503906 194.839844 191.375 196.304688 C 194.941406 199.515625 197.484375 203.109375 198.371094 207.207031 C 199.890625 214.257812 196.234375 221.824219 190.988281 227.625 C 190.507812 228.160156 190.007812 228.695312 189.503906 229.175781 C 189.003906 229.65625 188.4375 230.171875 187.945312 230.640625 C 187.453125 231.113281 186.628906 231.785156 185.945312 232.3125 C 184.613281 233.339844 183.207031 234.269531 181.738281 235.09375 C 181.085938 235.46875 180.433594 235.820312 179.75 236.164062 C 179.066406 236.503906 178.40625 236.816406 177.699219 237.125 C 169.679688 240.414062 161.078125 242.039062 152.410156 241.898438 C 149.351562 241.898438 146.296875 241.722656 143.257812 241.375 C 146.0625 244.179688 149 246.847656 152.070312 249.378906 L 152.699219 249.378906 C 163.394531 249.390625 174.492188 247.460938 183.917969 242.476562 Z M 183.917969 242.476562 " fill-opacity="1" fill-rule="nonzero"/><path fill="#2d3f92" d="M 258.667969 233.832031 C 255.738281 237.917969 252.597656 241.847656 249.253906 245.601562 C 264.210938 241.105469 275.609375 233.101562 280.238281 223.613281 C 282.449219 218.9375 283.492188 213.796875 283.277344 208.628906 C 283.0625 203.460938 281.597656 198.425781 279.007812 193.949219 C 278.933594 193.8125 278.835938 193.695312 278.761719 193.566406 C 278.269531 192.773438 277.757812 192.023438 277.222656 191.308594 C 276.691406 190.589844 276.15625 189.925781 275.609375 189.296875 C 274.003906 187.484375 272.214844 185.84375 270.269531 184.40625 C 269.648438 183.933594 269.03125 183.496094 268.410156 183.089844 C 267.78125 182.660156 267.136719 182.265625 266.519531 181.902344 C 263.953125 180.398438 261.234375 179.167969 258.410156 178.242188 C 253.914062 176.832031 249.234375 176.113281 244.523438 176.101562 C 237.691406 176.039062 230.972656 177.808594 225.058594 181.226562 C 215.441406 186.898438 212.140625 193.84375 211.070312 198.679688 C 209.457031 205.933594 210.761719 211.949219 214.960938 216.539062 C 219.402344 221.066406 225.460938 223.640625 231.796875 223.699219 C 234.617188 223.734375 237.402344 223.078125 239.90625 221.78125 C 241.726562 220.816406 243.339844 219.5 244.652344 217.910156 C 245.964844 216.316406 246.945312 214.480469 247.546875 212.503906 C 247.800781 211.578125 247.964844 210.628906 248.027344 209.667969 C 249.0625 208.707031 249.765625 207.441406 250.039062 206.054688 C 250.308594 204.664062 250.136719 203.226562 249.539062 201.945312 C 248.945312 200.660156 247.957031 199.601562 246.722656 198.914062 C 245.484375 198.230469 244.066406 197.953125 242.664062 198.128906 C 241.261719 198.304688 239.953125 198.917969 238.921875 199.886719 C 237.890625 200.851562 237.191406 202.121094 236.925781 203.511719 C 236.664062 204.902344 236.84375 206.339844 237.445312 207.617188 C 238.050781 208.898438 239.042969 209.953125 240.28125 210.632812 C 239.601562 212.582031 238.210938 214.199219 236.390625 215.167969 C 234.960938 215.898438 233.371094 216.265625 231.765625 216.238281 C 227.527344 216.226562 223.46875 214.535156 220.472656 211.53125 C 216.789062 207.488281 217.972656 202.125 218.335938 200.359375 C 219.085938 196.980469 221.542969 192.035156 228.816406 187.734375 C 233.617188 185.003906 239.058594 183.617188 244.574219 183.710938 C 248.496094 183.707031 252.394531 184.28125 256.144531 185.421875 C 259.066406 186.382812 261.847656 187.726562 264.414062 189.425781 C 265.023438 189.832031 265.632812 190.257812 266.242188 190.738281 C 266.851562 191.222656 267.417969 191.703125 267.992188 192.226562 C 269.789062 193.863281 271.335938 195.75 272.585938 197.835938 L 272.746094 198.113281 C 273.230469 198.949219 273.660156 199.820312 274.03125 200.714844 C 274.46875 201.753906 274.828125 202.828125 275.097656 203.921875 C 276.5 209.429688 275.949219 215.257812 273.539062 220.402344 C 270.996094 225.464844 265.78125 230.140625 258.667969 233.832031 Z M 258.667969 233.832031 " fill-opacity="1" fill-rule="nonzero"/><path fill="#2d3f92" d="M 223.453125 241.898438 C 214.796875 242.03125 206.199219 240.40625 198.1875 237.117188 C 196.609375 238.734375 194.921875 240.238281 193.132812 241.621094 C 192.75 241.921875 192.355469 242.1875 191.96875 242.476562 C 201.394531 247.464844 212.492188 249.390625 223.164062 249.390625 L 223.796875 249.390625 C 226.867188 246.851562 229.804688 244.183594 232.609375 241.394531 C 229.570312 241.730469 226.511719 241.898438 223.453125 241.898438 Z M 223.453125 241.898438 " fill-opacity="1" fill-rule="nonzero"/><path fill="#2d3f92" d="M 184.515625 196.304688 C 185.046875 195.8125 185.582031 195.339844 186.179688 194.878906 C 186.777344 194.421875 187.335938 193.960938 187.945312 193.523438 C 190.09375 191.96875 192.328125 190.539062 194.640625 189.242188 L 196.660156 188.117188 C 197.335938 187.753906 198.019531 187.402344 198.710938 187.046875 C 203.0625 184.800781 207.65625 182.769531 212.078125 180.722656 C 219.234375 177.570312 226.582031 174.867188 234.074219 172.632812 C 245.410156 169.0625 253.605469 166.472656 258.207031 157.761719 C 259.683594 154.863281 260.558594 151.699219 260.785156 148.457031 C 261.007812 145.210938 260.574219 141.957031 259.511719 138.886719 C 256.222656 129.253906 245.921875 119.484375 233.015625 119.484375 C 232.472656 119.484375 231.949219 119.484375 231.359375 119.539062 C 224.289062 120 214.609375 123.703125 210.570312 132.613281 C 209.769531 134.402344 206.09375 143.734375 212.976562 152.058594 C 217.578125 157.632812 224.148438 159.25 228.144531 159.699219 C 229.242188 160.550781 230.582031 161.039062 231.972656 161.097656 C 233.359375 161.152344 234.734375 160.773438 235.898438 160.011719 C 237.058594 159.246094 237.957031 158.140625 238.460938 156.839844 C 238.964844 155.542969 239.054688 154.121094 238.710938 152.769531 C 238.371094 151.421875 237.617188 150.210938 236.554688 149.3125 C 235.492188 148.410156 234.175781 147.863281 232.792969 147.75 C 231.40625 147.636719 230.019531 147.957031 228.824219 148.667969 C 227.628906 149.382812 226.6875 150.449219 226.125 151.726562 C 223.257812 151.058594 220.671875 149.503906 218.734375 147.285156 C 214.695312 142.382812 216.90625 136.777344 217.386719 135.707031 C 219.886719 130.1875 226.445312 127.359375 231.84375 127.007812 L 232.972656 127.007812 C 242.121094 127.007812 249.972656 134.125 252.441406 141.347656 C 253.171875 143.449219 253.476562 145.683594 253.332031 147.90625 C 253.1875 150.128906 252.59375 152.300781 251.59375 154.292969 C 248.390625 160.285156 242.171875 162.253906 231.820312 165.519531 C 224.058594 167.835938 216.449219 170.636719 209.03125 173.898438 C 203.425781 176.433594 197.558594 179.074219 192.132812 182.070312 C 191.414062 182.46875 190.722656 182.863281 189.996094 183.269531 C 189.269531 183.675781 188.617188 184.082031 187.933594 184.511719 C 185.601562 185.941406 183.363281 187.523438 181.234375 189.242188 C 180.648438 189.722656 180.058594 190.214844 179.503906 190.71875 C 178.949219 191.222656 178.4375 191.734375 177.890625 192.257812 C 174.082031 195.867188 171.410156 200.515625 170.199219 205.625 C 168.0625 215.414062 172.625 224.882812 178.679688 231.894531 C 180.332031 231.035156 181.910156 230.035156 183.394531 228.90625 C 183.917969 228.5 184.460938 228.050781 184.953125 227.601562 C 179.726562 221.804688 176.054688 214.238281 177.570312 207.1875 C 178.402344 203.109375 180.945312 199.523438 184.515625 196.304688 Z M 184.515625 196.304688 " fill-opacity="1" fill-rule="nonzero"/><path fill="#2d3f92" d="M 75.257812 110.722656 C 76.699219 118.8125 78.085938 126.921875 79.625 135 C 80.335938 139.046875 81.097656 143.085938 81.910156 147.113281 C 82.691406 151.160156 83.472656 155.191406 84.304688 159.226562 C 85.917969 167.285156 87.617188 175.34375 89.453125 183.367188 C 88.484375 175.207031 87.390625 167.050781 86.175781 158.894531 C 85.597656 154.820312 84.976562 150.761719 84.359375 146.699219 C 83.738281 142.632812 83.097656 138.566406 82.445312 134.507812 C 81.175781 126.386719 79.765625 118.277344 78.40625 110.132812 C 77.0625 102.589844 75.757812 95.046875 74.359375 87.523438 L 85.289062 87.351562 L 97.925781 87.117188 C 100.0625 87.042969 102.113281 87.019531 104.335938 86.914062 C 106.605469 86.839844 108.792969 86.035156 110.574219 84.625 C 112.230469 83.089844 113.214844 80.964844 113.308594 78.707031 C 113.4375 76.566406 113.15625 74.417969 112.476562 72.382812 C 112.925781 74.433594 112.996094 76.546875 112.679688 78.621094 C 112.441406 80.632812 111.425781 82.46875 109.847656 83.734375 C 108.203125 84.847656 106.246094 85.40625 104.261719 85.320312 C 102.230469 85.320312 100.0625 85.210938 97.96875 85.167969 L 85.289062 84.882812 L 72.628906 84.6875 L 70.929688 84.6875 L 71.21875 86.390625 C 72.46875 94.511719 73.886719 102.644531 75.257812 110.722656 Z M 75.257812 110.722656 " fill-opacity="1" fill-rule="nonzero"/><path fill="#2d3f92" d="M 265.332031 84.625 C 267.113281 86.035156 269.300781 86.839844 271.570312 86.914062 C 273.707031 87.019531 275.84375 87.042969 277.980469 87.117188 L 290.640625 87.394531 L 301.570312 87.566406 C 300.171875 95.054688 298.867188 102.632812 297.523438 110.175781 C 296.164062 118.277344 294.753906 126.386719 293.472656 134.507812 C 292.820312 138.566406 292.167969 142.632812 291.5625 146.695312 C 290.953125 150.761719 290.320312 154.820312 289.746094 158.894531 C 288.546875 167.042969 287.457031 175.199219 286.476562 183.367188 C 288.3125 175.34375 290.011719 167.316406 291.625 159.226562 C 292.457031 155.191406 293.238281 151.160156 294.019531 147.113281 C 294.796875 143.070312 295.566406 139.046875 296.304688 135 C 297.84375 126.921875 299.230469 118.8125 300.671875 110.722656 C 302.117188 102.632812 303.460938 94.511719 304.734375 86.390625 L 305 84.667969 L 303.300781 84.667969 L 290.640625 84.859375 L 277.980469 85.148438 C 275.84375 85.148438 273.707031 85.289062 271.691406 85.296875 C 269.707031 85.382812 267.746094 84.828125 266.101562 83.714844 C 264.527344 82.445312 263.511719 80.609375 263.269531 78.597656 C 262.953125 76.523438 263.023438 74.410156 263.472656 72.359375 C 262.792969 74.394531 262.511719 76.542969 262.640625 78.683594 C 262.71875 80.941406 263.6875 83.078125 265.332031 84.625 Z M 265.332031 84.625 " fill-opacity="1" fill-rule="nonzero"/><g clip-path="url(#983d451baf)"><path fill="#2d3f92" d="M 230.539062 56.289062 C 224.988281 53.878906 219.765625 50.777344 214.984375 47.066406 C 210.199219 43.378906 205.707031 39.320312 201.554688 34.929688 C 196.695312 29.59375 192.152344 23.976562 187.945312 18.109375 L 185.808594 21.09375 L 185.753906 21.09375 C 185.816406 21.234375 185.691406 21.257812 185.65625 21.339844 L 185.53125 21.535156 L 184.535156 22.882812 L 183.179688 24.667969 C 182.25 25.855469 181.308594 27.023438 180.347656 28.179688 C 178.414062 30.492188 176.40625 32.75 174.3125 34.929688 C 170.183594 39.320312 165.71875 43.378906 160.957031 47.066406 C 156.175781 50.777344 150.953125 53.878906 145.402344 56.289062 C 139.804688 58.761719 133.742188 60.011719 127.625 59.960938 C 133.785156 60.429688 139.972656 59.59375 145.789062 57.507812 C 151.640625 55.441406 157.214844 52.644531 162.378906 49.195312 C 167.558594 45.769531 172.460938 41.9375 177.035156 37.734375 C 179.335938 35.652344 181.566406 33.488281 183.722656 31.238281 C 184.792969 30.167969 185.859375 28.980469 186.929688 27.816406 L 187.996094 26.671875 C 191.410156 30.558594 195.035156 34.253906 198.863281 37.734375 C 203.4375 41.9375 208.339844 45.769531 213.519531 49.195312 C 218.683594 52.644531 224.257812 55.441406 230.109375 57.507812 C 235.925781 59.59375 242.113281 60.429688 248.273438 59.960938 C 242.167969 60.003906 236.125 58.753906 230.539062 56.289062 Z M 230.539062 56.289062 " fill-opacity="1" fill-rule="nonzero"/></g><path fill="#2d3f92" d="M 221.851562 90.285156 C 219.75 89.53125 217.480469 89.398438 215.304688 89.890625 C 213.128906 90.386719 211.136719 91.492188 209.566406 93.074219 C 209.902344 93.015625 210.242188 92.988281 210.582031 92.992188 C 211.914062 92.988281 213.214844 93.382812 214.324219 94.121094 C 215.433594 94.863281 216.296875 95.914062 216.808594 97.148438 C 217.316406 98.378906 217.453125 99.734375 217.191406 101.042969 C 216.933594 102.351562 216.292969 103.554688 215.351562 104.5 C 214.410156 105.441406 213.207031 106.085938 211.902344 106.34375 C 210.59375 106.605469 209.242188 106.46875 208.011719 105.957031 C 206.78125 105.445312 205.730469 104.582031 204.992188 103.46875 C 204.253906 102.359375 203.859375 101.054688 203.859375 99.722656 C 203.859375 99.433594 203.859375 93.910156 203.859375 93.632812 C 201.253906 98.480469 195.945312 101.96875 194.085938 98.4375 C 195.148438 97.535156 196.003906 96.410156 196.589844 95.148438 C 197.175781 93.882812 197.480469 92.503906 197.484375 91.109375 C 197.476562 90.5625 197.425781 90.019531 197.332031 89.480469 C 198.460938 88.59375 199.671875 87.824219 200.957031 87.179688 C 199.386719 86.21875 197.609375 85.648438 195.773438 85.523438 C 194.832031 84.203125 193.578125 83.144531 192.121094 82.441406 C 192.398438 78.339844 197.996094 76.210938 197.996094 76.210938 L 187.941406 62.878906 L 177.890625 76.210938 C 177.890625 76.210938 183.488281 78.351562 183.765625 82.441406 C 182.304688 83.140625 181.050781 84.199219 180.113281 85.523438 C 178.246094 85.636719 176.4375 86.207031 174.84375 87.179688 C 176.125 87.824219 177.339844 88.59375 178.464844 89.480469 C 178.371094 90.019531 178.324219 90.5625 178.316406 91.109375 C 178.320312 92.503906 178.625 93.882812 179.210938 95.148438 C 179.796875 96.410156 180.652344 97.535156 181.714844 98.4375 C 179.855469 101.957031 174.566406 98.4375 171.9375 93.664062 C 171.9375 93.933594 171.9375 99.441406 171.9375 99.722656 C 171.945312 101.058594 171.554688 102.367188 170.816406 103.484375 C 170.074219 104.597656 169.023438 105.464844 167.789062 105.980469 C 166.554688 106.492188 165.195312 106.625 163.886719 106.363281 C 162.578125 106.101562 161.375 105.453125 160.433594 104.503906 C 159.492188 103.554688 158.855469 102.347656 158.601562 101.035156 C 158.347656 99.71875 158.488281 98.359375 159.007812 97.128906 C 159.527344 95.898438 160.402344 94.847656 161.519531 94.113281 C 162.636719 93.378906 163.949219 92.996094 165.28125 93.011719 C 165.640625 93.011719 166 93.039062 166.351562 93.097656 C 164.777344 91.511719 162.785156 90.40625 160.609375 89.910156 C 158.429688 89.414062 156.15625 89.550781 154.054688 90.304688 C 154.054688 90.304688 153.167969 84.953125 137.421875 83.425781 L 141.523438 89.460938 C 141.746094 89.4375 141.972656 89.4375 142.195312 89.460938 C 143.039062 89.460938 143.863281 89.683594 144.59375 90.105469 C 145.320312 90.527344 145.929688 91.128906 146.351562 91.855469 C 146.777344 92.585938 147.003906 93.410156 147.011719 94.253906 C 147.019531 95.097656 146.804688 95.925781 146.394531 96.660156 L 157.75 113.34375 L 157.75 119.761719 C 165.65625 116.554688 176.253906 114.507812 187.910156 114.507812 C 199.566406 114.507812 210.164062 116.511719 218.070312 119.761719 L 218.070312 113.34375 L 229.5 96.542969 C 229.089844 95.808594 228.878906 94.976562 228.882812 94.136719 C 228.890625 93.292969 229.117188 92.46875 229.542969 91.738281 C 229.96875 91.011719 230.574219 90.40625 231.304688 89.988281 C 232.03125 89.566406 232.859375 89.34375 233.699219 89.339844 C 233.921875 89.320312 234.148438 89.320312 234.371094 89.339844 L 238.507812 83.382812 C 222.761719 84.953125 221.851562 90.285156 221.851562 90.285156 Z M 187.921875 94.660156 C 187.21875 94.660156 186.535156 94.453125 185.949219 94.0625 C 185.367188 93.671875 184.914062 93.117188 184.644531 92.46875 C 184.375 91.816406 184.304688 91.105469 184.441406 90.414062 C 184.578125 89.726562 184.917969 89.09375 185.414062 88.59375 C 185.910156 88.097656 186.542969 87.761719 187.230469 87.621094 C 187.917969 87.484375 188.628906 87.554688 189.277344 87.824219 C 189.925781 88.09375 190.480469 88.550781 190.871094 89.132812 C 191.261719 89.71875 191.46875 90.40625 191.46875 91.109375 C 191.46875 92.046875 191.097656 92.945312 190.4375 93.613281 C 189.777344 94.277344 188.878906 94.652344 187.941406 94.660156 Z M 187.921875 94.660156 " fill-opacity="1" fill-rule="nonzero"/></svg>