<svg xmlns="http://www.w3.org/2000/svg" xmlns:xlink="http://www.w3.org/1999/xlink" width="500" zoomAndPan="magnify" viewBox="0 0 375 374.999991" height="500" preserveAspectRatio="xMidYMid meet" version="1.0"><defs><clipPath id="df936c1449"><path d="M 97 344 L 107 344 L 107 356.96875 L 97 356.96875 Z M 97 344 " clip-rule="nonzero"/></clipPath><clipPath id="7dde7697c7"><path d="M 111 344 L 125 344 L 125 356.96875 L 111 356.96875 Z M 111 344 " clip-rule="nonzero"/></clipPath><clipPath id="531384a524"><path d="M 131 344 L 142 344 L 142 356.96875 L 131 356.96875 Z M 131 344 " clip-rule="nonzero"/></clipPath><clipPath id="7c9263f068"><path d="M 150 344 L 162 344 L 162 356.96875 L 150 356.96875 Z M 150 344 " clip-rule="nonzero"/></clipPath><clipPath id="6205390fe9"><path d="M 170 344 L 183 344 L 183 356.96875 L 170 356.96875 Z M 170 344 " clip-rule="nonzero"/></clipPath><clipPath id="097d4c5cd8"><path d="M 190 344 L 201 344 L 201 356.96875 L 190 356.96875 Z M 190 344 " clip-rule="nonzero"/></clipPath><clipPath id="61c53d8c71"><path d="M 206 344 L 218 344 L 218 356.96875 L 206 356.96875 Z M 206 344 " clip-rule="nonzero"/></clipPath><clipPath id="4b3da1912f"><path d="M 234 344 L 246 344 L 246 356.96875 L 234 356.96875 Z M 234 344 " clip-rule="nonzero"/></clipPath><clipPath id="86e75100c6"><path d="M 251 344 L 266 344 L 266 356.96875 L 251 356.96875 Z M 251 344 " clip-rule="nonzero"/></clipPath><clipPath id="d9564d6586"><path d="M 271 354 L 274 354 L 274 356.96875 L 271 356.96875 Z M 271 354 " clip-rule="nonzero"/></clipPath><clipPath id="efd800c6ca"><path d="M 40.445312 290 L 78 290 L 78 333 L 40.445312 333 Z M 40.445312 290 " clip-rule="nonzero"/></clipPath><clipPath id="6741772d15"><path d="M 126 11.21875 L 250 11.21875 L 250 55 L 126 55 Z M 126 11.21875 " clip-rule="nonzero"/></clipPath></defs><g clip-path="url(#df936c1449)"><path fill="#ffffff" d="M 97.800781 356.816406 L 97.800781 344.441406 L 99.570312 344.441406 L 99.570312 355.277344 L 106.265625 355.277344 L 106.265625 356.816406 Z M 97.800781 356.816406 " fill-opacity="1" fill-rule="nonzero"/></g><g clip-path="url(#7dde7697c7)"><path fill="#ffffff" d="M 111.714844 356.816406 L 117.320312 344.441406 L 119.042969 344.441406 L 124.660156 356.816406 L 122.804688 356.816406 L 117.8125 345.433594 L 118.519531 345.433594 L 113.589844 356.816406 Z M 114.105469 353.71875 L 114.582031 352.308594 L 121.542969 352.308594 L 122.054688 353.71875 Z M 114.105469 353.71875 " fill-opacity="1" fill-rule="nonzero"/></g><g clip-path="url(#531384a524)"><path fill="#ffffff" d="M 136.679688 356.957031 C 135.976562 356.996094 135.277344 356.890625 134.617188 356.652344 C 133.957031 356.414062 133.351562 356.039062 132.839844 355.558594 C 132.347656 355.007812 131.96875 354.359375 131.730469 353.664062 C 131.488281 352.960938 131.390625 352.21875 131.445312 351.476562 L 131.445312 344.441406 L 133.222656 344.441406 L 133.222656 351.402344 C 133.125 352.488281 133.453125 353.574219 134.136719 354.425781 C 134.851562 355.046875 135.765625 355.386719 136.710938 355.386719 C 137.65625 355.386719 138.570312 355.046875 139.285156 354.425781 C 139.96875 353.574219 140.296875 352.488281 140.199219 351.402344 L 140.199219 344.441406 L 141.945312 344.441406 L 141.945312 351.476562 C 142 352.21875 141.90625 352.957031 141.667969 353.660156 C 141.429688 354.359375 141.054688 355.007812 140.5625 355.558594 C 140.042969 356.046875 139.433594 356.421875 138.765625 356.660156 C 138.097656 356.902344 137.386719 357.003906 136.679688 356.957031 Z M 136.679688 356.957031 " fill-opacity="1" fill-rule="nonzero"/></g><g clip-path="url(#7c9263f068)"><path fill="#ffffff" d="M 150.828125 356.816406 L 150.828125 344.441406 L 152.28125 344.441406 L 160.449219 354.597656 L 159.695312 354.597656 L 159.695312 344.441406 L 161.460938 344.441406 L 161.460938 356.816406 L 160.011719 356.816406 L 151.832031 346.652344 L 152.597656 346.652344 L 152.597656 356.816406 Z M 150.828125 356.816406 " fill-opacity="1" fill-rule="nonzero"/></g><g clip-path="url(#6205390fe9)"><path fill="#ffffff" d="M 170.46875 356.816406 L 170.46875 344.441406 L 175.671875 344.441406 C 176.878906 344.417969 178.074219 344.683594 179.160156 345.214844 C 180.136719 345.703125 180.953125 346.460938 181.515625 347.398438 C 182.066406 348.386719 182.355469 349.496094 182.355469 350.628906 C 182.355469 351.757812 182.066406 352.871094 181.515625 353.855469 C 180.953125 354.792969 180.136719 355.550781 179.160156 356.039062 C 178.074219 356.570312 176.878906 356.835938 175.671875 356.816406 Z M 172.234375 355.277344 L 175.574219 355.277344 C 176.488281 355.296875 177.398438 355.101562 178.222656 354.699219 C 178.949219 354.328125 179.554688 353.761719 179.96875 353.0625 C 180.390625 352.320312 180.605469 351.480469 180.589844 350.628906 C 180.609375 349.773438 180.394531 348.933594 179.96875 348.195312 C 179.554688 347.492188 178.949219 346.929688 178.222656 346.566406 C 177.402344 346.15625 176.492188 345.953125 175.574219 345.976562 L 172.234375 345.976562 Z M 172.234375 355.277344 " fill-opacity="1" fill-rule="nonzero"/></g><g clip-path="url(#097d4c5cd8)"><path fill="#ffffff" d="M 190.347656 356.816406 L 190.347656 344.441406 L 195.167969 344.441406 C 196.117188 344.414062 197.0625 344.59375 197.9375 344.953125 C 198.664062 345.253906 199.28125 345.769531 199.707031 346.4375 C 200.113281 347.136719 200.324219 347.9375 200.324219 348.75 C 200.324219 349.5625 200.113281 350.359375 199.707031 351.0625 C 199.28125 351.722656 198.664062 352.242188 197.9375 352.539062 C 197.0625 352.898438 196.117188 353.074219 195.167969 353.050781 L 191.320312 353.050781 L 192.113281 352.230469 L 192.113281 356.816406 Z M 192.113281 352.449219 L 191.320312 351.578125 L 195.113281 351.578125 C 196.03125 351.644531 196.941406 351.386719 197.6875 350.84375 C 197.964844 350.578125 198.183594 350.257812 198.332031 349.90625 C 198.484375 349.550781 198.558594 349.175781 198.558594 348.789062 C 198.558594 348.40625 198.484375 348.023438 198.332031 347.671875 C 198.183594 347.316406 197.964844 347 197.6875 346.730469 C 196.9375 346.203125 196.027344 345.945312 195.113281 346.011719 L 191.320312 346.011719 L 192.113281 345.128906 Z M 198.65625 356.816406 L 195.515625 352.332031 L 197.402344 352.332031 L 200.589844 356.816406 Z M 198.65625 356.816406 " fill-opacity="1" fill-rule="nonzero"/></g><g clip-path="url(#61c53d8c71)"><path fill="#ffffff" d="M 211.300781 356.816406 L 211.300781 352.078125 L 211.703125 353.171875 L 206.390625 344.441406 L 208.277344 344.441406 L 212.75 351.816406 L 211.746094 351.816406 L 216.230469 344.441406 L 217.972656 344.441406 L 212.683594 353.171875 L 213.066406 352.078125 L 213.066406 356.816406 Z M 211.300781 356.816406 " fill-opacity="1" fill-rule="nonzero"/></g><g clip-path="url(#4b3da1912f)"><path fill="#ffffff" d="M 240.609375 356.957031 C 239.722656 356.960938 238.835938 356.804688 238.003906 356.488281 C 237.242188 356.1875 236.542969 355.738281 235.953125 355.167969 C 235.363281 354.597656 234.894531 353.914062 234.570312 353.160156 C 233.914062 351.535156 233.914062 349.71875 234.570312 348.09375 C 234.890625 347.34375 235.363281 346.664062 235.953125 346.097656 C 236.546875 345.519531 237.253906 345.066406 238.027344 344.765625 C 238.859375 344.449219 239.742188 344.292969 240.632812 344.296875 C 241.535156 344.289062 242.433594 344.457031 243.273438 344.789062 C 244.058594 345.097656 244.761719 345.59375 245.324219 346.230469 L 244.230469 347.320312 C 243.785156 346.84375 243.242188 346.472656 242.640625 346.230469 C 242.042969 345.976562 241.398438 345.851562 240.753906 345.859375 C 240.09375 345.851562 239.4375 345.976562 238.824219 346.21875 C 238.246094 346.441406 237.71875 346.773438 237.273438 347.199219 C 236.835938 347.632812 236.492188 348.144531 236.257812 348.71875 C 235.78125 349.9375 235.78125 351.292969 236.257812 352.515625 C 236.488281 353.085938 236.832031 353.605469 237.273438 354.035156 C 237.71875 354.460938 238.246094 354.792969 238.824219 355.011719 C 239.4375 355.257812 240.09375 355.382812 240.753906 355.375 C 241.398438 355.378906 242.039062 355.257812 242.640625 355.011719 C 243.242188 354.765625 243.78125 354.394531 244.230469 353.925781 L 245.324219 355.011719 C 244.761719 355.648438 244.058594 356.144531 243.273438 356.453125 C 242.425781 356.800781 241.523438 356.972656 240.609375 356.957031 Z M 240.609375 356.957031 " fill-opacity="1" fill-rule="nonzero"/></g><g clip-path="url(#86e75100c6)"><path fill="#ffffff" d="M 258.46875 356.957031 C 257.574219 356.964844 256.683594 356.800781 255.851562 356.476562 C 255.070312 356.175781 254.359375 355.722656 253.757812 355.144531 C 253.171875 354.574219 252.703125 353.890625 252.382812 353.140625 C 252.050781 352.339844 251.882812 351.488281 251.882812 350.628906 C 251.882812 349.765625 252.050781 348.914062 252.382812 348.117188 C 252.703125 347.363281 253.171875 346.683594 253.757812 346.109375 C 254.359375 345.53125 255.066406 345.078125 255.839844 344.777344 C 256.675781 344.453125 257.570312 344.289062 258.46875 344.296875 C 259.359375 344.292969 260.242188 344.449219 261.074219 344.765625 C 261.851562 345.066406 262.558594 345.519531 263.15625 346.097656 C 263.753906 346.660156 264.222656 347.34375 264.542969 348.09375 C 265.183594 349.722656 265.183594 351.53125 264.542969 353.160156 C 264.222656 353.914062 263.753906 354.59375 263.15625 355.15625 C 262.558594 355.738281 261.851562 356.1875 261.074219 356.488281 C 260.242188 356.804688 259.359375 356.964844 258.46875 356.957031 Z M 258.46875 355.382812 C 259.117188 355.394531 259.761719 355.273438 260.367188 355.027344 C 260.9375 354.804688 261.457031 354.464844 261.894531 354.035156 C 262.320312 353.59375 262.660156 353.082031 262.894531 352.515625 C 263.375 351.304688 263.375 349.953125 262.894531 348.738281 C 262.660156 348.175781 262.320312 347.660156 261.894531 347.222656 C 261.457031 346.789062 260.9375 346.453125 260.367188 346.230469 C 259.761719 345.984375 259.117188 345.863281 258.46875 345.867188 C 257.8125 345.863281 257.164062 345.984375 256.558594 346.230469 C 255.988281 346.453125 255.46875 346.789062 255.03125 347.222656 C 254.585938 347.667969 254.230469 348.203125 253.988281 348.78125 C 253.746094 349.367188 253.621094 349.996094 253.621094 350.628906 C 253.621094 351.261719 253.746094 351.886719 253.988281 352.46875 C 254.230469 353.054688 254.585938 353.585938 255.03125 354.035156 C 255.46875 354.464844 255.988281 354.804688 256.558594 355.027344 C 257.164062 355.273438 257.8125 355.390625 258.46875 355.382812 Z M 258.46875 355.382812 " fill-opacity="1" fill-rule="nonzero"/></g><g clip-path="url(#d9564d6586)"><path fill="#ffffff" d="M 272.816406 356.925781 C 272.65625 356.925781 272.5 356.898438 272.351562 356.835938 C 272.203125 356.773438 272.070312 356.683594 271.957031 356.566406 C 271.847656 356.453125 271.757812 356.320312 271.699219 356.167969 C 271.640625 356.019531 271.613281 355.863281 271.617188 355.703125 C 271.609375 355.542969 271.636719 355.382812 271.695312 355.234375 C 271.757812 355.085938 271.847656 354.949219 271.96875 354.839844 C 272.078125 354.730469 272.210938 354.644531 272.359375 354.585938 C 272.503906 354.527344 272.660156 354.5 272.816406 354.503906 C 272.96875 354.5 273.121094 354.523438 273.261719 354.582031 C 273.402344 354.640625 273.53125 354.730469 273.636719 354.839844 C 273.753906 354.949219 273.847656 355.085938 273.90625 355.234375 C 273.96875 355.382812 273.992188 355.542969 273.984375 355.703125 C 273.988281 355.863281 273.960938 356.023438 273.898438 356.175781 C 273.839844 356.324219 273.75 356.460938 273.636719 356.574219 C 273.53125 356.6875 273.40625 356.777344 273.265625 356.839844 C 273.125 356.898438 272.972656 356.925781 272.816406 356.925781 Z M 272.816406 356.925781 " fill-opacity="1" fill-rule="nonzero"/></g><path fill="#ffffff" d="M 275.15625 108.816406 C 275.15625 109.929688 274.828125 111.019531 274.214844 111.945312 C 273.597656 112.871094 272.71875 113.59375 271.695312 114.019531 C 270.667969 114.445312 269.535156 114.558594 268.445312 114.339844 C 267.355469 114.125 266.355469 113.589844 265.566406 112.800781 C 264.78125 112.015625 264.246094 111.011719 264.03125 109.921875 C 263.8125 108.832031 263.925781 107.699219 264.351562 106.671875 C 264.777344 105.644531 265.5 104.765625 266.425781 104.148438 C 267.351562 103.535156 268.4375 103.207031 269.550781 103.207031 C 271.035156 103.214844 272.457031 103.804688 273.507812 104.855469 C 274.558594 105.90625 275.148438 107.332031 275.15625 108.816406 Z M 275.15625 108.816406 " fill-opacity="1" fill-rule="nonzero"/><path fill="#ffffff" d="M 112.140625 108.816406 C 112.140625 109.925781 111.8125 111.011719 111.199219 111.933594 C 110.582031 112.855469 109.707031 113.574219 108.683594 114 C 107.65625 114.425781 106.53125 114.535156 105.441406 114.320312 C 104.355469 114.101562 103.355469 113.566406 102.574219 112.785156 C 101.789062 112 101.253906 111 101.039062 109.910156 C 100.820312 108.824219 100.933594 107.695312 101.359375 106.671875 C 101.78125 105.644531 102.5 104.769531 103.421875 104.152344 C 104.34375 103.535156 105.429688 103.207031 106.535156 103.207031 C 108.023438 103.210938 109.445312 103.800781 110.496094 104.855469 C 111.546875 105.90625 112.140625 107.332031 112.140625 108.816406 Z M 112.140625 108.816406 " fill-opacity="1" fill-rule="nonzero"/><g clip-path="url(#efd800c6ca)"><path fill="#ffffff" d="M 40.523438 328.550781 L 43.066406 319.820312 L 43.480469 319.820312 C 43.722656 321.421875 44.28125 322.957031 45.121094 324.34375 C 45.960938 325.726562 47.066406 326.929688 48.378906 327.882812 C 51.15625 330.03125 54.582031 331.164062 58.09375 331.101562 C 61.324219 331.257812 64.515625 330.34375 67.179688 328.507812 C 68.265625 327.75 69.148438 326.734375 69.753906 325.554688 C 70.355469 324.375 70.660156 323.066406 70.636719 321.738281 C 70.65625 320.636719 70.394531 319.546875 69.871094 318.574219 C 69.371094 317.671875 68.613281 316.941406 67.691406 316.480469 C 65.101562 315.425781 62.371094 314.769531 59.589844 314.527344 C 58.027344 314.308594 56.851562 314.132812 56.042969 313.992188 C 51.417969 313.203125 48.0625 311.957031 45.976562 310.246094 C 44.941406 309.421875 44.117188 308.367188 43.566406 307.160156 C 43.019531 305.957031 42.761719 304.640625 42.816406 303.316406 C 42.796875 301.53125 43.230469 299.769531 44.074219 298.199219 C 44.914062 296.625 46.140625 295.289062 47.636719 294.3125 C 50.847656 291.984375 55.097656 290.824219 60.382812 290.832031 C 63.046875 290.832031 65.703125 291.121094 68.300781 291.695312 C 70.765625 292.21875 73.15625 293.035156 75.421875 294.128906 L 73.121094 301.320312 L 72.554688 301.265625 C 72.355469 299.945312 71.898438 298.675781 71.207031 297.535156 C 70.511719 296.394531 69.601562 295.402344 68.519531 294.621094 C 66.082031 292.949219 63.171875 292.109375 60.222656 292.230469 C 57.34375 292.105469 54.5 292.914062 52.117188 294.53125 C 51.152344 295.152344 50.359375 296.003906 49.808594 297.007812 C 49.253906 298.011719 48.960938 299.136719 48.953125 300.285156 C 48.949219 301.398438 49.273438 302.492188 49.882812 303.425781 C 50.503906 304.371094 51.371094 305.125 52.390625 305.609375 C 54.140625 306.4375 57.414062 307.1875 62.207031 307.859375 L 66.042969 308.445312 C 69.796875 309.058594 72.5625 310.171875 74.34375 311.785156 C 75.242188 312.613281 75.949219 313.628906 76.414062 314.761719 C 76.875 315.894531 77.085938 317.113281 77.027344 318.335938 C 77.0625 320.320312 76.621094 322.285156 75.734375 324.0625 C 74.847656 325.839844 73.542969 327.375 71.933594 328.539062 C 68.546875 331.144531 64.078125 332.449219 58.53125 332.457031 C 55.230469 332.46875 51.941406 332.128906 48.714844 331.441406 C 45.863281 330.859375 43.109375 329.886719 40.523438 328.550781 Z M 40.523438 328.550781 " fill-opacity="1" fill-rule="nonzero"/></g><path fill="#ffffff" d="M 92.605469 317.625 L 92.605469 317.984375 C 92.605469 323.113281 92.90625 326.453125 93.5 328.003906 C 93.777344 328.753906 94.238281 329.421875 94.84375 329.941406 C 95.449219 330.460938 96.175781 330.820312 96.957031 330.984375 L 96.957031 331.453125 L 93.304688 331.320312 C 92.09375 331.320312 90.609375 331.320312 88.855469 331.320312 C 87.097656 331.320312 85.496094 331.320312 84.382812 331.320312 C 83.269531 331.320312 82.203125 331.398438 81.253906 331.453125 L 81.253906 330.984375 C 82.03125 330.835938 82.757812 330.492188 83.359375 329.980469 C 83.964844 329.46875 84.425781 328.8125 84.699219 328.070312 C 85.304688 326.519531 85.605469 323.039062 85.605469 317.625 L 85.605469 297.085938 C 85.6875 295.929688 85.386719 294.78125 84.753906 293.8125 C 84.027344 292.984375 83.042969 292.425781 81.960938 292.230469 L 81.960938 291.761719 C 83.207031 291.835938 84.417969 291.902344 85.59375 291.933594 C 86.773438 291.96875 87.949219 292 89.09375 292 C 90.242188 292 91.40625 292 92.597656 291.933594 C 93.785156 291.871094 95.007812 291.835938 96.25 291.761719 L 96.25 292.230469 C 95.167969 292.375 94.179688 292.917969 93.480469 293.757812 C 92.839844 294.746094 92.535156 295.910156 92.605469 297.085938 Z M 92.605469 317.625 " fill-opacity="1" fill-rule="nonzero"/><path fill="#ffffff" d="M 99.480469 331.453125 L 99.480469 330.984375 C 100.210938 330.832031 100.894531 330.5 101.464844 330.019531 C 102.039062 329.535156 102.480469 328.917969 102.75 328.222656 C 103.308594 326.804688 103.589844 323.277344 103.589844 317.625 L 103.589844 297.445312 C 103.644531 296.195312 103.332031 294.953125 102.6875 293.878906 C 102.382812 293.464844 101.992188 293.121094 101.539062 292.875 C 101.089844 292.628906 100.59375 292.484375 100.082031 292.449219 L 100.082031 291.96875 C 100.789062 291.96875 101.835938 291.96875 103.222656 291.96875 C 104.605469 291.96875 107.386719 291.96875 111.585938 291.96875 L 119.515625 291.96875 C 126.238281 291.96875 131.121094 292.695312 134.160156 294.148438 C 135.546875 294.734375 136.726562 295.722656 137.535156 296.988281 C 138.347656 298.257812 138.757812 299.738281 138.707031 301.242188 C 138.722656 302.640625 138.363281 304.015625 137.660156 305.222656 C 136.957031 306.429688 135.9375 307.421875 134.71875 308.097656 C 132.054688 309.765625 128.300781 310.65625 123.453125 310.773438 C 126.265625 311.003906 128.992188 311.859375 131.433594 313.28125 C 133.5 314.632812 135.128906 316.558594 136.113281 318.824219 C 136.605469 319.917969 137.203125 321.464844 138 323.441406 C 139.679688 327.808594 141.394531 330.214844 143.148438 330.667969 L 143.148438 331.320312 L 141.761719 331.320312 C 139.648438 331.265625 138.195312 331.234375 137.398438 331.234375 L 132.6875 331.234375 C 131.960938 329.445312 131.015625 326.824219 129.851562 323.375 C 129.136719 320.910156 128.164062 318.523438 126.953125 316.261719 C 125.90625 314.484375 124.351562 313.0625 122.492188 312.179688 C 119.902344 311.25 117.15625 310.84375 114.410156 310.988281 L 112.230469 310.988281 L 110.472656 311.066406 L 110.472656 317.484375 C 110.472656 322.941406 110.746094 326.410156 111.3125 327.925781 C 111.558594 328.6875 111.996094 329.371094 112.589844 329.90625 C 113.179688 330.445312 113.902344 330.816406 114.683594 330.984375 L 114.683594 331.453125 L 110.210938 331.320312 C 108.914062 331.320312 107.78125 331.320312 106.808594 331.320312 C 105.839844 331.320312 104.496094 331.320312 103.277344 331.320312 Z M 110.484375 309.625 L 112.195312 309.691406 L 113.199219 309.746094 C 116.109375 309.746094 118.402344 309.695312 120.082031 309.59375 C 121.453125 309.53125 122.820312 309.375 124.171875 309.125 C 126.042969 308.792969 127.753906 307.84375 129.023438 306.425781 C 130.246094 305.074219 130.914062 303.308594 130.890625 301.484375 C 130.964844 300.265625 130.695312 299.050781 130.117188 297.976562 C 129.539062 296.902344 128.675781 296.011719 127.617188 295.40625 C 125.4375 294.085938 121.925781 293.429688 117.191406 293.429688 C 116.101562 293.429688 115.011719 293.429688 113.996094 293.429688 C 112.980469 293.429688 111.816406 293.429688 110.539062 293.515625 Z M 110.484375 309.625 " fill-opacity="1" fill-rule="nonzero"/><path fill="#ffffff" d="M 164.164062 328.550781 L 166.714844 319.820312 L 167.128906 319.820312 C 167.367188 321.417969 167.925781 322.957031 168.761719 324.339844 C 169.601562 325.726562 170.707031 326.929688 172.015625 327.882812 C 174.792969 330.03125 178.222656 331.164062 181.730469 331.101562 C 184.960938 331.257812 188.15625 330.34375 190.816406 328.503906 C 191.90625 327.75 192.789062 326.738281 193.390625 325.554688 C 193.996094 324.375 194.296875 323.066406 194.273438 321.738281 C 194.292969 320.636719 194.03125 319.546875 193.511719 318.574219 C 193.027344 317.675781 192.285156 316.945312 191.382812 316.480469 C 188.789062 315.425781 186.054688 314.769531 183.269531 314.527344 C 181.71875 314.308594 180.53125 314.132812 179.726562 313.992188 C 175.070312 313.203125 171.691406 311.960938 169.582031 310.257812 C 168.542969 309.4375 167.714844 308.378906 167.164062 307.175781 C 166.613281 305.96875 166.355469 304.652344 166.410156 303.328125 C 166.394531 301.542969 166.828125 299.78125 167.671875 298.207031 C 168.515625 296.632812 169.742188 295.296875 171.238281 294.324219 C 174.445312 291.996094 178.691406 290.835938 183.976562 290.84375 C 186.640625 290.84375 189.296875 291.132812 191.894531 291.707031 C 194.375 292.222656 196.785156 293.035156 199.070312 294.128906 L 196.761719 301.320312 L 196.203125 301.265625 C 196.003906 299.945312 195.542969 298.675781 194.847656 297.535156 C 194.152344 296.394531 193.238281 295.402344 192.15625 294.621094 C 189.726562 292.949219 186.816406 292.109375 183.871094 292.230469 C 180.988281 292.105469 178.144531 292.914062 175.753906 294.53125 C 174.792969 295.152344 173.996094 296 173.445312 297.007812 C 172.894531 298.011719 172.597656 299.136719 172.59375 300.285156 C 172.59375 301.398438 172.917969 302.492188 173.53125 303.425781 C 174.148438 304.371094 175.011719 305.125 176.027344 305.609375 C 177.78125 306.4375 181.050781 307.1875 185.84375 307.859375 L 189.691406 308.445312 C 193.4375 309.058594 196.203125 310.171875 197.992188 311.785156 C 198.886719 312.617188 199.589844 313.632812 200.050781 314.765625 C 200.515625 315.894531 200.722656 317.113281 200.664062 318.335938 C 200.703125 320.320312 200.257812 322.285156 199.371094 324.0625 C 198.484375 325.839844 197.179688 327.375 195.570312 328.539062 C 192.183594 331.144531 187.71875 332.449219 182.179688 332.457031 C 178.878906 332.46875 175.589844 332.128906 172.363281 331.441406 C 169.507812 330.863281 166.75 329.886719 164.164062 328.550781 Z M 164.164062 328.550781 " fill-opacity="1" fill-rule="nonzero"/><path fill="#ffffff" d="M 242.195312 309.515625 L 242.195312 308.839844 C 242.195312 302.464844 241.832031 298.316406 241.105469 296.386719 C 240.742188 295.449219 240.191406 294.597656 239.484375 293.882812 C 238.78125 293.167969 237.9375 292.605469 237.003906 292.230469 L 237.003906 291.8125 L 238.78125 291.914062 C 240.710938 292.011719 242.054688 292.054688 242.6875 292.054688 C 244.0625 292.054688 246.144531 291.976562 248.925781 291.8125 L 249.097656 291.8125 L 249.097656 292.230469 C 248.125 292.628906 247.25 293.230469 246.53125 294 C 245.8125 294.769531 245.265625 295.683594 244.933594 296.683594 C 244.164062 298.8125 243.777344 303.089844 243.777344 309.515625 L 243.777344 315.375 C 243.777344 321.199219 242.355469 325.496094 239.511719 328.277344 C 236.671875 331.054688 232.273438 332.441406 226.328125 332.433594 C 219.9375 332.433594 215.34375 331.179688 212.542969 328.667969 C 209.742188 326.160156 208.34375 321.976562 208.34375 316.117188 C 208.34375 314.480469 208.34375 312.570312 208.34375 310.378906 C 208.34375 308.183594 208.410156 306.808594 208.410156 306.230469 L 208.410156 297.085938 C 208.492188 295.9375 208.210938 294.789062 207.601562 293.8125 C 206.929688 292.980469 205.988281 292.410156 204.941406 292.195312 L 204.941406 291.726562 C 206.128906 291.804688 207.296875 291.867188 208.453125 291.902344 C 209.609375 291.933594 210.742188 291.96875 211.867188 291.96875 C 212.988281 291.96875 214.136719 291.96875 215.292969 291.902344 C 216.445312 291.835938 217.636719 291.804688 218.8125 291.726562 L 218.8125 292.195312 C 217.761719 292.371094 216.804688 292.914062 216.121094 293.734375 C 215.515625 294.714844 215.226562 295.859375 215.292969 297.007812 L 215.292969 310.335938 C 215.292969 313.609375 215.390625 316.261719 215.5625 318.234375 C 215.671875 319.828125 215.949219 321.40625 216.394531 322.941406 C 217.121094 325.21875 218.652344 327.160156 220.699219 328.394531 C 223.003906 329.769531 225.652344 330.453125 228.335938 330.371094 C 232.828125 330.371094 236.253906 329.113281 238.609375 326.597656 C 240.964844 324.078125 242.160156 320.449219 242.195312 315.703125 Z M 242.195312 309.515625 " fill-opacity="1" fill-rule="nonzero"/><path fill="#ffffff" d="M 249.777344 331.453125 L 249.777344 330.984375 C 250.5 330.835938 251.175781 330.511719 251.746094 330.042969 C 252.316406 329.570312 252.765625 328.96875 253.046875 328.289062 C 253.613281 326.902344 253.910156 323.355469 253.910156 317.625 L 253.910156 297.445312 C 253.996094 296.203125 253.714844 294.960938 253.101562 293.878906 C 252.789062 293.460938 252.386719 293.113281 251.929688 292.859375 C 251.46875 292.609375 250.964844 292.457031 250.441406 292.414062 L 250.441406 291.933594 L 258.785156 291.933594 C 259.875 291.933594 261.488281 291.933594 263.519531 291.871094 C 265.546875 291.804688 267.019531 291.816406 267.878906 291.816406 C 271.4375 291.734375 274.992188 292.046875 278.480469 292.742188 C 281.03125 293.304688 283.457031 294.347656 285.625 295.808594 C 288.0625 297.425781 290.058594 299.628906 291.425781 302.214844 C 292.769531 304.847656 293.453125 307.769531 293.410156 310.726562 C 293.433594 313.652344 292.863281 316.554688 291.730469 319.25 C 290.652344 321.84375 289.023438 324.167969 286.953125 326.0625 C 284.929688 327.917969 282.5 329.273438 279.855469 330.011719 C 276.289062 330.90625 272.621094 331.3125 268.949219 331.210938 L 257.933594 331.210938 C 256.023438 331.210938 254.464844 331.210938 253.277344 331.210938 C 252.089844 331.210938 250.910156 331.398438 249.777344 331.453125 Z M 260.746094 293.507812 L 260.746094 317.625 C 260.746094 323.800781 261.164062 327.449219 262 328.539062 C 262.839844 329.628906 265.121094 330.175781 268.851562 330.175781 C 274.152344 330.175781 278.246094 328.554688 281.128906 325.308594 C 284.015625 322.0625 285.472656 317.421875 285.492188 311.382812 C 285.492188 305.109375 284.0625 300.523438 281.195312 297.621094 C 278.332031 294.71875 273.789062 293.261719 267.5625 293.253906 C 265.949219 293.253906 264.640625 293.253906 263.660156 293.320312 C 262.679688 293.386719 261.675781 293.429688 260.746094 293.507812 Z M 260.746094 293.507812 " fill-opacity="1" fill-rule="nonzero"/><path fill="#ffffff" d="M 297.335938 328.550781 L 299.875 319.820312 L 300.289062 319.820312 C 300.535156 321.421875 301.089844 322.957031 301.933594 324.34375 C 302.773438 325.726562 303.878906 326.929688 305.1875 327.882812 C 307.96875 330.03125 311.394531 331.164062 314.90625 331.101562 C 318.136719 331.257812 321.328125 330.34375 323.988281 328.503906 C 325.074219 327.75 325.960938 326.734375 326.5625 325.554688 C 327.164062 324.375 327.46875 323.0625 327.445312 321.738281 C 327.464844 320.636719 327.199219 319.546875 326.671875 318.574219 C 326.191406 317.675781 325.449219 316.945312 324.546875 316.480469 C 321.957031 315.425781 319.226562 314.769531 316.441406 314.527344 C 314.882812 314.308594 313.707031 314.132812 312.898438 313.992188 C 308.238281 313.203125 304.851562 311.960938 302.746094 310.257812 C 301.710938 309.433594 300.882812 308.375 300.335938 307.171875 C 299.785156 305.96875 299.527344 304.652344 299.582031 303.328125 C 299.5625 301.542969 299.996094 299.78125 300.839844 298.207031 C 301.683594 296.632812 302.90625 295.300781 304.402344 294.324219 C 307.617188 291.996094 311.867188 290.835938 317.152344 290.84375 C 319.8125 290.84375 322.46875 291.132812 325.070312 291.707031 C 327.546875 292.222656 329.953125 293.035156 332.234375 294.128906 L 329.933594 301.320312 L 329.367188 301.265625 C 329.167969 299.945312 328.707031 298.675781 328.015625 297.535156 C 327.324219 296.394531 326.410156 295.402344 325.332031 294.621094 C 322.894531 292.949219 319.984375 292.109375 317.03125 292.230469 C 314.152344 292.105469 311.3125 292.914062 308.929688 294.53125 C 307.964844 295.152344 307.171875 296 306.617188 297.007812 C 306.066406 298.011719 305.773438 299.136719 305.765625 300.285156 C 305.761719 301.398438 306.082031 302.492188 306.691406 303.425781 C 307.3125 304.371094 308.179688 305.125 309.199219 305.609375 C 310.945312 306.4375 314.238281 307.191406 319.015625 307.859375 L 322.855469 308.445312 C 326.605469 309.058594 329.398438 310.171875 331.15625 311.785156 C 332.054688 312.613281 332.761719 313.628906 333.222656 314.761719 C 333.6875 315.894531 333.898438 317.113281 333.835938 318.335938 C 333.875 320.320312 333.429688 322.285156 332.542969 324.0625 C 331.65625 325.839844 330.355469 327.375 328.746094 328.539062 C 325.347656 331.144531 320.882812 332.449219 315.339844 332.457031 C 312.042969 332.46875 308.753906 332.128906 305.527344 331.441406 C 302.675781 330.859375 299.917969 329.886719 297.335938 328.550781 Z M 297.335938 328.550781 " fill-opacity="1" fill-rule="nonzero"/><path fill="#ffffff" d="M 188.039062 113.617188 C 174.503906 114.351562 167.972656 116.980469 167.972656 116.980469 C 181.375 119.164062 188.039062 133.832031 188.039062 133.832031 C 188.039062 133.832031 194.703125 119.207031 208.105469 116.980469 C 208.105469 116.980469 201.574219 114.351562 188.039062 113.617188 Z M 188.039062 113.617188 " fill-opacity="1" fill-rule="nonzero"/><path fill="#ffffff" d="M 182.433594 260.363281 C 182.433594 261.472656 182.761719 262.554688 183.378906 263.476562 C 183.992188 264.402344 184.867188 265.121094 185.894531 265.542969 C 186.917969 265.96875 188.042969 266.078125 189.132812 265.863281 C 190.21875 265.648438 191.21875 265.113281 192.003906 264.328125 C 192.785156 263.542969 193.320312 262.542969 193.535156 261.457031 C 193.753906 260.367188 193.640625 259.238281 193.21875 258.214844 C 192.792969 257.191406 192.074219 256.3125 191.152344 255.699219 C 190.230469 255.082031 189.148438 254.753906 188.039062 254.753906 C 186.550781 254.753906 185.125 255.34375 184.074219 256.394531 C 183.023438 257.449219 182.433594 258.875 182.433594 260.363281 Z M 182.433594 260.363281 " fill-opacity="1" fill-rule="nonzero"/><path fill="#ffffff" d="M 186.9375 279.691406 L 188.027344 280.082031 L 189.117188 279.691406 C 206.949219 273.296875 223.324219 263.398438 237.277344 250.582031 C 238.214844 249.71875 239.144531 248.84375 240.058594 247.964844 C 240.988281 247.070312 241.890625 246.164062 242.796875 245.234375 C 246.054688 241.902344 249.140625 238.417969 252.054688 234.78125 C 252.9375 233.6875 253.8125 232.597656 254.652344 231.507812 C 255.492188 230.414062 256.429688 229.117188 257.289062 227.894531 C 263.328125 219.335938 268.402344 210.132812 272.417969 200.457031 C 271.988281 199.167969 271.429688 197.921875 270.75 196.746094 C 270.015625 195.527344 269.160156 194.386719 268.195312 193.34375 C 262.929688 207.460938 255.34375 220.597656 245.753906 232.214844 C 244.957031 233.175781 244.148438 234.148438 243.320312 235.097656 C 242.492188 236.046875 241.675781 236.953125 240.824219 237.871094 C 237.945312 241 234.902344 243.980469 231.726562 246.828125 C 230.832031 247.636719 229.917969 248.421875 229 249.199219 C 228.085938 249.972656 227.167969 250.734375 226.242188 251.488281 C 214.777344 260.730469 201.882812 268.042969 188.070312 273.140625 C 174.257812 268.042969 161.367188 260.730469 149.902344 251.488281 C 148.972656 250.734375 148.058594 249.972656 147.140625 249.199219 C 146.226562 248.421875 145.308594 247.636719 144.414062 246.828125 C 141.242188 243.980469 138.199219 241 135.320312 237.871094 C 134.480469 236.953125 133.640625 236.035156 132.820312 235.097656 C 132.003906 234.160156 131.1875 233.175781 130.390625 232.214844 C 120.804688 220.59375 113.21875 207.457031 107.945312 193.34375 C 106.957031 194.382812 106.085938 195.523438 105.339844 196.746094 C 104.644531 197.914062 104.078125 199.148438 103.648438 200.4375 C 107.660156 210.109375 112.730469 219.308594 118.765625 227.863281 C 119.625 229.082031 120.507812 230.285156 121.402344 231.472656 C 122.296875 232.664062 123.117188 233.65625 124 234.746094 C 126.90625 238.386719 129.996094 241.875 133.269531 245.214844 C 134.164062 246.128906 135.078125 247.035156 136.007812 247.929688 C 136.933594 248.828125 137.839844 249.6875 138.777344 250.550781 C 152.730469 263.375 169.105469 273.28125 186.9375 279.691406 Z M 186.9375 279.691406 " fill-opacity="1" fill-rule="nonzero"/><path fill="#ffffff" d="M 323.457031 272.050781 C 285.394531 269.703125 249.296875 257.863281 248.980469 257.785156 C 248.519531 257.628906 248.027344 257.601562 247.554688 257.703125 C 247.078125 257.804688 246.640625 258.035156 246.285156 258.363281 C 235.542969 268.1875 211.714844 278.457031 211.476562 278.566406 C 211.148438 278.707031 210.847656 278.914062 210.601562 279.175781 C 210.351562 279.433594 210.15625 279.738281 210.023438 280.070312 C 209.894531 280.40625 209.828125 280.761719 209.835938 281.121094 C 209.84375 281.480469 209.917969 281.832031 210.0625 282.160156 C 210.207031 282.492188 210.414062 282.789062 210.671875 283.035156 C 210.929688 283.285156 211.234375 283.480469 211.566406 283.613281 C 211.902344 283.746094 212.257812 283.808594 212.617188 283.800781 C 212.972656 283.796875 213.328125 283.71875 213.65625 283.574219 C 214.628906 283.160156 236.984375 273.546875 248.804688 263.4375 C 253.082031 264.769531 266.09375 268.644531 283.039062 272.050781 L 245.554688 272.050781 C 244.832031 272.050781 244.140625 272.335938 243.628906 272.847656 C 243.117188 273.359375 242.828125 274.054688 242.828125 274.777344 C 242.828125 275.503906 243.117188 276.195312 243.628906 276.707031 C 244.140625 277.21875 244.832031 277.507812 245.554688 277.507812 L 323.292969 277.507812 C 324.015625 277.53125 324.71875 277.265625 325.246094 276.769531 C 325.773438 276.273438 326.082031 275.589844 326.105469 274.867188 C 326.128906 274.140625 325.863281 273.4375 325.371094 272.910156 C 324.875 272.382812 324.191406 272.074219 323.46875 272.050781 Z M 323.457031 272.050781 " fill-opacity="1" fill-rule="nonzero"/><path fill="#ffffff" d="M 164.601562 278.597656 C 164.359375 278.488281 140.53125 268.242188 129.789062 258.398438 C 129.433594 258.066406 128.996094 257.835938 128.523438 257.734375 C 128.046875 257.632812 127.554688 257.664062 127.09375 257.820312 C 126.734375 257.863281 90.691406 269.691406 52.621094 272.050781 C 51.894531 272.074219 51.210938 272.382812 50.71875 272.910156 C 50.222656 273.4375 49.957031 274.140625 49.980469 274.867188 C 50.003906 275.589844 50.3125 276.273438 50.839844 276.769531 C 51.367188 277.265625 52.070312 277.53125 52.792969 277.507812 L 130.53125 277.507812 C 131.253906 277.507812 131.949219 277.21875 132.457031 276.707031 C 132.96875 276.195312 133.257812 275.503906 133.257812 274.777344 C 133.257812 274.054688 132.96875 273.359375 132.457031 272.847656 C 131.949219 272.335938 131.253906 272.050781 130.53125 272.050781 L 93.070312 272.050781 C 110.015625 268.644531 123.027344 264.769531 127.300781 263.4375 C 139.125 273.546875 161.480469 283.160156 162.453125 283.574219 C 162.796875 283.726562 163.167969 283.804688 163.542969 283.804688 C 164.171875 283.808594 164.785156 283.59375 165.277344 283.199219 C 165.765625 282.804688 166.105469 282.25 166.234375 281.632812 C 166.363281 281.015625 166.273438 280.371094 165.980469 279.8125 C 165.691406 279.253906 165.214844 278.8125 164.632812 278.566406 Z M 164.601562 278.597656 " fill-opacity="1" fill-rule="nonzero"/><path fill="#ffffff" d="M 82.765625 88.800781 L 94.261719 166.507812 C 94.972656 171.34375 95.933594 176.140625 97.140625 180.878906 C 98.886719 179.1875 100.773438 177.644531 102.78125 176.273438 C 101.960938 172.738281 101.273438 169.167969 100.730469 165.546875 L 90.347656 95.351562 L 107.589844 95.351562 C 110.574219 95.34375 113.527344 94.710938 116.257812 93.496094 C 118.984375 92.28125 121.429688 90.507812 123.433594 88.289062 C 125.4375 86.074219 126.953125 83.464844 127.890625 80.625 C 128.824219 77.785156 129.160156 74.785156 128.867188 71.808594 C 140.164062 71.246094 151.230469 68.402344 161.402344 63.449219 C 171.570312 58.492188 180.632812 51.527344 188.042969 42.976562 C 195.445312 51.527344 204.503906 58.488281 214.667969 63.445312 C 224.832031 68.398438 235.890625 71.246094 247.183594 71.808594 C 246.894531 74.785156 247.226562 77.785156 248.160156 80.625 C 249.097656 83.464844 250.613281 86.074219 252.617188 88.289062 C 254.621094 90.507812 257.066406 92.28125 259.792969 93.496094 C 262.523438 94.710938 265.476562 95.34375 268.460938 95.351562 L 285.691406 95.351562 L 275.3125 165.546875 C 274.777344 169.167969 274.078125 172.738281 273.261719 176.273438 C 275.269531 177.640625 277.15625 179.183594 278.898438 180.878906 C 280.105469 176.140625 281.066406 171.34375 281.777344 166.507812 L 293.273438 88.800781 L 268.460938 88.800781 C 266.132812 88.796875 263.839844 88.25 261.761719 87.195312 C 259.6875 86.144531 257.886719 84.617188 256.507812 82.742188 C 255.128906 80.867188 254.207031 78.691406 253.820312 76.394531 C 253.4375 74.097656 253.59375 71.742188 254.285156 69.519531 L 255.679688 65.011719 L 250.96875 65.285156 L 249.878906 65.285156 C 238.4375 65.011719 227.195312 62.230469 216.945312 57.140625 C 206.695312 52.046875 197.683594 44.769531 190.550781 35.816406 L 188 32.628906 L 185.445312 35.816406 C 178.3125 44.761719 169.304688 52.035156 159.0625 57.128906 C 148.820312 62.21875 137.585938 65.003906 126.152344 65.285156 C 125.464844 65.285156 125.058594 65.285156 125.058594 65.285156 L 120.339844 65 L 121.746094 69.519531 C 122.4375 71.742188 122.597656 74.097656 122.210938 76.398438 C 121.828125 78.695312 120.90625 80.871094 119.527344 82.746094 C 118.148438 84.625 116.347656 86.148438 114.269531 87.199219 C 112.191406 88.253906 109.894531 88.800781 107.566406 88.800781 Z M 82.765625 88.800781 " fill-opacity="1" fill-rule="nonzero"/><path fill="#ffffff" d="M 138.144531 201.59375 C 138.148438 200.457031 137.871094 199.335938 137.339844 198.332031 C 136.800781 197.332031 136.027344 196.480469 135.078125 195.851562 C 134.128906 195.226562 133.042969 194.847656 131.910156 194.746094 C 130.777344 194.648438 129.640625 194.832031 128.597656 195.285156 C 127.558594 195.738281 126.644531 196.445312 125.945312 197.339844 C 125.242188 198.234375 124.777344 199.289062 124.585938 200.40625 C 124.394531 201.527344 124.488281 202.679688 124.851562 203.753906 C 125.21875 204.832031 125.847656 205.796875 126.679688 206.570312 C 126.746094 207.546875 126.910156 208.515625 127.171875 209.460938 C 127.785156 211.476562 128.785156 213.347656 130.125 214.972656 C 131.464844 216.597656 133.109375 217.941406 134.96875 218.921875 C 137.53125 220.246094 140.378906 220.917969 143.257812 220.875 C 146.46875 220.859375 149.640625 220.207031 152.597656 218.957031 C 155.554688 217.707031 158.238281 215.886719 160.488281 213.597656 C 164.777344 208.914062 166.105469 202.78125 164.460938 195.382812 C 163.367188 190.449219 160 183.378906 150.183594 177.582031 C 144.117188 174.101562 137.230469 172.3125 130.238281 172.410156 C 125.429688 172.425781 120.648438 173.160156 116.058594 174.59375 C 113.175781 175.539062 110.398438 176.789062 107.78125 178.324219 C 107.148438 178.695312 106.496094 179.101562 105.851562 179.535156 C 105.207031 179.972656 104.585938 180.398438 103.953125 180.878906 C 101.96875 182.347656 100.140625 184.019531 98.5 185.867188 C 97.933594 186.511719 97.410156 187.199219 96.855469 187.917969 C 96.296875 188.636719 95.761719 189.414062 95.285156 190.222656 C 95.207031 190.351562 95.121094 190.472656 95.03125 190.613281 C 92.390625 195.175781 90.894531 200.316406 90.679688 205.585938 C 90.460938 210.855469 91.527344 216.101562 93.789062 220.867188 C 98.554688 230.546875 110.203125 238.710938 125.417969 243.292969 C 122.007812 239.460938 118.800781 235.453125 115.808594 231.289062 C 108.542969 227.523438 103.179688 222.753906 100.539062 217.492188 C 98.078125 212.246094 97.515625 206.304688 98.949219 200.6875 C 99.222656 199.566406 99.589844 198.472656 100.039062 197.414062 C 100.417969 196.5 100.855469 195.613281 101.359375 194.761719 C 101.359375 194.664062 101.457031 194.566406 101.511719 194.476562 C 102.785156 192.355469 104.363281 190.429688 106.199219 188.769531 C 106.789062 188.222656 107.390625 187.679688 107.988281 187.242188 C 108.589844 186.804688 109.230469 186.3125 109.855469 185.898438 C 112.472656 184.167969 115.3125 182.796875 118.292969 181.816406 C 122.121094 180.652344 126.105469 180.0625 130.105469 180.070312 C 135.777344 179.949219 141.375 181.363281 146.3125 184.164062 C 153.761719 188.53125 156.246094 193.59375 157.011719 197.042969 C 157.707031 200.164062 158.230469 204.746094 154.828125 208.4375 C 151.765625 211.496094 147.621094 213.222656 143.292969 213.238281 C 141.65625 213.261719 140.039062 212.886719 138.578125 212.144531 C 136.722656 211.15625 135.304688 209.507812 134.609375 207.519531 C 135.671875 206.9375 136.5625 206.078125 137.183594 205.035156 C 137.804688 203.996094 138.136719 202.804688 138.144531 201.59375 Z M 138.144531 201.59375 " fill-opacity="1" fill-rule="nonzero"/><path fill="#ffffff" d="M 183.796875 178.445312 C 178.246094 175.390625 172.269531 172.695312 166.542969 170.109375 C 158.960938 166.769531 151.183594 163.90625 143.25 161.53125 C 132.679688 158.253906 126.300781 156.191406 123.0625 150.082031 C 122.039062 148.050781 121.4375 145.835938 121.289062 143.566406 C 121.140625 141.296875 121.453125 139.023438 122.199219 136.875 C 124.730469 129.507812 132.765625 122.25 142.082031 122.25 C 142.460938 122.25 142.824219 122.25 143.171875 122.25 C 148.625 122.613281 155.386719 125.527344 157.925781 131.125 C 158.429688 132.214844 160.6875 137.933594 156.554688 142.933594 C 154.578125 145.199219 151.933594 146.785156 149.007812 147.460938 C 148.4375 146.15625 147.472656 145.0625 146.25 144.335938 C 145.027344 143.605469 143.609375 143.273438 142.191406 143.390625 C 140.773438 143.507812 139.429688 144.066406 138.34375 144.984375 C 137.257812 145.90625 136.484375 147.140625 136.132812 148.519531 C 135.785156 149.902344 135.875 151.355469 136.390625 152.683594 C 136.90625 154.007812 137.824219 155.140625 139.015625 155.917969 C 140.207031 156.699219 141.613281 157.085938 143.035156 157.027344 C 144.453125 156.96875 145.824219 156.46875 146.945312 155.59375 C 151.035156 155.132812 157.730469 153.484375 162.429688 147.800781 C 169.464844 139.296875 165.703125 129.792969 164.886719 127.96875 C 160.761719 118.878906 150.882812 115.105469 143.664062 114.632812 C 143.085938 114.632812 142.515625 114.578125 141.949219 114.578125 C 128.765625 114.578125 118.285156 124.542969 114.925781 134.367188 C 113.839844 137.5 113.398438 140.820312 113.628906 144.128906 C 113.859375 147.4375 114.757812 150.664062 116.265625 153.617188 C 120.957031 162.5 129.355469 165.140625 140.902344 168.785156 C 148.570312 171.085938 156.082031 173.863281 163.402344 177.101562 C 167.917969 179.144531 172.605469 181.261719 177.054688 183.550781 C 179.183594 181.699219 181.4375 179.992188 183.796875 178.445312 Z M 183.796875 178.445312 " fill-opacity="1" fill-rule="nonzero"/><path fill="#ffffff" d="M 183.925781 240.050781 C 184.652344 239.671875 185.347656 239.28125 186.019531 238.875 C 186.707031 238.46875 187.371094 238.042969 188.035156 237.605469 C 188.929688 237.007812 189.8125 236.394531 190.675781 235.730469 C 191.964844 234.726562 193.195312 233.65625 194.371094 232.523438 C 194.917969 232.003906 195.453125 231.46875 195.976562 230.917969 C 196.488281 230.382812 196.988281 229.824219 197.480469 229.257812 C 203.664062 222.109375 208.300781 212.453125 206.140625 202.464844 C 204.90625 197.253906 202.175781 192.515625 198.289062 188.835938 C 195.964844 190.085938 193.710938 191.464844 191.535156 192.960938 C 195.179688 196.234375 197.773438 199.902344 198.679688 204.082031 C 200.230469 211.273438 196.5 218.988281 191.144531 224.902344 C 190.652344 225.449219 190.140625 225.996094 189.628906 226.488281 C 189.117188 226.976562 188.539062 227.5 188.035156 227.980469 C 187.535156 228.460938 186.695312 229.148438 185.996094 229.683594 C 184.636719 230.734375 183.199219 231.683594 181.699219 232.523438 C 181.035156 232.902344 180.367188 233.265625 179.671875 233.613281 C 178.972656 233.960938 178.296875 234.277344 177.578125 234.59375 C 169.390625 237.949219 160.609375 239.605469 151.761719 239.460938 C 148.640625 239.460938 145.519531 239.28125 142.417969 238.929688 C 145.28125 241.785156 148.28125 244.507812 151.414062 247.089844 L 152.058594 247.089844 C 162.972656 247.101562 174.304688 245.136719 183.925781 240.050781 Z M 183.925781 240.050781 " fill-opacity="1" fill-rule="nonzero"/><path fill="#ffffff" d="M 260.234375 231.234375 C 257.246094 235.402344 254.039062 239.410156 250.625 243.238281 C 265.894531 238.65625 277.53125 230.492188 282.253906 220.8125 C 284.511719 216.046875 285.574219 210.800781 285.355469 205.53125 C 285.136719 200.261719 283.644531 195.121094 281 190.558594 C 280.921875 190.417969 280.824219 190.296875 280.746094 190.167969 C 280.246094 189.359375 279.722656 188.59375 279.175781 187.863281 C 278.632812 187.132812 278.085938 186.457031 277.53125 185.8125 C 275.890625 183.964844 274.066406 182.292969 272.078125 180.824219 C 271.445312 180.34375 270.8125 179.898438 270.179688 179.480469 C 269.535156 179.046875 268.882812 178.640625 268.25 178.269531 C 265.632812 176.734375 262.855469 175.484375 259.972656 174.539062 C 255.382812 173.101562 250.601562 172.367188 245.792969 172.355469 C 238.824219 172.289062 231.960938 174.09375 225.925781 177.582031 C 216.109375 183.367188 212.738281 190.449219 211.648438 195.382812 C 210 202.78125 211.332031 208.914062 215.617188 213.597656 C 220.152344 218.214844 226.335938 220.84375 232.804688 220.898438 C 235.683594 220.9375 238.527344 220.265625 241.082031 218.945312 C 242.941406 217.960938 244.589844 216.617188 245.925781 214.996094 C 247.265625 213.371094 248.269531 211.496094 248.878906 209.484375 C 249.144531 208.539062 249.308594 207.570312 249.371094 206.589844 C 250.429688 205.609375 251.148438 204.320312 251.425781 202.902344 C 251.703125 201.488281 251.523438 200.019531 250.917969 198.710938 C 250.308594 197.402344 249.300781 196.320312 248.039062 195.625 C 246.777344 194.925781 245.328125 194.644531 243.898438 194.820312 C 242.464844 195 241.128906 195.625 240.078125 196.613281 C 239.023438 197.597656 238.3125 198.894531 238.042969 200.3125 C 237.769531 201.726562 237.957031 203.195312 238.570312 204.5 C 239.1875 205.804688 240.199219 206.878906 241.464844 207.574219 C 240.769531 209.558594 239.351562 211.210938 237.496094 212.199219 C 236.035156 212.945312 234.414062 213.316406 232.773438 213.292969 C 228.445312 213.28125 224.300781 211.554688 221.246094 208.492188 C 217.484375 204.363281 218.691406 198.898438 219.0625 197.097656 C 219.828125 193.648438 222.335938 188.605469 229.761719 184.21875 C 234.660156 181.4375 240.214844 180.019531 245.847656 180.113281 C 249.851562 180.109375 253.832031 180.699219 257.660156 181.863281 C 260.640625 182.839844 263.480469 184.214844 266.101562 185.941406 C 266.722656 186.359375 267.34375 186.792969 267.964844 187.285156 C 268.585938 187.777344 269.164062 188.265625 269.753906 188.800781 C 271.585938 190.46875 273.167969 192.394531 274.445312 194.519531 L 274.609375 194.804688 C 275.101562 195.660156 275.539062 196.546875 275.917969 197.457031 C 276.367188 198.515625 276.730469 199.613281 277.007812 200.730469 C 278.441406 206.347656 277.875 212.289062 275.414062 217.539062 C 272.820312 222.699219 267.496094 227.46875 260.234375 231.234375 Z M 260.234375 231.234375 " fill-opacity="1" fill-rule="nonzero"/><path fill="#ffffff" d="M 224.292969 239.460938 C 215.453125 239.597656 206.679688 237.9375 198.5 234.585938 C 196.886719 236.234375 195.164062 237.769531 193.339844 239.179688 C 192.949219 239.484375 192.542969 239.757812 192.152344 240.050781 C 201.769531 245.136719 213.101562 247.101562 223.996094 247.101562 L 224.640625 247.101562 C 227.773438 244.511719 230.773438 241.792969 233.636719 238.949219 C 230.535156 239.292969 227.414062 239.464844 224.292969 239.460938 Z M 224.292969 239.460938 " fill-opacity="1" fill-rule="nonzero"/><path fill="#ffffff" d="M 184.539062 192.960938 C 185.082031 192.457031 185.628906 191.976562 186.238281 191.507812 C 186.847656 191.039062 187.417969 190.570312 188.039062 190.121094 C 190.230469 188.539062 192.515625 187.082031 194.875 185.757812 L 196.9375 184.613281 C 197.625 184.242188 198.324219 183.878906 199.03125 183.519531 C 203.46875 181.226562 208.160156 179.15625 212.675781 177.070312 C 219.980469 173.855469 227.480469 171.097656 235.128906 168.820312 C 246.699219 165.175781 255.066406 162.535156 259.765625 153.648438 C 261.273438 150.695312 262.167969 147.46875 262.394531 144.160156 C 262.625 140.851562 262.183594 137.53125 261.097656 134.398438 C 257.738281 124.578125 247.222656 114.613281 234.050781 114.613281 C 233.492188 114.613281 232.960938 114.613281 232.359375 114.667969 C 225.140625 115.136719 215.257812 118.914062 211.136719 128.003906 C 210.320312 129.824219 206.566406 139.34375 213.589844 147.832031 C 218.289062 153.519531 225 155.167969 229.078125 155.625 C 230.199219 156.496094 231.5625 156.996094 232.980469 157.050781 C 234.402344 157.109375 235.800781 156.722656 236.988281 155.945312 C 238.175781 155.167969 239.09375 154.035156 239.609375 152.710938 C 240.125 151.390625 240.210938 149.9375 239.863281 148.558594 C 239.515625 147.183594 238.746094 145.949219 237.660156 145.03125 C 236.578125 144.113281 235.234375 143.558594 233.820312 143.441406 C 232.40625 143.320312 230.988281 143.648438 229.769531 144.375 C 228.550781 145.105469 227.585938 146.195312 227.015625 147.496094 C 224.085938 146.816406 221.445312 145.230469 219.46875 142.964844 C 215.347656 137.96875 217.605469 132.25 218.09375 131.15625 C 220.648438 125.527344 227.34375 122.644531 232.851562 122.285156 L 234.007812 122.285156 C 243.34375 122.285156 251.359375 129.542969 253.878906 136.910156 C 254.625 139.054688 254.933594 141.332031 254.785156 143.597656 C 254.636719 145.867188 254.035156 148.082031 253.015625 150.113281 C 249.742188 156.226562 243.398438 158.234375 232.828125 161.5625 C 224.90625 163.925781 217.136719 166.78125 209.566406 170.109375 C 203.839844 172.695312 197.851562 175.390625 192.3125 178.445312 C 191.582031 178.847656 190.875 179.253906 190.132812 179.667969 C 189.390625 180.082031 188.726562 180.496094 188.027344 180.933594 C 185.648438 182.394531 183.363281 184.003906 181.191406 185.757812 C 180.589844 186.25 179.988281 186.75 179.421875 187.261719 C 178.855469 187.777344 178.332031 188.300781 177.777344 188.835938 C 173.886719 192.515625 171.160156 197.253906 169.921875 202.464844 C 167.742188 212.453125 172.398438 222.109375 178.582031 229.257812 C 180.269531 228.382812 181.878906 227.363281 183.390625 226.214844 C 183.925781 225.796875 184.484375 225.339844 184.984375 224.882812 C 179.652344 218.96875 175.898438 211.25 177.449219 204.058594 C 178.300781 199.902344 180.894531 196.246094 184.539062 192.960938 Z M 184.539062 192.960938 " fill-opacity="1" fill-rule="nonzero"/><path fill="#ffffff" d="M 73.007812 105.675781 C 74.480469 113.925781 75.898438 122.195312 77.46875 130.4375 C 78.195312 134.5625 78.972656 138.679688 79.800781 142.789062 C 80.597656 146.917969 81.394531 151.03125 82.242188 155.144531 C 83.890625 163.363281 85.625 171.582031 87.5 179.765625 C 86.511719 171.441406 85.394531 163.121094 84.152344 154.804688 C 83.5625 150.648438 82.929688 146.511719 82.296875 142.367188 C 81.664062 138.21875 81.011719 134.070312 80.347656 129.933594 C 79.046875 121.652344 77.609375 113.378906 76.222656 105.074219 C 74.847656 97.378906 73.519531 89.6875 72.089844 82.011719 L 83.246094 81.839844 L 96.148438 81.597656 C 98.328125 81.523438 100.425781 81.5 102.691406 81.390625 C 105.011719 81.316406 107.242188 80.496094 109.0625 79.054688 C 110.75 77.492188 111.753906 75.324219 111.851562 73.019531 C 111.984375 70.835938 111.695312 68.648438 111.003906 66.570312 C 111.460938 68.660156 111.53125 70.816406 111.210938 72.933594 C 110.964844 74.984375 109.929688 76.855469 108.320312 78.148438 C 106.640625 79.285156 104.640625 79.851562 102.617188 79.765625 C 100.542969 79.765625 98.328125 79.65625 96.191406 79.613281 L 83.246094 79.316406 L 70.324219 79.121094 L 68.589844 79.121094 L 68.882812 80.855469 C 70.160156 89.140625 71.609375 97.433594 73.007812 105.675781 Z M 73.007812 105.675781 " fill-opacity="1" fill-rule="nonzero"/><path fill="#ffffff" d="M 267.042969 79.054688 C 268.859375 80.496094 271.09375 81.316406 273.410156 81.390625 C 275.59375 81.5 277.773438 81.523438 279.953125 81.597656 L 292.878906 81.882812 L 304.035156 82.058594 C 302.605469 89.695312 301.277344 97.421875 299.902344 105.117188 C 298.515625 113.378906 297.078125 121.652344 295.769531 129.933594 C 295.101562 134.070312 294.4375 138.21875 293.816406 142.363281 C 293.195312 146.511719 292.550781 150.648438 291.960938 154.804688 C 290.742188 163.117188 289.628906 171.433594 288.625 179.765625 C 290.5 171.582031 292.234375 163.394531 293.882812 155.144531 C 294.730469 151.03125 295.527344 146.917969 296.324219 142.789062 C 297.121094 138.664062 297.90625 134.5625 298.660156 130.4375 C 300.230469 122.195312 301.644531 113.925781 303.117188 105.675781 C 304.589844 97.421875 305.964844 89.140625 307.261719 80.855469 L 307.535156 79.101562 L 305.800781 79.101562 L 292.878906 79.296875 L 279.953125 79.589844 C 277.773438 79.589844 275.59375 79.734375 273.53125 79.742188 C 271.507812 79.832031 269.507812 79.265625 267.828125 78.128906 C 266.21875 76.835938 265.183594 74.960938 264.9375 72.910156 C 264.613281 70.796875 264.683594 68.640625 265.144531 66.550781 C 264.449219 68.625 264.164062 70.816406 264.292969 73 C 264.375 75.300781 265.363281 77.480469 267.042969 79.054688 Z M 267.042969 79.054688 " fill-opacity="1" fill-rule="nonzero"/><g clip-path="url(#6741772d15)"><path fill="#ffffff" d="M 231.515625 50.15625 C 225.851562 47.695312 220.515625 44.535156 215.636719 40.75 C 210.753906 36.988281 206.167969 32.851562 201.929688 28.375 C 196.96875 22.929688 192.332031 17.199219 188.035156 11.21875 L 185.855469 14.261719 L 185.800781 14.261719 C 185.863281 14.40625 185.734375 14.425781 185.699219 14.515625 L 185.570312 14.710938 L 185.230469 15.167969 L 184.554688 16.085938 L 183.171875 17.90625 C 182.222656 19.121094 181.261719 20.308594 180.28125 21.488281 C 178.308594 23.84375 176.257812 26.148438 174.117188 28.375 C 169.90625 32.851562 165.347656 36.988281 160.488281 40.75 C 155.605469 44.535156 150.273438 47.695312 144.609375 50.15625 C 138.890625 52.675781 132.707031 53.953125 126.460938 53.902344 C 132.746094 54.382812 139.066406 53.53125 145 51.402344 C 150.976562 49.289062 156.667969 46.441406 161.9375 42.921875 C 167.226562 39.425781 172.230469 35.519531 176.898438 31.234375 C 179.25 29.109375 181.523438 26.902344 183.726562 24.609375 C 184.816406 23.515625 185.910156 22.304688 187 21.117188 L 188.089844 19.949219 C 191.570312 23.914062 195.273438 27.683594 199.179688 31.234375 C 203.851562 35.519531 208.855469 39.425781 214.144531 42.921875 C 219.414062 46.441406 225.105469 49.289062 231.082031 51.402344 C 237.015625 53.53125 243.332031 54.382812 249.621094 53.902344 C 243.390625 53.945312 237.21875 52.671875 231.515625 50.15625 Z M 231.515625 50.15625 " fill-opacity="1" fill-rule="nonzero"/></g><path fill="#ffffff" d="M 222.652344 84.828125 C 220.507812 84.0625 218.1875 83.925781 215.96875 84.429688 C 213.746094 84.933594 211.714844 86.058594 210.109375 87.679688 C 210.453125 87.617188 210.800781 87.585938 211.144531 87.589844 C 212.507812 87.589844 213.835938 87.988281 214.96875 88.746094 C 216.097656 89.5 216.980469 90.574219 217.503906 91.828125 C 218.023438 93.085938 218.160156 94.46875 217.894531 95.804688 C 217.632812 97.140625 216.976562 98.367188 216.015625 99.328125 C 215.054688 100.289062 213.828125 100.945312 212.496094 101.210938 C 211.160156 101.476562 209.777344 101.335938 208.523438 100.816406 C 207.265625 100.292969 206.195312 99.410156 205.441406 98.277344 C 204.6875 97.148438 204.285156 95.816406 204.285156 94.457031 C 204.285156 94.160156 204.285156 88.527344 204.285156 88.246094 C 201.625 93.1875 196.207031 96.746094 194.308594 93.144531 C 195.390625 92.226562 196.265625 91.078125 196.863281 89.789062 C 197.460938 88.5 197.773438 87.09375 197.777344 85.667969 C 197.769531 85.113281 197.71875 84.558594 197.625 84.011719 C 198.773438 83.105469 200.011719 82.320312 201.320312 81.664062 C 199.71875 80.683594 197.902344 80.101562 196.03125 79.972656 C 195.070312 78.628906 193.789062 77.546875 192.300781 76.828125 C 192.585938 72.648438 198.300781 70.476562 198.300781 70.476562 L 188.035156 56.878906 L 177.773438 70.476562 C 177.773438 70.476562 183.488281 72.660156 183.773438 76.828125 C 182.28125 77.542969 181 78.625 180.042969 79.972656 C 178.140625 80.089844 176.292969 80.671875 174.667969 81.664062 C 175.976562 82.320312 177.214844 83.105469 178.363281 84.011719 C 178.269531 84.558594 178.21875 85.113281 178.210938 85.667969 C 178.214844 87.09375 178.523438 88.5 179.125 89.789062 C 179.722656 91.078125 180.59375 92.226562 181.679688 93.144531 C 179.78125 96.734375 174.382812 93.144531 171.699219 88.277344 C 171.699219 88.550781 171.699219 94.171875 171.699219 94.457031 C 171.707031 95.820312 171.308594 97.15625 170.550781 98.292969 C 169.796875 99.429688 168.722656 100.316406 167.464844 100.835938 C 166.203125 101.359375 164.816406 101.496094 163.480469 101.230469 C 162.144531 100.960938 160.917969 100.300781 159.957031 99.332031 C 158.996094 98.367188 158.34375 97.132812 158.082031 95.792969 C 157.824219 94.453125 157.96875 93.066406 158.5 91.8125 C 159.03125 90.554688 159.925781 89.484375 161.0625 88.734375 C 162.203125 87.988281 163.542969 87.597656 164.90625 87.613281 C 165.269531 87.609375 165.636719 87.640625 165.996094 87.699219 C 164.390625 86.082031 162.355469 84.953125 160.132812 84.449219 C 157.910156 83.945312 155.589844 84.082031 153.445312 84.851562 C 153.445312 84.851562 152.539062 79.394531 136.460938 77.832031 L 140.652344 83.988281 C 140.878906 83.964844 141.109375 83.964844 141.335938 83.988281 C 142.195312 83.992188 143.039062 84.21875 143.785156 84.648438 C 144.527344 85.078125 145.148438 85.691406 145.582031 86.433594 C 146.015625 87.175781 146.246094 88.019531 146.253906 88.878906 C 146.261719 89.738281 146.042969 90.585938 145.625 91.332031 L 157.21875 108.347656 L 157.21875 114.894531 C 165.289062 111.621094 176.105469 109.539062 188.003906 109.539062 C 199.902344 109.539062 210.722656 111.578125 218.792969 114.894531 L 218.792969 108.347656 L 230.460938 91.214844 C 230.039062 90.464844 229.824219 89.617188 229.832031 88.757812 C 229.839844 87.898438 230.070312 87.054688 230.503906 86.3125 C 230.9375 85.574219 231.554688 84.957031 232.300781 84.527344 C 233.042969 84.097656 233.886719 83.871094 234.746094 83.867188 C 234.976562 83.847656 235.207031 83.847656 235.433594 83.867188 L 239.65625 77.789062 C 223.578125 79.394531 222.652344 84.828125 222.652344 84.828125 Z M 188.015625 89.292969 C 187.300781 89.292969 186.597656 89.082031 186.003906 88.683594 C 185.40625 88.285156 184.945312 87.71875 184.671875 87.054688 C 184.394531 86.394531 184.324219 85.664062 184.464844 84.960938 C 184.605469 84.261719 184.949219 83.613281 185.453125 83.109375 C 185.960938 82.601562 186.605469 82.253906 187.308594 82.117188 C 188.011719 81.976562 188.738281 82.046875 189.402344 82.320312 C 190.0625 82.597656 190.628906 83.0625 191.027344 83.65625 C 191.421875 84.253906 191.636719 84.953125 191.636719 85.667969 C 191.636719 86.628906 191.257812 87.546875 190.582031 88.222656 C 189.910156 88.902344 188.992188 89.289062 188.035156 89.292969 Z M 188.015625 89.292969 " fill-opacity="1" fill-rule="nonzero"/></svg>