<svg xmlns="http://www.w3.org/2000/svg" xmlns:xlink="http://www.w3.org/1999/xlink" width="500" zoomAndPan="magnify" viewBox="0 0 375 374.999991" height="500" preserveAspectRatio="xMidYMid meet" version="1.0"><defs><clipPath id="cad71176c2"><path d="M 17.683594 17.683594 L 357.433594 17.683594 L 357.433594 357.433594 L 17.683594 357.433594 Z M 17.683594 17.683594 " clip-rule="nonzero"/></clipPath></defs><g clip-path="url(#cad71176c2)"><path fill="#2c2665" d="M 98.441406 17.683594 L 276.675781 17.683594 C 277.996094 17.683594 279.316406 17.714844 280.636719 17.78125 C 281.957031 17.84375 283.273438 17.941406 284.589844 18.070312 C 285.90625 18.203125 287.214844 18.363281 288.523438 18.558594 C 289.832031 18.75 291.132812 18.976562 292.429688 19.234375 C 293.726562 19.492188 295.015625 19.78125 296.296875 20.101562 C 297.578125 20.425781 298.851562 20.777344 300.117188 21.160156 C 301.382812 21.542969 302.636719 21.957031 303.878906 22.402344 C 305.125 22.847656 306.359375 23.324219 307.578125 23.832031 C 308.800781 24.335938 310.007812 24.871094 311.203125 25.4375 C 312.398438 26 313.578125 26.59375 314.742188 27.21875 C 315.910156 27.839844 317.058594 28.492188 318.191406 29.171875 C 319.324219 29.851562 320.441406 30.558594 321.539062 31.292969 C 322.640625 32.027344 323.71875 32.789062 324.78125 33.574219 C 325.84375 34.363281 326.882812 35.175781 327.90625 36.015625 C 328.929688 36.851562 329.929688 37.714844 330.90625 38.601562 C 331.886719 39.492188 332.84375 40.402344 333.777344 41.335938 C 334.714844 42.269531 335.625 43.226562 336.511719 44.207031 C 337.398438 45.1875 338.261719 46.1875 339.101562 47.207031 C 339.9375 48.230469 340.75 49.273438 341.539062 50.332031 C 342.328125 51.394531 343.085938 52.476562 343.820312 53.574219 C 344.554688 54.671875 345.261719 55.789062 345.941406 56.921875 C 346.621094 58.054688 347.273438 59.207031 347.894531 60.371094 C 348.519531 61.535156 349.113281 62.71875 349.679688 63.910156 C 350.242188 65.105469 350.777344 66.316406 351.285156 67.535156 C 351.789062 68.757812 352.265625 69.988281 352.710938 71.234375 C 353.15625 72.476562 353.570312 73.734375 353.953125 74.996094 C 354.339844 76.261719 354.691406 77.535156 355.011719 78.816406 C 355.332031 80.101562 355.621094 81.390625 355.878906 82.683594 C 356.136719 83.980469 356.363281 85.285156 356.558594 86.589844 C 356.75 87.898438 356.914062 89.210938 357.042969 90.523438 C 357.171875 91.839844 357.269531 93.15625 357.335938 94.476562 C 357.398438 95.796875 357.429688 97.117188 357.433594 98.441406 L 357.433594 276.675781 C 357.429688 277.996094 357.398438 279.316406 357.335938 280.636719 C 357.269531 281.957031 357.171875 283.273438 357.042969 284.589844 C 356.914062 285.90625 356.75 287.214844 356.558594 288.523438 C 356.363281 289.832031 356.136719 291.132812 355.878906 292.429688 C 355.621094 293.726562 355.332031 295.015625 355.011719 296.296875 C 354.691406 297.578125 354.339844 298.851562 353.953125 300.117188 C 353.570312 301.382812 353.15625 302.636719 352.710938 303.878906 C 352.265625 305.125 351.789062 306.359375 351.285156 307.578125 C 350.777344 308.800781 350.242188 310.007812 349.679688 311.203125 C 349.113281 312.398438 348.519531 313.578125 347.894531 314.742188 C 347.273438 315.910156 346.621094 317.058594 345.941406 318.191406 C 345.261719 319.324219 344.554688 320.441406 343.820312 321.539062 C 343.085938 322.640625 342.328125 323.71875 341.539062 324.78125 C 340.75 325.84375 339.9375 326.882812 339.101562 327.90625 C 338.261719 328.929688 337.398438 329.929688 336.511719 330.90625 C 335.625 331.886719 334.714844 332.84375 333.777344 333.777344 C 332.84375 334.710938 331.886719 335.625 330.90625 336.511719 C 329.929688 337.398438 328.929688 338.261719 327.90625 339.101562 C 326.882812 339.9375 325.84375 340.75 324.78125 341.539062 C 323.71875 342.328125 322.640625 343.085938 321.539062 343.820312 C 320.441406 344.554688 319.324219 345.261719 318.191406 345.941406 C 317.058594 346.621094 315.910156 347.273438 314.742188 347.894531 C 313.578125 348.519531 312.398438 349.113281 311.203125 349.679688 C 310.007812 350.242188 308.800781 350.777344 307.578125 351.285156 C 306.359375 351.789062 305.125 352.265625 303.878906 352.710938 C 302.636719 353.15625 301.382812 353.570312 300.117188 353.953125 C 298.851562 354.335938 297.578125 354.691406 296.296875 355.011719 C 295.015625 355.332031 293.726562 355.621094 292.429688 355.878906 C 291.132812 356.136719 289.832031 356.363281 288.523438 356.558594 C 287.214844 356.75 285.90625 356.914062 284.589844 357.042969 C 283.273438 357.171875 281.957031 357.269531 280.636719 357.335938 C 279.316406 357.398438 277.996094 357.433594 276.675781 357.433594 L 98.441406 357.433594 C 97.117188 357.433594 95.796875 357.398438 94.476562 357.335938 C 93.15625 357.269531 91.839844 357.171875 90.523438 357.042969 C 89.210938 356.914062 87.898438 356.75 86.589844 356.558594 C 85.285156 356.363281 83.980469 356.136719 82.683594 355.878906 C 81.390625 355.621094 80.101562 355.332031 78.816406 355.011719 C 77.535156 354.691406 76.261719 354.335938 74.996094 353.953125 C 73.734375 353.570312 72.476562 353.15625 71.234375 352.710938 C 69.988281 352.265625 68.757812 351.789062 67.535156 351.285156 C 66.316406 350.777344 65.105469 350.242188 63.910156 349.679688 C 62.71875 349.113281 61.539062 348.519531 60.371094 347.894531 C 59.207031 347.273438 58.054688 346.621094 56.921875 345.941406 C 55.789062 345.261719 54.671875 344.554688 53.574219 343.820312 C 52.476562 343.085938 51.394531 342.328125 50.332031 341.539062 C 49.273438 340.75 48.230469 339.9375 47.207031 339.101562 C 46.1875 338.261719 45.1875 337.398438 44.207031 336.511719 C 43.226562 335.625 42.269531 334.710938 41.335938 333.777344 C 40.402344 332.84375 39.492188 331.886719 38.601562 330.90625 C 37.714844 329.929688 36.851562 328.929688 36.015625 327.90625 C 35.175781 326.882812 34.363281 325.84375 33.574219 324.78125 C 32.789062 323.71875 32.027344 322.640625 31.292969 321.539062 C 30.558594 320.441406 29.851562 319.324219 29.171875 318.191406 C 28.492188 317.058594 27.839844 315.910156 27.21875 314.742188 C 26.59375 313.578125 26 312.398438 25.4375 311.203125 C 24.871094 310.007812 24.335938 308.800781 23.832031 307.578125 C 23.324219 306.359375 22.847656 305.125 22.402344 303.878906 C 21.957031 302.636719 21.542969 301.382812 21.160156 300.117188 C 20.777344 298.851562 20.425781 297.578125 20.101562 296.296875 C 19.78125 295.015625 19.492188 293.726562 19.234375 292.429688 C 18.976562 291.132812 18.75 289.832031 18.558594 288.523438 C 18.363281 287.214844 18.203125 285.90625 18.070312 284.589844 C 17.941406 283.273438 17.84375 281.957031 17.78125 280.636719 C 17.714844 279.316406 17.683594 277.996094 17.683594 276.675781 L 17.683594 98.441406 C 17.683594 97.117188 17.714844 95.796875 17.78125 94.476562 C 17.84375 93.15625 17.941406 91.839844 18.070312 90.523438 C 18.203125 89.210938 18.363281 87.898438 18.558594 86.589844 C 18.75 85.285156 18.976562 83.980469 19.234375 82.683594 C 19.492188 81.390625 19.78125 80.101562 20.101562 78.816406 C 20.425781 77.535156 20.777344 76.261719 21.160156 74.996094 C 21.542969 73.734375 21.957031 72.476562 22.402344 71.234375 C 22.847656 69.988281 23.324219 68.757812 23.832031 67.535156 C 24.335938 66.316406 24.871094 65.105469 25.4375 63.910156 C 26 62.71875 26.59375 61.535156 27.21875 60.371094 C 27.839844 59.207031 28.492188 58.054688 29.171875 56.921875 C 29.851562 55.789062 30.558594 54.671875 31.292969 53.574219 C 32.027344 52.476562 32.789062 51.394531 33.574219 50.332031 C 34.363281 49.273438 35.175781 48.230469 36.015625 47.207031 C 36.851562 46.1875 37.714844 45.1875 38.601562 44.207031 C 39.492188 43.226562 40.402344 42.269531 41.335938 41.335938 C 42.269531 40.402344 43.226562 39.492188 44.207031 38.601562 C 45.1875 37.714844 46.1875 36.851562 47.207031 36.015625 C 48.230469 35.175781 49.273438 34.363281 50.332031 33.574219 C 51.394531 32.789062 52.476562 32.027344 53.574219 31.292969 C 54.671875 30.558594 55.789062 29.851562 56.921875 29.171875 C 58.054688 28.492188 59.207031 27.839844 60.371094 27.21875 C 61.539062 26.59375 62.71875 26 63.910156 25.4375 C 65.105469 24.871094 66.316406 24.335938 67.535156 23.832031 C 68.757812 23.324219 69.988281 22.847656 71.234375 22.402344 C 72.476562 21.957031 73.734375 21.542969 74.996094 21.160156 C 76.261719 20.777344 77.535156 20.425781 78.816406 20.101562 C 80.101562 19.78125 81.390625 19.492188 82.683594 19.234375 C 83.980469 18.976562 85.285156 18.75 86.589844 18.558594 C 87.898438 18.363281 89.210938 18.203125 90.523438 18.070312 C 91.839844 17.941406 93.15625 17.84375 94.476562 17.78125 C 95.796875 17.714844 97.117188 17.683594 98.441406 17.683594 Z M 98.441406 17.683594 " fill-opacity="1" fill-rule="nonzero"/></g><path fill="#ffffff" d="M 290.210938 119.363281 C 226.710938 113.296875 227.921875 57.480469 227.921875 57.480469 L 186.980469 57.480469 L 186.980469 233.75 C 185.945312 252.601562 170.359375 267.359375 151.480469 267.359375 C 131.84375 267.359375 115.925781 251.441406 115.925781 231.804688 C 115.925781 212.171875 131.84375 196.253906 151.480469 196.253906 C 155.625 196.253906 159.734375 196.976562 163.628906 198.394531 L 164.03125 151.855469 C 159.699219 151.121094 155.308594 150.75 150.914062 150.75 C 107.578125 150.75 72.449219 185.882812 72.449219 229.21875 C 72.449219 272.554688 107.578125 307.683594 150.914062 307.683594 C 192.769531 307.683594 227.257812 274.832031 229.289062 233.023438 L 229.289062 141.207031 C 229.289062 141.207031 251.785156 160.621094 290.210938 161.429688 Z M 290.210938 119.363281 " fill-opacity="1" fill-rule="nonzero"/></svg>